<svg width="100" height="100" viewBox="0 0 100 100" fill="none" xmlns="http://www.w3.org/2000/svg">
<path d="M47.2282 40.6042C45.8681 40.8029 44.3954 40.761 42.788 40.2297C38.937 38.9568 29.9553 39.5573 27.3365 40.0579C19.9598 41.4676 12.7455 43.1061 6.26062 45.4099L7.44397 50.3928C9.48788 50.7292 10.3206 51.9287 10.8849 53.4611C13.4858 60.5242 16.3623 66.4035 19.9962 68.3521C22.577 69.7359 25.6863 70.777 30.9082 69.61C36.471 68.3669 42.1198 65.6835 44.3881 61.7399C46.3796 58.2778 48.175 53.1939 48.1855 48.0105C48.1895 46.0575 49.3556 44.9712 50.8625 44.6829C52.3693 44.3945 53.8541 44.9736 54.5788 46.7872C56.5021 51.6006 60.0475 55.6625 63.1764 58.1449C66.7403 60.9725 72.9808 61.3811 78.6095 60.4828C83.8933 59.6396 86.3986 57.5242 88.2863 55.2853C90.9442 52.1329 91.447 45.607 91.2568 38.0826C91.2155 36.4502 91.5466 35.0279 93.3219 33.9608L92.5822 28.893C85.7048 29.1459 78.3952 30.2865 71.0192 31.6996C68.4006 32.2011 59.8317 34.9588 56.7226 37.5634C55.4248 38.6506 54.0716 39.2332 52.7342 39.5507C50.9161 39.9823 49.0773 40.3341 47.2282 40.6042ZM25.4334 43.0471C27.0623 42.7324 28.7201 42.4563 30.2765 42.134C31.6233 41.8552 40.8802 39.8192 43.4559 45.1343C45.9111 50.2005 45.0842 57.3969 41.2923 62.101C38.6503 65.3787 26.7942 70.6556 20.83 65.8531C16.7422 62.5615 15.3541 59.1308 14.053 54.2558C13.2288 51.1676 13.4186 47.8193 18.1942 45.2211C20.0916 44.1888 22.7185 43.5715 25.4334 43.0471ZM68.2028 34.8636C68.589 34.7875 68.884 34.7442 69.0533 34.7144C70.6187 34.4393 72.2613 34.0839 73.8914 33.7751C76.6082 33.2602 79.2773 32.8641 81.4219 33.1231C86.8192 33.7747 88.2318 36.8164 88.6058 39.9908C89.1963 45.0018 89.1728 48.7025 86.5889 53.2707C82.8189 59.9358 69.8522 59.4085 66.1868 57.3377C60.9262 54.3657 57.501 47.9829 57.9125 42.3682C58.2902 37.214 65.4989 35.3955 68.2028 34.8636Z" fill="#343B4C"/>
<rect x="2" y="2" width="96" height="96" rx="6" stroke="#343B4C" stroke-width="4"/>
</svg>
