<svg width="2700" height="1841" viewBox="0 0 2700 1841" fill="none" xmlns="http://www.w3.org/2000/svg">
<path d="M371.689 497.348C372.907 524.364 371.904 634.632 370.543 662.06L371.689 497.348ZM368.717 494C370.006 521.369 368.287 637.628 368.824 666.2Z" fill="#54ACFC"/>
<path d="M368.717 494C370.006 521.369 368.287 637.628 368.824 666.2M371.689 497.348C372.907 524.364 371.904 634.632 370.543 662.06L371.689 497.348Z" stroke="black" stroke-opacity="0.5" stroke-width="13.1101" stroke-linecap="round"/>
<path d="M889.601 526.194C889.158 549.648 887.198 638.917 887.198 662.507L889.601 526.194ZM884.425 524C883.279 548.078 882.687 642.194 883.168 665.297Z" fill="#54ACFC"/>
<path d="M884.425 524C883.279 548.078 882.687 642.194 883.168 665.297M889.601 526.194C889.158 549.648 887.198 638.917 887.198 662.507L889.601 526.194Z" stroke="black" stroke-opacity="0.5" stroke-width="13.1101" stroke-linecap="round"/>
<path d="M449.281 995.643C516.295 1054.98 782.434 1287.59 849.378 1346.26M454.525 989.912C521.693 1048.92 785.616 1284.76 851.975 1343.96L454.525 989.912Z" stroke="black" stroke-opacity="0.5" stroke-width="13.1101" stroke-linecap="round"/>
<path d="M757.129 1305.25C788.823 1324.25 824.062 1337.02 852.497 1346.08M753.051 1310.08C770.666 1318.81 793.301 1327.08 849.22 1342.07L753.051 1310.08Z" stroke="black" stroke-opacity="0.5" stroke-width="13.1101" stroke-linecap="round"/>
<path d="M803 1261.71C817.75 1296.33 836.205 1325.03 852.497 1346.08M798.929 1266.51C806.196 1285.11 818.625 1303.08 849.22 1342.07L798.929 1266.51Z" stroke="black" stroke-opacity="0.5" stroke-width="13.1101" stroke-linecap="round"/>
<path d="M895.193 1028.49C895.337 1068.67 899.956 1222.89 901.389 1261.83M899.348 1021.44C899.921 1062.58 903.681 1226.86 903.072 1268.09L899.348 1021.44Z" stroke="black" stroke-opacity="0.5" stroke-width="13.1101" stroke-linecap="round"/>
<path d="M863.534 1169.01C867.868 1191.72 878.612 1212.93 898.094 1264M856.443 1175.43C877.287 1195.99 892.4 1240.56 903.932 1261.61L856.443 1175.43Z" stroke="black" stroke-opacity="0.5" stroke-width="13.1101" stroke-linecap="round"/>
<path d="M936.987 1167.01C924.703 1189.72 918.865 1211.39 898.094 1264M929.932 1173.43C924.846 1195.03 914.031 1240.33 903.931 1261.61L929.932 1173.43Z" stroke="black" stroke-opacity="0.5" stroke-width="13.1101" stroke-linecap="round"/>
<path d="M1015.8 1405.42C1082.73 1437.7 1341.73 1565.08 1407.06 1597.56M1008.56 1398.83C1075.57 1432.36 1342.38 1569.4 1409.13 1603.98L1008.56 1398.83Z" stroke="black" stroke-opacity="0.5" stroke-width="13.1101" stroke-linecap="round"/>
<path d="M1304.06 1581.4C1326.62 1584.45 1345.71 1587.89 1404.16 1595.04M1293.89 1587.1C1327.73 1590.81 1356.99 1585.43 1404.27 1603.13L1293.89 1587.1Z" stroke="black" stroke-opacity="0.5" stroke-width="13.1101" stroke-linecap="round"/>
<path d="M1338.94 1522.2C1353.88 1538.56 1365.19 1555.21 1404.16 1595.04M1328.81 1527.91C1354.41 1545.51 1375.4 1554.13 1404.27 1603.13L1328.81 1527.91Z" stroke="black" stroke-opacity="0.5" stroke-width="13.1101" stroke-linecap="round"/>
<path d="M1024.68 400.156C1104.18 388.356 1414.9 346.793 1493.38 335.977M1018 403.86C1098 393.109 1417.41 352.661 1497.51 340.86L1018 403.86Z" stroke="black" stroke-opacity="0.5" stroke-width="13.1101" stroke-linecap="round"/>
<path d="M1407.23 379.834C1426.17 370.787 1445.38 357.25 1490.2 334.371M1404.85 378.687C1434.7 368.919 1444.09 360.823 1499.23 335.42L1404.85 378.687Z" stroke="black" stroke-opacity="0.5" stroke-width="13.1101" stroke-linecap="round"/>
<path d="M1398.04 313.196C1419 319.227 1440.29 320.833 1490.2 334.371M1395.66 312.049C1428.03 319.424 1439.79 328.471 1499.23 335.42L1395.66 312.049Z" stroke="black" stroke-opacity="0.5" stroke-width="13.1101" stroke-linecap="round"/>
<path d="M1683.56 362.114C1684.42 373.455 1686.53 418.459 1687 430.063L1683.56 362.114ZM1690.37 360.737C1690.97 374.242 1684.78 421.704 1683.6 434.258Z" fill="#54ACFC"/>
<path d="M1690.37 360.737C1690.97 374.242 1684.78 421.704 1683.6 434.258M1683.56 362.114C1684.42 373.455 1686.53 418.459 1687 430.063L1683.56 362.114Z" stroke="black" stroke-opacity="0.5" stroke-width="13.1101" stroke-linecap="round"/>
<path d="M1680.67 735.762C1679.71 744.776 1681.78 777.733 1681.93 786.465L1680.67 735.762ZM1686.98 734.181C1684.93 743.693 1679.17 779.51 1677.63 789Z" fill="#54ACFC"/>
<path d="M1686.98 734.181C1684.93 743.693 1679.17 779.51 1677.63 789M1680.67 735.762C1679.71 744.776 1681.78 777.733 1681.93 786.465L1680.67 735.762Z" stroke="black" stroke-opacity="0.5" stroke-width="13.1101" stroke-linecap="round"/>
<path d="M1671.94 1212C1673.09 1240.76 1686.98 1357.66 1689.24 1386.84M1677.42 1215.05C1677.38 1244.6 1679.18 1361.94 1680.64 1391.44L1677.42 1215.05Z" stroke="black" stroke-opacity="0.5" stroke-width="13.1101" stroke-linecap="round"/>
<path d="M1645.22 1317.73C1664.06 1344.51 1676.42 1371.55 1688.81 1388.83M1643.9 1312.74C1664.99 1345.81 1682.29 1368.55 1694.79 1390.52L1643.9 1312.74Z" stroke="black" stroke-opacity="0.5" stroke-width="13.1101" stroke-linecap="round"/>
<path d="M1718.53 1313.87C1709.11 1342.63 1693.21 1371.16 1688.81 1388.83M1717.21 1308.88C1711.41 1343.31 1701.81 1367.48 1694.79 1390.52L1717.21 1308.88Z" stroke="black" stroke-opacity="0.5" stroke-width="13.1101" stroke-linecap="round"/>
<path d="M1817.47 1086.25C1891.46 1132.01 2194.87 1312.36 2268.43 1357.56M1821.23 1088.12C1894.33 1134.76 2187.17 1317.11 2260.73 1362.96L1821.23 1088.12Z" stroke="black" stroke-opacity="0.5" stroke-width="13.1101" stroke-linecap="round"/>
<path d="M2160.39 1333.5C2196.49 1342.58 2235.67 1349 2271.37 1359.26M2169.34 1328.91C2209.77 1340.02 2251.17 1354.11 2267.83 1363.33L2169.34 1328.91Z" stroke="black" stroke-opacity="0.5" stroke-width="13.1101" stroke-linecap="round"/>
<path d="M2200.82 1277.35C2222.92 1305.47 2248.45 1330.88 2271.37 1359.26M2209.77 1272.73C2234.12 1305.96 2259.84 1341.92 2267.82 1363.33L2209.77 1272.73Z" stroke="black" stroke-opacity="0.5" stroke-width="13.1101" stroke-linecap="round"/>
<path d="M1861.82 631.906C1889.9 628.333 1997.84 605.618 2024.98 600.144M1855.88 624.433C1884.35 619.942 1999.88 600.603 2028.53 595.785L1855.88 624.433Z" stroke="black" stroke-opacity="0.5" stroke-width="13.1101" stroke-linecap="round"/>
<path d="M1951.21 642.298C1980.11 622.894 2011.27 607.652 2022.19 598.999M1948.67 642.233C1968.94 630.99 1987.06 623.549 2025.99 604.866L1948.67 642.233Z" stroke="black" stroke-opacity="0.5" stroke-width="13.1101" stroke-linecap="round"/>
<path d="M1938.32 589.688C1972.2 590.999 2008.48 596.604 2022.19 598.997M1935.78 589.59C1958.8 591.852 1980.18 597.784 2025.99 604.864L1935.78 589.59Z" stroke="black" stroke-opacity="0.5" stroke-width="13.1101" stroke-linecap="round"/>
<path d="M2355.92 773.258C2357.13 857.825 2356.85 1194.19 2356.78 1279.02M2349.18 776.962C2348.9 860.808 2348.86 1200.39 2348.54 1284L2349.18 776.962Z" stroke="black" stroke-opacity="0.5" stroke-width="13.1101" stroke-linecap="round"/>
<path d="M2316.74 1188.72C2329.84 1213.4 2342.63 1239.85 2358.39 1278.43M2319.21 1182.33C2337.76 1205.5 2338.22 1241.82 2352.8 1273.91L2319.21 1182.33Z" stroke="black" stroke-opacity="0.5" stroke-width="13.1101" stroke-linecap="round"/>
<path d="M2390.23 1188.75C2382.53 1213.4 2374.43 1239.85 2358.39 1278.43M2392.7 1182.36C2391.26 1205.21 2371.78 1241.49 2352.8 1273.91L2392.7 1182.36Z" stroke="black" stroke-opacity="0.5" stroke-width="13.1101" stroke-linecap="round"/>
<g filter="url(#filter0_bii_313_3842)">
<rect x="1828" y="431" width="299" height="299" rx="20" transform="rotate(90 1828 431)" fill="#54ACFC" fill-opacity="0.1"/>
</g>
<g filter="url(#filter1_bii_313_3842)">
<rect x="2574" y="440" width="299" height="531" rx="20" transform="rotate(90 2574 440)" fill="#00E532" fill-opacity="0.1"/>
</g>
<g filter="url(#filter2_bii_313_3842)">
<rect x="590" y="671" width="299" height="476" rx="20" transform="rotate(90 590 671)" fill="#54ACFC" fill-opacity="0.1"/>
</g>
<g filter="url(#filter3_bii_313_3842)">
<rect x="1121" y="671" width="299" height="476" rx="20" transform="rotate(90 1121 671)" fill="#00E532" fill-opacity="0.1"/>
</g>
<g filter="url(#filter4_bii_313_3842)">
<rect x="2565.5" y="1399" width="386.5" height="386.5" rx="20" transform="rotate(90 2565.5 1399)" fill="#54ACFC" fill-opacity="0.1"/>
</g>
<g filter="url(#filter5_bii_313_3842)">
<rect x="372.426" y="71.0068" width="299" height="299" rx="20" transform="rotate(45 372.426 71.0068)" fill="#54ACFC" fill-opacity="0.1"/>
</g>
<g filter="url(#filter6_bii_313_3842)">
<rect x="883.426" y="101" width="299" height="299" rx="20" transform="rotate(45 883.426 101)" fill="#00E532" fill-opacity="0.1"/>
</g>
<g filter="url(#filter7_bii_313_3842)">
<rect x="1834" y="60" width="299" height="299" rx="20" transform="rotate(90 1834 60)" fill="#7B67F8" fill-opacity="0.1"/>
</g>
<g filter="url(#filter8_bii_313_3842)">
<circle cx="930" cy="1374" r="50" fill="#F0B600" fill-opacity="0.1"/>
</g>
<g filter="url(#filter9_bii_313_3842)">
<rect x="1888.5" y="1410" width="386.5" height="386.5" rx="20" transform="rotate(90 1888.5 1410)" fill="#FF0F00" fill-opacity="0.1"/>
</g>
<g filter="url(#filter10_bii_313_3842)">
<rect x="1672.43" y="790" width="299" height="299" rx="20" transform="rotate(45 1672.43 790)" fill="#F0B600" fill-opacity="0.1"/>
</g>
<defs>
<filter id="filter0_bii_313_3842" x="1489.13" y="391.133" width="378.733" height="378.733" filterUnits="userSpaceOnUse" color-interpolation-filters="sRGB">
<feFlood flood-opacity="0" result="BackgroundImageFix"/>
<feGaussianBlur in="BackgroundImage" stdDeviation="19.9333"/>
<feComposite in2="SourceAlpha" operator="in" result="effect1_backgroundBlur_313_3842"/>
<feBlend mode="normal" in="SourceGraphic" in2="effect1_backgroundBlur_313_3842" result="shape"/>
<feColorMatrix in="SourceAlpha" type="matrix" values="0 0 0 0 0 0 0 0 0 0 0 0 0 0 0 0 0 0 127 0" result="hardAlpha"/>
<feOffset dx="-19.9333" dy="19.9333"/>
<feGaussianBlur stdDeviation="9.96667"/>
<feComposite in2="hardAlpha" operator="arithmetic" k2="-1" k3="1"/>
<feColorMatrix type="matrix" values="0 0 0 0 1 0 0 0 0 1 0 0 0 0 1 0 0 0 0.1 0"/>
<feBlend mode="normal" in2="shape" result="effect2_innerShadow_313_3842"/>
<feColorMatrix in="SourceAlpha" type="matrix" values="0 0 0 0 0 0 0 0 0 0 0 0 0 0 0 0 0 0 127 0" result="hardAlpha"/>
<feOffset dx="19.9333" dy="-19.9333"/>
<feGaussianBlur stdDeviation="9.96667"/>
<feComposite in2="hardAlpha" operator="arithmetic" k2="-1" k3="1"/>
<feColorMatrix type="matrix" values="0 0 0 0 0.250462 0 0 0 0 0.511495 0 0 0 0 0.752448 0 0 0 0.1 0"/>
<feBlend mode="normal" in2="effect2_innerShadow_313_3842" result="effect3_innerShadow_313_3842"/>
</filter>
<filter id="filter1_bii_313_3842" x="2003.13" y="400.133" width="610.733" height="378.733" filterUnits="userSpaceOnUse" color-interpolation-filters="sRGB">
<feFlood flood-opacity="0" result="BackgroundImageFix"/>
<feGaussianBlur in="BackgroundImage" stdDeviation="19.9333"/>
<feComposite in2="SourceAlpha" operator="in" result="effect1_backgroundBlur_313_3842"/>
<feBlend mode="normal" in="SourceGraphic" in2="effect1_backgroundBlur_313_3842" result="shape"/>
<feColorMatrix in="SourceAlpha" type="matrix" values="0 0 0 0 0 0 0 0 0 0 0 0 0 0 0 0 0 0 127 0" result="hardAlpha"/>
<feOffset dx="-19.9333" dy="19.9333"/>
<feGaussianBlur stdDeviation="9.96667"/>
<feComposite in2="hardAlpha" operator="arithmetic" k2="-1" k3="1"/>
<feColorMatrix type="matrix" values="0 0 0 0 1 0 0 0 0 1 0 0 0 0 1 0 0 0 0.1 0"/>
<feBlend mode="normal" in2="shape" result="effect2_innerShadow_313_3842"/>
<feColorMatrix in="SourceAlpha" type="matrix" values="0 0 0 0 0 0 0 0 0 0 0 0 0 0 0 0 0 0 127 0" result="hardAlpha"/>
<feOffset dx="19.9333" dy="-19.9333"/>
<feGaussianBlur stdDeviation="9.96667"/>
<feComposite in2="hardAlpha" operator="arithmetic" k2="-1" k3="1"/>
<feColorMatrix type="matrix" values="0 0 0 0 0 0 0 0 0 0.68251 0 0 0 0 0.14902 0 0 0 0.1 0"/>
<feBlend mode="normal" in2="effect2_innerShadow_313_3842" result="effect3_innerShadow_313_3842"/>
</filter>
<filter id="filter2_bii_313_3842" x="74.1333" y="631.133" width="555.733" height="378.733" filterUnits="userSpaceOnUse" color-interpolation-filters="sRGB">
<feFlood flood-opacity="0" result="BackgroundImageFix"/>
<feGaussianBlur in="BackgroundImage" stdDeviation="19.9333"/>
<feComposite in2="SourceAlpha" operator="in" result="effect1_backgroundBlur_313_3842"/>
<feBlend mode="normal" in="SourceGraphic" in2="effect1_backgroundBlur_313_3842" result="shape"/>
<feColorMatrix in="SourceAlpha" type="matrix" values="0 0 0 0 0 0 0 0 0 0 0 0 0 0 0 0 0 0 127 0" result="hardAlpha"/>
<feOffset dx="-19.9333" dy="19.9333"/>
<feGaussianBlur stdDeviation="9.96667"/>
<feComposite in2="hardAlpha" operator="arithmetic" k2="-1" k3="1"/>
<feColorMatrix type="matrix" values="0 0 0 0 1 0 0 0 0 1 0 0 0 0 1 0 0 0 0.1 0"/>
<feBlend mode="normal" in2="shape" result="effect2_innerShadow_313_3842"/>
<feColorMatrix in="SourceAlpha" type="matrix" values="0 0 0 0 0 0 0 0 0 0 0 0 0 0 0 0 0 0 127 0" result="hardAlpha"/>
<feOffset dx="19.9333" dy="-19.9333"/>
<feGaussianBlur stdDeviation="9.96667"/>
<feComposite in2="hardAlpha" operator="arithmetic" k2="-1" k3="1"/>
<feColorMatrix type="matrix" values="0 0 0 0 0.250462 0 0 0 0 0.511495 0 0 0 0 0.752448 0 0 0 0.1 0"/>
<feBlend mode="normal" in2="effect2_innerShadow_313_3842" result="effect3_innerShadow_313_3842"/>
</filter>
<filter id="filter3_bii_313_3842" x="605.133" y="631.133" width="555.733" height="378.733" filterUnits="userSpaceOnUse" color-interpolation-filters="sRGB">
<feFlood flood-opacity="0" result="BackgroundImageFix"/>
<feGaussianBlur in="BackgroundImage" stdDeviation="19.9333"/>
<feComposite in2="SourceAlpha" operator="in" result="effect1_backgroundBlur_313_3842"/>
<feBlend mode="normal" in="SourceGraphic" in2="effect1_backgroundBlur_313_3842" result="shape"/>
<feColorMatrix in="SourceAlpha" type="matrix" values="0 0 0 0 0 0 0 0 0 0 0 0 0 0 0 0 0 0 127 0" result="hardAlpha"/>
<feOffset dx="-19.9333" dy="19.9333"/>
<feGaussianBlur stdDeviation="9.96667"/>
<feComposite in2="hardAlpha" operator="arithmetic" k2="-1" k3="1"/>
<feColorMatrix type="matrix" values="0 0 0 0 1 0 0 0 0 1 0 0 0 0 1 0 0 0 0.1 0"/>
<feBlend mode="normal" in2="shape" result="effect2_innerShadow_313_3842"/>
<feColorMatrix in="SourceAlpha" type="matrix" values="0 0 0 0 0 0 0 0 0 0 0 0 0 0 0 0 0 0 127 0" result="hardAlpha"/>
<feOffset dx="19.9333" dy="-19.9333"/>
<feGaussianBlur stdDeviation="9.96667"/>
<feComposite in2="hardAlpha" operator="arithmetic" k2="-1" k3="1"/>
<feColorMatrix type="matrix" values="0 0 0 0 0 0 0 0 0 0.68251 0 0 0 0 0.14902 0 0 0 0.1 0"/>
<feBlend mode="normal" in2="effect2_innerShadow_313_3842" result="effect3_innerShadow_313_3842"/>
</filter>
<filter id="filter4_bii_313_3842" x="2139.13" y="1359.13" width="466.233" height="466.233" filterUnits="userSpaceOnUse" color-interpolation-filters="sRGB">
<feFlood flood-opacity="0" result="BackgroundImageFix"/>
<feGaussianBlur in="BackgroundImage" stdDeviation="19.9333"/>
<feComposite in2="SourceAlpha" operator="in" result="effect1_backgroundBlur_313_3842"/>
<feBlend mode="normal" in="SourceGraphic" in2="effect1_backgroundBlur_313_3842" result="shape"/>
<feColorMatrix in="SourceAlpha" type="matrix" values="0 0 0 0 0 0 0 0 0 0 0 0 0 0 0 0 0 0 127 0" result="hardAlpha"/>
<feOffset dx="-19.9333" dy="19.9333"/>
<feGaussianBlur stdDeviation="9.96667"/>
<feComposite in2="hardAlpha" operator="arithmetic" k2="-1" k3="1"/>
<feColorMatrix type="matrix" values="0 0 0 0 1 0 0 0 0 1 0 0 0 0 1 0 0 0 0.1 0"/>
<feBlend mode="normal" in2="shape" result="effect2_innerShadow_313_3842"/>
<feColorMatrix in="SourceAlpha" type="matrix" values="0 0 0 0 0 0 0 0 0 0 0 0 0 0 0 0 0 0 127 0" result="hardAlpha"/>
<feOffset dx="19.9333" dy="-19.9333"/>
<feGaussianBlur stdDeviation="9.96667"/>
<feComposite in2="hardAlpha" operator="arithmetic" k2="-1" k3="1"/>
<feColorMatrix type="matrix" values="0 0 0 0 0.250462 0 0 0 0 0.511495 0 0 0 0 0.752448 0 0 0 0.1 0"/>
<feBlend mode="normal" in2="effect2_innerShadow_313_3842" result="effect3_innerShadow_313_3842"/>
</filter>
<filter id="filter5_bii_313_3842" x="129.418" y="39.4244" width="486.015" height="486.015" filterUnits="userSpaceOnUse" color-interpolation-filters="sRGB">
<feFlood flood-opacity="0" result="BackgroundImageFix"/>
<feGaussianBlur in="BackgroundImage" stdDeviation="19.9333"/>
<feComposite in2="SourceAlpha" operator="in" result="effect1_backgroundBlur_313_3842"/>
<feBlend mode="normal" in="SourceGraphic" in2="effect1_backgroundBlur_313_3842" result="shape"/>
<feColorMatrix in="SourceAlpha" type="matrix" values="0 0 0 0 0 0 0 0 0 0 0 0 0 0 0 0 0 0 127 0" result="hardAlpha"/>
<feOffset dx="-19.9333" dy="19.9333"/>
<feGaussianBlur stdDeviation="9.96667"/>
<feComposite in2="hardAlpha" operator="arithmetic" k2="-1" k3="1"/>
<feColorMatrix type="matrix" values="0 0 0 0 1 0 0 0 0 1 0 0 0 0 1 0 0 0 0.1 0"/>
<feBlend mode="normal" in2="shape" result="effect2_innerShadow_313_3842"/>
<feColorMatrix in="SourceAlpha" type="matrix" values="0 0 0 0 0 0 0 0 0 0 0 0 0 0 0 0 0 0 127 0" result="hardAlpha"/>
<feOffset dx="19.9333" dy="-19.9333"/>
<feGaussianBlur stdDeviation="9.96667"/>
<feComposite in2="hardAlpha" operator="arithmetic" k2="-1" k3="1"/>
<feColorMatrix type="matrix" values="0 0 0 0 0.250462 0 0 0 0 0.511495 0 0 0 0 0.752448 0 0 0 0.1 0"/>
<feBlend mode="normal" in2="effect2_innerShadow_313_3842" result="effect3_innerShadow_313_3842"/>
</filter>
<filter id="filter6_bii_313_3842" x="640.418" y="69.4175" width="486.015" height="486.015" filterUnits="userSpaceOnUse" color-interpolation-filters="sRGB">
<feFlood flood-opacity="0" result="BackgroundImageFix"/>
<feGaussianBlur in="BackgroundImage" stdDeviation="19.9333"/>
<feComposite in2="SourceAlpha" operator="in" result="effect1_backgroundBlur_313_3842"/>
<feBlend mode="normal" in="SourceGraphic" in2="effect1_backgroundBlur_313_3842" result="shape"/>
<feColorMatrix in="SourceAlpha" type="matrix" values="0 0 0 0 0 0 0 0 0 0 0 0 0 0 0 0 0 0 127 0" result="hardAlpha"/>
<feOffset dx="-19.9333" dy="19.9333"/>
<feGaussianBlur stdDeviation="9.96667"/>
<feComposite in2="hardAlpha" operator="arithmetic" k2="-1" k3="1"/>
<feColorMatrix type="matrix" values="0 0 0 0 1 0 0 0 0 1 0 0 0 0 1 0 0 0 0.1 0"/>
<feBlend mode="normal" in2="shape" result="effect2_innerShadow_313_3842"/>
<feColorMatrix in="SourceAlpha" type="matrix" values="0 0 0 0 0 0 0 0 0 0 0 0 0 0 0 0 0 0 127 0" result="hardAlpha"/>
<feOffset dx="19.9333" dy="-19.9333"/>
<feGaussianBlur stdDeviation="9.96667"/>
<feComposite in2="hardAlpha" operator="arithmetic" k2="-1" k3="1"/>
<feColorMatrix type="matrix" values="0 0 0 0 0 0 0 0 0 0.68251 0 0 0 0 0.14902 0 0 0 0.1 0"/>
<feBlend mode="normal" in2="effect2_innerShadow_313_3842" result="effect3_innerShadow_313_3842"/>
</filter>
<filter id="filter7_bii_313_3842" x="1495.13" y="20.1333" width="378.733" height="378.733" filterUnits="userSpaceOnUse" color-interpolation-filters="sRGB">
<feFlood flood-opacity="0" result="BackgroundImageFix"/>
<feGaussianBlur in="BackgroundImage" stdDeviation="19.9333"/>
<feComposite in2="SourceAlpha" operator="in" result="effect1_backgroundBlur_313_3842"/>
<feBlend mode="normal" in="SourceGraphic" in2="effect1_backgroundBlur_313_3842" result="shape"/>
<feColorMatrix in="SourceAlpha" type="matrix" values="0 0 0 0 0 0 0 0 0 0 0 0 0 0 0 0 0 0 127 0" result="hardAlpha"/>
<feOffset dx="-19.9333" dy="19.9333"/>
<feGaussianBlur stdDeviation="9.96667"/>
<feComposite in2="hardAlpha" operator="arithmetic" k2="-1" k3="1"/>
<feColorMatrix type="matrix" values="0 0 0 0 1 0 0 0 0 1 0 0 0 0 1 0 0 0 0.1 0"/>
<feBlend mode="normal" in2="shape" result="effect2_innerShadow_313_3842"/>
<feColorMatrix in="SourceAlpha" type="matrix" values="0 0 0 0 0 0 0 0 0 0 0 0 0 0 0 0 0 0 127 0" result="hardAlpha"/>
<feOffset dx="19.9333" dy="-19.9333"/>
<feGaussianBlur stdDeviation="9.96667"/>
<feComposite in2="hardAlpha" operator="arithmetic" k2="-1" k3="1"/>
<feColorMatrix type="matrix" values="0 0 0 0 0.367044 0 0 0 0 0.307442 0 0 0 0 0.738675 0 0 0 0.1 0"/>
<feBlend mode="normal" in2="effect2_innerShadow_313_3842" result="effect3_innerShadow_313_3842"/>
</filter>
<filter id="filter8_bii_313_3842" x="866.667" y="1310.67" width="126.667" height="126.667" filterUnits="userSpaceOnUse" color-interpolation-filters="sRGB">
<feFlood flood-opacity="0" result="BackgroundImageFix"/>
<feGaussianBlur in="BackgroundImage" stdDeviation="6.66667"/>
<feComposite in2="SourceAlpha" operator="in" result="effect1_backgroundBlur_313_3842"/>
<feBlend mode="normal" in="SourceGraphic" in2="effect1_backgroundBlur_313_3842" result="shape"/>
<feColorMatrix in="SourceAlpha" type="matrix" values="0 0 0 0 0 0 0 0 0 0 0 0 0 0 0 0 0 0 127 0" result="hardAlpha"/>
<feOffset dx="-6.66667" dy="6.66667"/>
<feGaussianBlur stdDeviation="3.33333"/>
<feComposite in2="hardAlpha" operator="arithmetic" k2="-1" k3="1"/>
<feColorMatrix type="matrix" values="0 0 0 0 1 0 0 0 0 1 0 0 0 0 1 0 0 0 0.1 0"/>
<feBlend mode="normal" in2="shape" result="effect2_innerShadow_313_3842"/>
<feColorMatrix in="SourceAlpha" type="matrix" values="0 0 0 0 0 0 0 0 0 0 0 0 0 0 0 0 0 0 127 0" result="hardAlpha"/>
<feOffset dx="6.66667" dy="-6.66667"/>
<feGaussianBlur stdDeviation="3.33333"/>
<feComposite in2="hardAlpha" operator="arithmetic" k2="-1" k3="1"/>
<feColorMatrix type="matrix" values="0 0 0 0 0.715294 0 0 0 0 0.542431 0 0 0 0 0 0 0 0 0.1 0"/>
<feBlend mode="normal" in2="effect2_innerShadow_313_3842" result="effect3_innerShadow_313_3842"/>
</filter>
<filter id="filter9_bii_313_3842" x="1450.47" y="1358.47" width="489.567" height="489.567" filterUnits="userSpaceOnUse" color-interpolation-filters="sRGB">
<feFlood flood-opacity="0" result="BackgroundImageFix"/>
<feGaussianBlur in="BackgroundImage" stdDeviation="25.7667"/>
<feComposite in2="SourceAlpha" operator="in" result="effect1_backgroundBlur_313_3842"/>
<feBlend mode="normal" in="SourceGraphic" in2="effect1_backgroundBlur_313_3842" result="shape"/>
<feColorMatrix in="SourceAlpha" type="matrix" values="0 0 0 0 0 0 0 0 0 0 0 0 0 0 0 0 0 0 127 0" result="hardAlpha"/>
<feOffset dx="-25.7667" dy="25.7667"/>
<feGaussianBlur stdDeviation="12.8833"/>
<feComposite in2="hardAlpha" operator="arithmetic" k2="-1" k3="1"/>
<feColorMatrix type="matrix" values="0 0 0 0 1 0 0 0 0 1 0 0 0 0 1 0 0 0 0.1 0"/>
<feBlend mode="normal" in2="shape" result="effect2_innerShadow_313_3842"/>
<feColorMatrix in="SourceAlpha" type="matrix" values="0 0 0 0 0 0 0 0 0 0 0 0 0 0 0 0 0 0 127 0" result="hardAlpha"/>
<feOffset dx="25.7667" dy="-25.7667"/>
<feGaussianBlur stdDeviation="12.8833"/>
<feComposite in2="hardAlpha" operator="arithmetic" k2="-1" k3="1"/>
<feColorMatrix type="matrix" values="0 0 0 0 0.76 0 0 0 0 0.0456 0 0 0 0 0 0 0 0 0.1 0"/>
<feBlend mode="normal" in2="effect2_innerShadow_313_3842" result="effect3_innerShadow_313_3842"/>
</filter>
<filter id="filter10_bii_313_3842" x="1455.95" y="784.951" width="432.948" height="432.948" filterUnits="userSpaceOnUse" color-interpolation-filters="sRGB">
<feFlood flood-opacity="0" result="BackgroundImageFix"/>
<feGaussianBlur in="BackgroundImage" stdDeviation="6.66667"/>
<feComposite in2="SourceAlpha" operator="in" result="effect1_backgroundBlur_313_3842"/>
<feBlend mode="normal" in="SourceGraphic" in2="effect1_backgroundBlur_313_3842" result="shape"/>
<feColorMatrix in="SourceAlpha" type="matrix" values="0 0 0 0 0 0 0 0 0 0 0 0 0 0 0 0 0 0 127 0" result="hardAlpha"/>
<feOffset dx="-6.66667" dy="6.66667"/>
<feGaussianBlur stdDeviation="3.33333"/>
<feComposite in2="hardAlpha" operator="arithmetic" k2="-1" k3="1"/>
<feColorMatrix type="matrix" values="0 0 0 0 1 0 0 0 0 1 0 0 0 0 1 0 0 0 0.1 0"/>
<feBlend mode="normal" in2="shape" result="effect2_innerShadow_313_3842"/>
<feColorMatrix in="SourceAlpha" type="matrix" values="0 0 0 0 0 0 0 0 0 0 0 0 0 0 0 0 0 0 127 0" result="hardAlpha"/>
<feOffset dx="6.66667" dy="-6.66667"/>
<feGaussianBlur stdDeviation="3.33333"/>
<feComposite in2="hardAlpha" operator="arithmetic" k2="-1" k3="1"/>
<feColorMatrix type="matrix" values="0 0 0 0 0.715294 0 0 0 0 0.542431 0 0 0 0 0 0 0 0 0.1 0"/>
<feBlend mode="normal" in2="effect2_innerShadow_313_3842" result="effect3_innerShadow_313_3842"/>
</filter>
</defs>
</svg>
