<svg width="2700" height="1841" viewBox="0 0 2700 1841" fill="none" xmlns="http://www.w3.org/2000/svg">
<rect x="15.2227" y="113" width="2670.24" height="1615" rx="52.343" fill="white" fill-opacity="0.8"/>
<mask id="mask0_316_4930" style="mask-type:alpha" maskUnits="userSpaceOnUse" x="15" y="227" width="2671" height="1502">
<path d="M15.2207 227.025H2685.46V1690.68C2685.46 1711.29 2668.76 1728 2648.15 1728H52.5379C31.9283 1728 15.2207 1711.29 15.2207 1690.68V227.025Z" fill="#C4C4C4"/>
</mask>
<g mask="url(#mask0_316_4930)">
<g filter="url(#filter0_bii_316_4930)">
<rect x="983.393" y="343.121" width="391.829" height="636.463" rx="11.0398" transform="rotate(90 983.393 343.121)" fill="#54ACFC" fill-opacity="0.1"/>
</g>
<g filter="url(#filter1_bii_316_4930)">
<rect x="1669.61" y="343.121" width="391.829" height="636.463" rx="11.0398" transform="rotate(90 1669.61 343.121)" fill="#54ACFC" fill-opacity="0.1"/>
</g>
<g filter="url(#filter2_bii_316_4930)">
<rect x="2355.83" y="343.121" width="391.829" height="636.463" rx="11.0398" transform="rotate(90 2355.83 343.121)" fill="#54ACFC" fill-opacity="0.1"/>
</g>
<g filter="url(#filter3_bii_316_4930)">
<rect x="639.244" y="834.464" width="80.8537" height="292.317" rx="11.0398" transform="rotate(90 639.244 834.464)" fill="#84929E" fill-opacity="0.1"/>
</g>
<g filter="url(#filter4_bii_316_4930)">
<rect x="981.318" y="834.464" width="80.8537" height="292.317" rx="11.0398" transform="rotate(90 981.318 834.464)" fill="#84929E" fill-opacity="0.1"/>
</g>
<g filter="url(#filter5_bii_316_4930)">
<rect x="1323.39" y="834.464" width="80.8537" height="292.317" rx="11.0398" transform="rotate(90 1323.39 834.464)" fill="#84929E" fill-opacity="0.1"/>
</g>
<g filter="url(#filter6_bii_316_4930)">
<rect x="1667.54" y="834.464" width="80.8537" height="292.317" rx="11.0398" transform="rotate(90 1667.54 834.464)" fill="#84929E" fill-opacity="0.1"/>
</g>
<g filter="url(#filter7_bii_316_4930)">
<rect x="2011.69" y="834.464" width="80.8537" height="292.317" rx="11.0398" transform="rotate(90 2011.69 834.464)" fill="#84929E" fill-opacity="0.1"/>
</g>
<g filter="url(#filter8_bii_316_4930)">
<rect x="2353.76" y="834.464" width="80.8537" height="292.317" rx="11.0398" transform="rotate(90 2353.76 834.464)" fill="#84929E" fill-opacity="0.1"/>
</g>
<g filter="url(#filter9_bii_316_4930)">
<circle cx="493.086" cy="1227.33" r="146.159" fill="#FF0F00" fill-opacity="0.1"/>
</g>
<g filter="url(#filter10_bii_316_4930)">
<circle cx="835.159" cy="1227.33" r="146.159" fill="#FF0F00" fill-opacity="0.1"/>
</g>
<g filter="url(#filter11_bii_316_4930)">
<circle cx="1177.23" cy="1227.33" r="146.159" fill="#FF0F00" fill-opacity="0.1"/>
</g>
<g filter="url(#filter12_bii_316_4930)">
<circle cx="1519.31" cy="1227.33" r="146.159" fill="#FF0F00" fill-opacity="0.1"/>
</g>
<g filter="url(#filter13_bii_316_4930)">
<circle cx="1861.38" cy="1227.33" r="146.159" fill="#FF0F00" fill-opacity="0.1"/>
</g>
<g filter="url(#filter14_bii_316_4930)">
<circle cx="2203.45" cy="1227.33" r="146.159" fill="#FF0F00" fill-opacity="0.1"/>
</g>
</g>
<g opacity="0.5">
<g clip-path="url(#clip0_316_4930)">
<path d="M1284.17 177.483H1285.38C1285.7 177.483 1286.01 177.621 1286.24 177.865C1286.46 178.109 1286.59 178.44 1286.59 178.786V191.81C1286.59 192.155 1286.46 192.486 1286.24 192.731C1286.01 192.975 1285.7 193.112 1285.38 193.112H1266.03C1265.71 193.112 1265.4 192.975 1265.18 192.731C1264.95 192.486 1264.82 192.155 1264.82 191.81V178.786C1264.82 178.44 1264.95 178.109 1265.18 177.865C1265.4 177.621 1265.71 177.483 1266.03 177.483H1267.24V176.181C1267.24 174.984 1267.46 173.798 1267.89 172.692C1268.31 171.586 1268.93 170.581 1269.72 169.735C1270.51 168.888 1271.44 168.217 1272.47 167.758C1273.49 167.3 1274.59 167.064 1275.71 167.064C1276.82 167.064 1277.92 167.3 1278.95 167.758C1279.97 168.217 1280.91 168.888 1281.69 169.735C1282.48 170.581 1283.1 171.586 1283.53 172.692C1283.95 173.798 1284.17 174.984 1284.17 176.181V177.483ZM1281.75 177.483V176.181C1281.75 174.454 1281.12 172.798 1279.98 171.576C1278.85 170.355 1277.31 169.669 1275.71 169.669C1274.1 169.669 1272.56 170.355 1271.43 171.576C1270.3 172.798 1269.66 174.454 1269.66 176.181V177.483H1281.75ZM1274.5 182.693V187.902H1276.92V182.693H1274.5Z" fill="#71C587"/>
</g>
<path d="M1311.61 179.601C1312.66 179.601 1313.59 179.825 1314.4 180.273C1315.23 180.721 1315.87 181.384 1316.34 182.263C1316.82 183.142 1317.06 184.204 1317.06 185.448V193.533H1314.25V185.871C1314.25 184.643 1313.94 183.706 1313.33 183.06C1312.72 182.396 1311.88 182.064 1310.82 182.064C1309.75 182.064 1308.91 182.396 1308.28 183.06C1307.67 183.706 1307.36 184.643 1307.36 185.871V193.533H1304.52V175.123H1307.36V181.418C1307.84 180.837 1308.44 180.389 1309.17 180.074C1309.92 179.759 1310.73 179.601 1311.61 179.601ZM1333.24 186.343C1333.24 186.858 1333.21 187.322 1333.14 187.737H1322.67C1322.75 188.831 1323.16 189.71 1323.89 190.374C1324.62 191.037 1325.51 191.369 1326.57 191.369C1328.1 191.369 1329.18 190.73 1329.81 189.453H1332.87C1332.45 190.714 1331.7 191.75 1330.6 192.563C1329.53 193.359 1328.18 193.757 1326.57 193.757C1325.26 193.757 1324.09 193.467 1323.04 192.886C1322.01 192.289 1321.2 191.46 1320.6 190.399C1320.02 189.321 1319.73 188.077 1319.73 186.667C1319.73 185.257 1320.01 184.021 1320.58 182.96C1321.16 181.882 1321.96 181.053 1322.99 180.472C1324.04 179.892 1325.23 179.601 1326.57 179.601C1327.87 179.601 1329.02 179.883 1330.03 180.447C1331.04 181.011 1331.83 181.807 1332.4 182.836C1332.96 183.847 1333.24 185.017 1333.24 186.343ZM1330.28 185.448C1330.26 184.403 1329.89 183.565 1329.16 182.935C1328.43 182.305 1327.53 181.99 1326.45 181.99C1325.47 181.99 1324.63 182.305 1323.94 182.935C1323.24 183.549 1322.83 184.386 1322.69 185.448H1330.28ZM1338.87 175.123V193.533H1336.03V175.123H1338.87ZM1345.43 175.123V193.533H1342.59V175.123H1345.43ZM1355.1 193.757C1353.8 193.757 1352.63 193.467 1351.59 192.886C1350.55 192.289 1349.72 191.46 1349.13 190.399C1348.53 189.321 1348.23 188.077 1348.23 186.667C1348.23 185.274 1348.54 184.038 1349.15 182.96C1349.77 181.882 1350.6 181.053 1351.66 180.472C1352.73 179.892 1353.91 179.601 1355.22 179.601C1356.53 179.601 1357.72 179.892 1358.78 180.472C1359.84 181.053 1360.68 181.882 1361.29 182.96C1361.91 184.038 1362.21 185.274 1362.21 186.667C1362.21 188.06 1361.9 189.296 1361.27 190.374C1360.64 191.452 1359.77 192.289 1358.68 192.886C1357.6 193.467 1356.41 193.757 1355.1 193.757ZM1355.1 191.294C1355.83 191.294 1356.51 191.12 1357.14 190.772C1357.78 190.423 1358.31 189.901 1358.71 189.204C1359.1 188.508 1359.3 187.662 1359.3 186.667C1359.3 185.672 1359.11 184.834 1358.73 184.154C1358.35 183.458 1357.84 182.935 1357.21 182.587C1356.58 182.239 1355.9 182.064 1355.17 182.064C1354.44 182.064 1353.76 182.239 1353.13 182.587C1352.52 182.935 1352.03 183.458 1351.66 184.154C1351.3 184.834 1351.12 185.672 1351.12 186.667C1351.12 188.143 1351.49 189.287 1352.24 190.1C1353 190.896 1353.95 191.294 1355.1 191.294ZM1383.43 179.825L1379.17 193.533H1376.19L1373.43 183.408L1370.66 193.533H1367.68L1363.4 179.825H1366.29L1369.15 190.846L1372.06 179.825H1375.02L1377.8 190.797L1380.64 179.825H1383.43ZM1391.49 193.757C1390.2 193.757 1389.03 193.467 1387.98 192.886C1386.94 192.289 1386.12 191.46 1385.52 190.399C1384.92 189.321 1384.63 188.077 1384.63 186.667C1384.63 185.274 1384.93 184.038 1385.55 182.96C1386.16 181.882 1387 181.053 1388.06 180.472C1389.12 179.892 1390.31 179.601 1391.62 179.601C1392.93 179.601 1394.11 179.892 1395.17 180.472C1396.24 181.053 1397.07 181.882 1397.69 182.96C1398.3 184.038 1398.61 185.274 1398.61 186.667C1398.61 188.06 1398.29 189.296 1397.66 190.374C1397.03 191.452 1396.17 192.289 1395.07 192.886C1394 193.467 1392.8 193.757 1391.49 193.757ZM1391.49 191.294C1392.22 191.294 1392.9 191.12 1393.53 190.772C1394.18 190.423 1394.7 189.901 1395.1 189.204C1395.5 188.508 1395.7 187.662 1395.7 186.667C1395.7 185.672 1395.51 184.834 1395.12 184.154C1394.74 183.458 1394.24 182.935 1393.61 182.587C1392.98 182.239 1392.3 182.064 1391.57 182.064C1390.84 182.064 1390.16 182.239 1389.53 182.587C1388.91 182.935 1388.42 183.458 1388.06 184.154C1387.69 184.834 1387.51 185.672 1387.51 186.667C1387.51 188.143 1387.88 189.287 1388.63 190.1C1389.39 190.896 1390.35 191.294 1391.49 191.294ZM1404.25 181.816C1404.66 181.119 1405.21 180.58 1405.89 180.199C1406.59 179.801 1407.41 179.601 1408.35 179.601V182.537H1407.63C1406.52 182.537 1405.67 182.819 1405.09 183.383C1404.53 183.947 1404.25 184.925 1404.25 186.319V193.533H1401.41V179.825H1404.25V181.816ZM1413.79 175.123V193.533H1410.96V175.123H1413.79ZM1416.57 186.617C1416.57 185.241 1416.85 184.021 1417.42 182.96C1418 181.899 1418.78 181.078 1419.76 180.497C1420.75 179.9 1421.86 179.601 1423.07 179.601C1423.96 179.601 1424.84 179.801 1425.7 180.199C1426.58 180.58 1427.28 181.094 1427.79 181.741V175.123H1430.65V193.533H1427.79V191.468C1427.33 192.132 1426.68 192.679 1425.85 193.11C1425.04 193.541 1424.1 193.757 1423.04 193.757C1421.85 193.757 1420.75 193.459 1419.76 192.861C1418.78 192.248 1418 191.402 1417.42 190.324C1416.85 189.229 1416.57 187.994 1416.57 186.617ZM1427.79 186.667C1427.79 185.721 1427.59 184.901 1427.2 184.204C1426.81 183.507 1426.31 182.977 1425.68 182.612C1425.05 182.247 1424.37 182.064 1423.64 182.064C1422.91 182.064 1422.23 182.247 1421.6 182.612C1420.97 182.96 1420.45 183.482 1420.06 184.179C1419.67 184.859 1419.48 185.672 1419.48 186.617C1419.48 187.562 1419.67 188.392 1420.06 189.105C1420.45 189.818 1420.97 190.365 1421.6 190.747C1422.24 191.112 1422.92 191.294 1423.64 191.294C1424.37 191.294 1425.05 191.112 1425.68 190.747C1426.31 190.382 1426.81 189.851 1427.2 189.155C1427.59 188.441 1427.79 187.612 1427.79 186.667ZM1435.52 193.707C1435.01 193.707 1434.58 193.533 1434.23 193.185C1433.88 192.837 1433.71 192.405 1433.71 191.891C1433.71 191.377 1433.88 190.946 1434.23 190.598C1434.58 190.249 1435.01 190.075 1435.52 190.075C1436.02 190.075 1436.44 190.249 1436.79 190.598C1437.14 190.946 1437.31 191.377 1437.31 191.891C1437.31 192.405 1437.14 192.837 1436.79 193.185C1436.44 193.533 1436.02 193.707 1435.52 193.707ZM1439.43 186.667C1439.43 185.257 1439.72 184.021 1440.28 182.96C1440.86 181.882 1441.66 181.053 1442.67 180.472C1443.68 179.892 1444.84 179.601 1446.15 179.601C1447.81 179.601 1449.18 180 1450.26 180.796C1451.35 181.575 1452.09 182.695 1452.47 184.154H1449.41C1449.16 183.474 1448.76 182.943 1448.22 182.562C1447.67 182.181 1446.98 181.99 1446.15 181.99C1444.99 181.99 1444.06 182.404 1443.36 183.234C1442.68 184.046 1442.34 185.191 1442.34 186.667C1442.34 188.143 1442.68 189.296 1443.36 190.125C1444.06 190.954 1444.99 191.369 1446.15 191.369C1447.79 191.369 1448.88 190.647 1449.41 189.204H1452.47C1452.07 190.598 1451.33 191.709 1450.23 192.538C1449.14 193.351 1447.78 193.757 1446.15 193.757C1444.84 193.757 1443.68 193.467 1442.67 192.886C1441.66 192.289 1440.86 191.46 1440.28 190.399C1439.72 189.321 1439.43 188.077 1439.43 186.667ZM1461.24 193.757C1459.95 193.757 1458.78 193.467 1457.73 192.886C1456.69 192.289 1455.87 191.46 1455.27 190.399C1454.67 189.321 1454.38 188.077 1454.38 186.667C1454.38 185.274 1454.68 184.038 1455.3 182.96C1455.91 181.882 1456.75 181.053 1457.81 180.472C1458.87 179.892 1460.06 179.601 1461.37 179.601C1462.68 179.601 1463.86 179.892 1464.92 180.472C1465.99 181.053 1466.82 181.882 1467.44 182.96C1468.05 184.038 1468.36 185.274 1468.36 186.667C1468.36 188.06 1468.04 189.296 1467.41 190.374C1466.78 191.452 1465.92 192.289 1464.82 192.886C1463.75 193.467 1462.55 193.757 1461.24 193.757ZM1461.24 191.294C1461.97 191.294 1462.65 191.12 1463.28 190.772C1463.93 190.423 1464.45 189.901 1464.85 189.204C1465.25 188.508 1465.45 187.662 1465.45 186.667C1465.45 185.672 1465.26 184.834 1464.87 184.154C1464.49 183.458 1463.99 182.935 1463.36 182.587C1462.73 182.239 1462.05 182.064 1461.32 182.064C1460.59 182.064 1459.91 182.239 1459.28 182.587C1458.66 182.935 1458.17 183.458 1457.81 184.154C1457.44 184.834 1457.26 185.672 1457.26 186.667C1457.26 188.143 1457.64 189.287 1458.38 190.1C1459.14 190.896 1460.1 191.294 1461.24 191.294ZM1487.75 179.601C1488.83 179.601 1489.79 179.825 1490.64 180.273C1491.5 180.721 1492.17 181.384 1492.66 182.263C1493.15 183.142 1493.4 184.204 1493.4 185.448V193.533H1490.59V185.871C1490.59 184.643 1490.28 183.706 1489.67 183.06C1489.06 182.396 1488.22 182.064 1487.16 182.064C1486.1 182.064 1485.25 182.396 1484.62 183.06C1484.01 183.706 1483.7 184.643 1483.7 185.871V193.533H1480.89V185.871C1480.89 184.643 1480.58 183.706 1479.97 183.06C1479.35 182.396 1478.52 182.064 1477.46 182.064C1476.39 182.064 1475.55 182.396 1474.92 183.06C1474.3 183.706 1474 184.643 1474 185.871V193.533H1471.16V179.825H1474V181.393C1474.46 180.829 1475.05 180.389 1475.76 180.074C1476.48 179.759 1477.24 179.601 1478.05 179.601C1479.15 179.601 1480.13 179.834 1480.99 180.298C1481.85 180.762 1482.51 181.434 1482.98 182.313C1483.39 181.484 1484.04 180.829 1484.92 180.348C1485.8 179.85 1486.74 179.601 1487.75 179.601Z" fill="#A6A6A6"/>
<circle cx="85.7056" cy="184.048" r="14.5122" fill="#FF5E58"/>
<circle cx="131.317" cy="184.048" r="14.5122" fill="#FFBF30"/>
<circle cx="176.924" cy="184.048" r="14.5122" fill="#27C840"/>
</g>
<g filter="url(#filter15_bii_316_4930)">
<rect x="1325.47" y="1506.17" width="99.5122" height="630.244" rx="46.9179" transform="rotate(90 1325.47 1506.17)" fill="#F0B600" fill-opacity="0.1"/>
</g>
<g filter="url(#filter16_bii_316_4930)">
<rect x="2007.54" y="1506.17" width="99.5122" height="630.244" rx="49.7561" transform="rotate(90 2007.54 1506.17)" fill="#00E532" fill-opacity="0.1"/>
</g>
<defs>
<filter id="filter0_bii_316_4930" x="324.924" y="321.115" width="680.475" height="435.841" filterUnits="userSpaceOnUse" color-interpolation-filters="sRGB">
<feFlood flood-opacity="0" result="BackgroundImageFix"/>
<feGaussianBlur in="BackgroundImage" stdDeviation="11.003"/>
<feComposite in2="SourceAlpha" operator="in" result="effect1_backgroundBlur_316_4930"/>
<feBlend mode="normal" in="SourceGraphic" in2="effect1_backgroundBlur_316_4930" result="shape"/>
<feColorMatrix in="SourceAlpha" type="matrix" values="0 0 0 0 0 0 0 0 0 0 0 0 0 0 0 0 0 0 127 0" result="hardAlpha"/>
<feOffset dx="-11.003" dy="11.003"/>
<feGaussianBlur stdDeviation="5.50149"/>
<feComposite in2="hardAlpha" operator="arithmetic" k2="-1" k3="1"/>
<feColorMatrix type="matrix" values="0 0 0 0 1 0 0 0 0 1 0 0 0 0 1 0 0 0 0.1 0"/>
<feBlend mode="normal" in2="shape" result="effect2_innerShadow_316_4930"/>
<feColorMatrix in="SourceAlpha" type="matrix" values="0 0 0 0 0 0 0 0 0 0 0 0 0 0 0 0 0 0 127 0" result="hardAlpha"/>
<feOffset dx="11.003" dy="-11.003"/>
<feGaussianBlur stdDeviation="5.50149"/>
<feComposite in2="hardAlpha" operator="arithmetic" k2="-1" k3="1"/>
<feColorMatrix type="matrix" values="0 0 0 0 0.250462 0 0 0 0 0.511495 0 0 0 0 0.752448 0 0 0 0.1 0"/>
<feBlend mode="normal" in2="effect2_innerShadow_316_4930" result="effect3_innerShadow_316_4930"/>
</filter>
<filter id="filter1_bii_316_4930" x="1011.14" y="321.115" width="680.475" height="435.841" filterUnits="userSpaceOnUse" color-interpolation-filters="sRGB">
<feFlood flood-opacity="0" result="BackgroundImageFix"/>
<feGaussianBlur in="BackgroundImage" stdDeviation="11.003"/>
<feComposite in2="SourceAlpha" operator="in" result="effect1_backgroundBlur_316_4930"/>
<feBlend mode="normal" in="SourceGraphic" in2="effect1_backgroundBlur_316_4930" result="shape"/>
<feColorMatrix in="SourceAlpha" type="matrix" values="0 0 0 0 0 0 0 0 0 0 0 0 0 0 0 0 0 0 127 0" result="hardAlpha"/>
<feOffset dx="-11.003" dy="11.003"/>
<feGaussianBlur stdDeviation="5.50149"/>
<feComposite in2="hardAlpha" operator="arithmetic" k2="-1" k3="1"/>
<feColorMatrix type="matrix" values="0 0 0 0 1 0 0 0 0 1 0 0 0 0 1 0 0 0 0.1 0"/>
<feBlend mode="normal" in2="shape" result="effect2_innerShadow_316_4930"/>
<feColorMatrix in="SourceAlpha" type="matrix" values="0 0 0 0 0 0 0 0 0 0 0 0 0 0 0 0 0 0 127 0" result="hardAlpha"/>
<feOffset dx="11.003" dy="-11.003"/>
<feGaussianBlur stdDeviation="5.50149"/>
<feComposite in2="hardAlpha" operator="arithmetic" k2="-1" k3="1"/>
<feColorMatrix type="matrix" values="0 0 0 0 0.250462 0 0 0 0 0.511495 0 0 0 0 0.752448 0 0 0 0.1 0"/>
<feBlend mode="normal" in2="effect2_innerShadow_316_4930" result="effect3_innerShadow_316_4930"/>
</filter>
<filter id="filter2_bii_316_4930" x="1697.36" y="321.115" width="680.475" height="435.841" filterUnits="userSpaceOnUse" color-interpolation-filters="sRGB">
<feFlood flood-opacity="0" result="BackgroundImageFix"/>
<feGaussianBlur in="BackgroundImage" stdDeviation="11.003"/>
<feComposite in2="SourceAlpha" operator="in" result="effect1_backgroundBlur_316_4930"/>
<feBlend mode="normal" in="SourceGraphic" in2="effect1_backgroundBlur_316_4930" result="shape"/>
<feColorMatrix in="SourceAlpha" type="matrix" values="0 0 0 0 0 0 0 0 0 0 0 0 0 0 0 0 0 0 127 0" result="hardAlpha"/>
<feOffset dx="-11.003" dy="11.003"/>
<feGaussianBlur stdDeviation="5.50149"/>
<feComposite in2="hardAlpha" operator="arithmetic" k2="-1" k3="1"/>
<feColorMatrix type="matrix" values="0 0 0 0 1 0 0 0 0 1 0 0 0 0 1 0 0 0 0.1 0"/>
<feBlend mode="normal" in2="shape" result="effect2_innerShadow_316_4930"/>
<feColorMatrix in="SourceAlpha" type="matrix" values="0 0 0 0 0 0 0 0 0 0 0 0 0 0 0 0 0 0 127 0" result="hardAlpha"/>
<feOffset dx="11.003" dy="-11.003"/>
<feGaussianBlur stdDeviation="5.50149"/>
<feComposite in2="hardAlpha" operator="arithmetic" k2="-1" k3="1"/>
<feColorMatrix type="matrix" values="0 0 0 0 0.250462 0 0 0 0 0.511495 0 0 0 0 0.752448 0 0 0 0.1 0"/>
<feBlend mode="normal" in2="effect2_innerShadow_316_4930" result="effect3_innerShadow_316_4930"/>
</filter>
<filter id="filter3_bii_316_4930" x="324.922" y="812.458" width="336.328" height="124.865" filterUnits="userSpaceOnUse" color-interpolation-filters="sRGB">
<feFlood flood-opacity="0" result="BackgroundImageFix"/>
<feGaussianBlur in="BackgroundImage" stdDeviation="11.003"/>
<feComposite in2="SourceAlpha" operator="in" result="effect1_backgroundBlur_316_4930"/>
<feBlend mode="normal" in="SourceGraphic" in2="effect1_backgroundBlur_316_4930" result="shape"/>
<feColorMatrix in="SourceAlpha" type="matrix" values="0 0 0 0 0 0 0 0 0 0 0 0 0 0 0 0 0 0 127 0" result="hardAlpha"/>
<feOffset dx="-11.003" dy="11.003"/>
<feGaussianBlur stdDeviation="5.50149"/>
<feComposite in2="hardAlpha" operator="arithmetic" k2="-1" k3="1"/>
<feColorMatrix type="matrix" values="0 0 0 0 1 0 0 0 0 1 0 0 0 0 1 0 0 0 0.1 0"/>
<feBlend mode="normal" in2="shape" result="effect2_innerShadow_316_4930"/>
<feColorMatrix in="SourceAlpha" type="matrix" values="0 0 0 0 0 0 0 0 0 0 0 0 0 0 0 0 0 0 127 0" result="hardAlpha"/>
<feOffset dx="11.003" dy="-11.003"/>
<feGaussianBlur stdDeviation="5.50149"/>
<feComposite in2="hardAlpha" operator="arithmetic" k2="-1" k3="1"/>
<feColorMatrix type="matrix" values="0 0 0 0 0.250462 0 0 0 0 0.511495 0 0 0 0 0.752448 0 0 0 0.1 0"/>
<feBlend mode="normal" in2="effect2_innerShadow_316_4930" result="effect3_innerShadow_316_4930"/>
</filter>
<filter id="filter4_bii_316_4930" x="666.996" y="812.458" width="336.328" height="124.865" filterUnits="userSpaceOnUse" color-interpolation-filters="sRGB">
<feFlood flood-opacity="0" result="BackgroundImageFix"/>
<feGaussianBlur in="BackgroundImage" stdDeviation="11.003"/>
<feComposite in2="SourceAlpha" operator="in" result="effect1_backgroundBlur_316_4930"/>
<feBlend mode="normal" in="SourceGraphic" in2="effect1_backgroundBlur_316_4930" result="shape"/>
<feColorMatrix in="SourceAlpha" type="matrix" values="0 0 0 0 0 0 0 0 0 0 0 0 0 0 0 0 0 0 127 0" result="hardAlpha"/>
<feOffset dx="-11.003" dy="11.003"/>
<feGaussianBlur stdDeviation="5.50149"/>
<feComposite in2="hardAlpha" operator="arithmetic" k2="-1" k3="1"/>
<feColorMatrix type="matrix" values="0 0 0 0 1 0 0 0 0 1 0 0 0 0 1 0 0 0 0.1 0"/>
<feBlend mode="normal" in2="shape" result="effect2_innerShadow_316_4930"/>
<feColorMatrix in="SourceAlpha" type="matrix" values="0 0 0 0 0 0 0 0 0 0 0 0 0 0 0 0 0 0 127 0" result="hardAlpha"/>
<feOffset dx="11.003" dy="-11.003"/>
<feGaussianBlur stdDeviation="5.50149"/>
<feComposite in2="hardAlpha" operator="arithmetic" k2="-1" k3="1"/>
<feColorMatrix type="matrix" values="0 0 0 0 0.250462 0 0 0 0 0.511495 0 0 0 0 0.752448 0 0 0 0.1 0"/>
<feBlend mode="normal" in2="effect2_innerShadow_316_4930" result="effect3_innerShadow_316_4930"/>
</filter>
<filter id="filter5_bii_316_4930" x="1009.07" y="812.458" width="336.328" height="124.865" filterUnits="userSpaceOnUse" color-interpolation-filters="sRGB">
<feFlood flood-opacity="0" result="BackgroundImageFix"/>
<feGaussianBlur in="BackgroundImage" stdDeviation="11.003"/>
<feComposite in2="SourceAlpha" operator="in" result="effect1_backgroundBlur_316_4930"/>
<feBlend mode="normal" in="SourceGraphic" in2="effect1_backgroundBlur_316_4930" result="shape"/>
<feColorMatrix in="SourceAlpha" type="matrix" values="0 0 0 0 0 0 0 0 0 0 0 0 0 0 0 0 0 0 127 0" result="hardAlpha"/>
<feOffset dx="-11.003" dy="11.003"/>
<feGaussianBlur stdDeviation="5.50149"/>
<feComposite in2="hardAlpha" operator="arithmetic" k2="-1" k3="1"/>
<feColorMatrix type="matrix" values="0 0 0 0 1 0 0 0 0 1 0 0 0 0 1 0 0 0 0.1 0"/>
<feBlend mode="normal" in2="shape" result="effect2_innerShadow_316_4930"/>
<feColorMatrix in="SourceAlpha" type="matrix" values="0 0 0 0 0 0 0 0 0 0 0 0 0 0 0 0 0 0 127 0" result="hardAlpha"/>
<feOffset dx="11.003" dy="-11.003"/>
<feGaussianBlur stdDeviation="5.50149"/>
<feComposite in2="hardAlpha" operator="arithmetic" k2="-1" k3="1"/>
<feColorMatrix type="matrix" values="0 0 0 0 0.250462 0 0 0 0 0.511495 0 0 0 0 0.752448 0 0 0 0.1 0"/>
<feBlend mode="normal" in2="effect2_innerShadow_316_4930" result="effect3_innerShadow_316_4930"/>
</filter>
<filter id="filter6_bii_316_4930" x="1353.21" y="812.458" width="336.328" height="124.865" filterUnits="userSpaceOnUse" color-interpolation-filters="sRGB">
<feFlood flood-opacity="0" result="BackgroundImageFix"/>
<feGaussianBlur in="BackgroundImage" stdDeviation="11.003"/>
<feComposite in2="SourceAlpha" operator="in" result="effect1_backgroundBlur_316_4930"/>
<feBlend mode="normal" in="SourceGraphic" in2="effect1_backgroundBlur_316_4930" result="shape"/>
<feColorMatrix in="SourceAlpha" type="matrix" values="0 0 0 0 0 0 0 0 0 0 0 0 0 0 0 0 0 0 127 0" result="hardAlpha"/>
<feOffset dx="-11.003" dy="11.003"/>
<feGaussianBlur stdDeviation="5.50149"/>
<feComposite in2="hardAlpha" operator="arithmetic" k2="-1" k3="1"/>
<feColorMatrix type="matrix" values="0 0 0 0 1 0 0 0 0 1 0 0 0 0 1 0 0 0 0.1 0"/>
<feBlend mode="normal" in2="shape" result="effect2_innerShadow_316_4930"/>
<feColorMatrix in="SourceAlpha" type="matrix" values="0 0 0 0 0 0 0 0 0 0 0 0 0 0 0 0 0 0 127 0" result="hardAlpha"/>
<feOffset dx="11.003" dy="-11.003"/>
<feGaussianBlur stdDeviation="5.50149"/>
<feComposite in2="hardAlpha" operator="arithmetic" k2="-1" k3="1"/>
<feColorMatrix type="matrix" values="0 0 0 0 0.250462 0 0 0 0 0.511495 0 0 0 0 0.752448 0 0 0 0.1 0"/>
<feBlend mode="normal" in2="effect2_innerShadow_316_4930" result="effect3_innerShadow_316_4930"/>
</filter>
<filter id="filter7_bii_316_4930" x="1697.36" y="812.458" width="336.328" height="124.865" filterUnits="userSpaceOnUse" color-interpolation-filters="sRGB">
<feFlood flood-opacity="0" result="BackgroundImageFix"/>
<feGaussianBlur in="BackgroundImage" stdDeviation="11.003"/>
<feComposite in2="SourceAlpha" operator="in" result="effect1_backgroundBlur_316_4930"/>
<feBlend mode="normal" in="SourceGraphic" in2="effect1_backgroundBlur_316_4930" result="shape"/>
<feColorMatrix in="SourceAlpha" type="matrix" values="0 0 0 0 0 0 0 0 0 0 0 0 0 0 0 0 0 0 127 0" result="hardAlpha"/>
<feOffset dx="-11.003" dy="11.003"/>
<feGaussianBlur stdDeviation="5.50149"/>
<feComposite in2="hardAlpha" operator="arithmetic" k2="-1" k3="1"/>
<feColorMatrix type="matrix" values="0 0 0 0 1 0 0 0 0 1 0 0 0 0 1 0 0 0 0.1 0"/>
<feBlend mode="normal" in2="shape" result="effect2_innerShadow_316_4930"/>
<feColorMatrix in="SourceAlpha" type="matrix" values="0 0 0 0 0 0 0 0 0 0 0 0 0 0 0 0 0 0 127 0" result="hardAlpha"/>
<feOffset dx="11.003" dy="-11.003"/>
<feGaussianBlur stdDeviation="5.50149"/>
<feComposite in2="hardAlpha" operator="arithmetic" k2="-1" k3="1"/>
<feColorMatrix type="matrix" values="0 0 0 0 0.250462 0 0 0 0 0.511495 0 0 0 0 0.752448 0 0 0 0.1 0"/>
<feBlend mode="normal" in2="effect2_innerShadow_316_4930" result="effect3_innerShadow_316_4930"/>
</filter>
<filter id="filter8_bii_316_4930" x="2039.44" y="812.458" width="336.328" height="124.865" filterUnits="userSpaceOnUse" color-interpolation-filters="sRGB">
<feFlood flood-opacity="0" result="BackgroundImageFix"/>
<feGaussianBlur in="BackgroundImage" stdDeviation="11.003"/>
<feComposite in2="SourceAlpha" operator="in" result="effect1_backgroundBlur_316_4930"/>
<feBlend mode="normal" in="SourceGraphic" in2="effect1_backgroundBlur_316_4930" result="shape"/>
<feColorMatrix in="SourceAlpha" type="matrix" values="0 0 0 0 0 0 0 0 0 0 0 0 0 0 0 0 0 0 127 0" result="hardAlpha"/>
<feOffset dx="-11.003" dy="11.003"/>
<feGaussianBlur stdDeviation="5.50149"/>
<feComposite in2="hardAlpha" operator="arithmetic" k2="-1" k3="1"/>
<feColorMatrix type="matrix" values="0 0 0 0 1 0 0 0 0 1 0 0 0 0 1 0 0 0 0.1 0"/>
<feBlend mode="normal" in2="shape" result="effect2_innerShadow_316_4930"/>
<feColorMatrix in="SourceAlpha" type="matrix" values="0 0 0 0 0 0 0 0 0 0 0 0 0 0 0 0 0 0 127 0" result="hardAlpha"/>
<feOffset dx="11.003" dy="-11.003"/>
<feGaussianBlur stdDeviation="5.50149"/>
<feComposite in2="hardAlpha" operator="arithmetic" k2="-1" k3="1"/>
<feColorMatrix type="matrix" values="0 0 0 0 0.250462 0 0 0 0 0.511495 0 0 0 0 0.752448 0 0 0 0.1 0"/>
<feBlend mode="normal" in2="effect2_innerShadow_316_4930" result="effect3_innerShadow_316_4930"/>
</filter>
<filter id="filter9_bii_316_4930" x="322.815" y="1057.06" width="340.541" height="340.542" filterUnits="userSpaceOnUse" color-interpolation-filters="sRGB">
<feFlood flood-opacity="0" result="BackgroundImageFix"/>
<feGaussianBlur in="BackgroundImage" stdDeviation="12.0562"/>
<feComposite in2="SourceAlpha" operator="in" result="effect1_backgroundBlur_316_4930"/>
<feBlend mode="normal" in="SourceGraphic" in2="effect1_backgroundBlur_316_4930" result="shape"/>
<feColorMatrix in="SourceAlpha" type="matrix" values="0 0 0 0 0 0 0 0 0 0 0 0 0 0 0 0 0 0 127 0" result="hardAlpha"/>
<feOffset dx="-12.0562" dy="12.0562"/>
<feGaussianBlur stdDeviation="6.0281"/>
<feComposite in2="hardAlpha" operator="arithmetic" k2="-1" k3="1"/>
<feColorMatrix type="matrix" values="0 0 0 0 1 0 0 0 0 1 0 0 0 0 1 0 0 0 0.1 0"/>
<feBlend mode="normal" in2="shape" result="effect2_innerShadow_316_4930"/>
<feColorMatrix in="SourceAlpha" type="matrix" values="0 0 0 0 0 0 0 0 0 0 0 0 0 0 0 0 0 0 127 0" result="hardAlpha"/>
<feOffset dx="12.0562" dy="-12.0562"/>
<feGaussianBlur stdDeviation="6.0281"/>
<feComposite in2="hardAlpha" operator="arithmetic" k2="-1" k3="1"/>
<feColorMatrix type="matrix" values="0 0 0 0 0.76 0 0 0 0 0.0456 0 0 0 0 0 0 0 0 0.1 0"/>
<feBlend mode="normal" in2="effect2_innerShadow_316_4930" result="effect3_innerShadow_316_4930"/>
</filter>
<filter id="filter10_bii_316_4930" x="664.888" y="1057.06" width="340.541" height="340.542" filterUnits="userSpaceOnUse" color-interpolation-filters="sRGB">
<feFlood flood-opacity="0" result="BackgroundImageFix"/>
<feGaussianBlur in="BackgroundImage" stdDeviation="12.0562"/>
<feComposite in2="SourceAlpha" operator="in" result="effect1_backgroundBlur_316_4930"/>
<feBlend mode="normal" in="SourceGraphic" in2="effect1_backgroundBlur_316_4930" result="shape"/>
<feColorMatrix in="SourceAlpha" type="matrix" values="0 0 0 0 0 0 0 0 0 0 0 0 0 0 0 0 0 0 127 0" result="hardAlpha"/>
<feOffset dx="-12.0562" dy="12.0562"/>
<feGaussianBlur stdDeviation="6.0281"/>
<feComposite in2="hardAlpha" operator="arithmetic" k2="-1" k3="1"/>
<feColorMatrix type="matrix" values="0 0 0 0 1 0 0 0 0 1 0 0 0 0 1 0 0 0 0.1 0"/>
<feBlend mode="normal" in2="shape" result="effect2_innerShadow_316_4930"/>
<feColorMatrix in="SourceAlpha" type="matrix" values="0 0 0 0 0 0 0 0 0 0 0 0 0 0 0 0 0 0 127 0" result="hardAlpha"/>
<feOffset dx="12.0562" dy="-12.0562"/>
<feGaussianBlur stdDeviation="6.0281"/>
<feComposite in2="hardAlpha" operator="arithmetic" k2="-1" k3="1"/>
<feColorMatrix type="matrix" values="0 0 0 0 0.76 0 0 0 0 0.0456 0 0 0 0 0 0 0 0 0.1 0"/>
<feBlend mode="normal" in2="effect2_innerShadow_316_4930" result="effect3_innerShadow_316_4930"/>
</filter>
<filter id="filter11_bii_316_4930" x="1006.96" y="1057.06" width="340.541" height="340.542" filterUnits="userSpaceOnUse" color-interpolation-filters="sRGB">
<feFlood flood-opacity="0" result="BackgroundImageFix"/>
<feGaussianBlur in="BackgroundImage" stdDeviation="12.0562"/>
<feComposite in2="SourceAlpha" operator="in" result="effect1_backgroundBlur_316_4930"/>
<feBlend mode="normal" in="SourceGraphic" in2="effect1_backgroundBlur_316_4930" result="shape"/>
<feColorMatrix in="SourceAlpha" type="matrix" values="0 0 0 0 0 0 0 0 0 0 0 0 0 0 0 0 0 0 127 0" result="hardAlpha"/>
<feOffset dx="-12.0562" dy="12.0562"/>
<feGaussianBlur stdDeviation="6.0281"/>
<feComposite in2="hardAlpha" operator="arithmetic" k2="-1" k3="1"/>
<feColorMatrix type="matrix" values="0 0 0 0 1 0 0 0 0 1 0 0 0 0 1 0 0 0 0.1 0"/>
<feBlend mode="normal" in2="shape" result="effect2_innerShadow_316_4930"/>
<feColorMatrix in="SourceAlpha" type="matrix" values="0 0 0 0 0 0 0 0 0 0 0 0 0 0 0 0 0 0 127 0" result="hardAlpha"/>
<feOffset dx="12.0562" dy="-12.0562"/>
<feGaussianBlur stdDeviation="6.0281"/>
<feComposite in2="hardAlpha" operator="arithmetic" k2="-1" k3="1"/>
<feColorMatrix type="matrix" values="0 0 0 0 0.76 0 0 0 0 0.0456 0 0 0 0 0 0 0 0 0.1 0"/>
<feBlend mode="normal" in2="effect2_innerShadow_316_4930" result="effect3_innerShadow_316_4930"/>
</filter>
<filter id="filter12_bii_316_4930" x="1349.04" y="1057.06" width="340.541" height="340.542" filterUnits="userSpaceOnUse" color-interpolation-filters="sRGB">
<feFlood flood-opacity="0" result="BackgroundImageFix"/>
<feGaussianBlur in="BackgroundImage" stdDeviation="12.0562"/>
<feComposite in2="SourceAlpha" operator="in" result="effect1_backgroundBlur_316_4930"/>
<feBlend mode="normal" in="SourceGraphic" in2="effect1_backgroundBlur_316_4930" result="shape"/>
<feColorMatrix in="SourceAlpha" type="matrix" values="0 0 0 0 0 0 0 0 0 0 0 0 0 0 0 0 0 0 127 0" result="hardAlpha"/>
<feOffset dx="-12.0562" dy="12.0562"/>
<feGaussianBlur stdDeviation="6.0281"/>
<feComposite in2="hardAlpha" operator="arithmetic" k2="-1" k3="1"/>
<feColorMatrix type="matrix" values="0 0 0 0 1 0 0 0 0 1 0 0 0 0 1 0 0 0 0.1 0"/>
<feBlend mode="normal" in2="shape" result="effect2_innerShadow_316_4930"/>
<feColorMatrix in="SourceAlpha" type="matrix" values="0 0 0 0 0 0 0 0 0 0 0 0 0 0 0 0 0 0 127 0" result="hardAlpha"/>
<feOffset dx="12.0562" dy="-12.0562"/>
<feGaussianBlur stdDeviation="6.0281"/>
<feComposite in2="hardAlpha" operator="arithmetic" k2="-1" k3="1"/>
<feColorMatrix type="matrix" values="0 0 0 0 0.76 0 0 0 0 0.0456 0 0 0 0 0 0 0 0 0.1 0"/>
<feBlend mode="normal" in2="effect2_innerShadow_316_4930" result="effect3_innerShadow_316_4930"/>
</filter>
<filter id="filter13_bii_316_4930" x="1691.11" y="1057.06" width="340.541" height="340.542" filterUnits="userSpaceOnUse" color-interpolation-filters="sRGB">
<feFlood flood-opacity="0" result="BackgroundImageFix"/>
<feGaussianBlur in="BackgroundImage" stdDeviation="12.0562"/>
<feComposite in2="SourceAlpha" operator="in" result="effect1_backgroundBlur_316_4930"/>
<feBlend mode="normal" in="SourceGraphic" in2="effect1_backgroundBlur_316_4930" result="shape"/>
<feColorMatrix in="SourceAlpha" type="matrix" values="0 0 0 0 0 0 0 0 0 0 0 0 0 0 0 0 0 0 127 0" result="hardAlpha"/>
<feOffset dx="-12.0562" dy="12.0562"/>
<feGaussianBlur stdDeviation="6.0281"/>
<feComposite in2="hardAlpha" operator="arithmetic" k2="-1" k3="1"/>
<feColorMatrix type="matrix" values="0 0 0 0 1 0 0 0 0 1 0 0 0 0 1 0 0 0 0.1 0"/>
<feBlend mode="normal" in2="shape" result="effect2_innerShadow_316_4930"/>
<feColorMatrix in="SourceAlpha" type="matrix" values="0 0 0 0 0 0 0 0 0 0 0 0 0 0 0 0 0 0 127 0" result="hardAlpha"/>
<feOffset dx="12.0562" dy="-12.0562"/>
<feGaussianBlur stdDeviation="6.0281"/>
<feComposite in2="hardAlpha" operator="arithmetic" k2="-1" k3="1"/>
<feColorMatrix type="matrix" values="0 0 0 0 0.76 0 0 0 0 0.0456 0 0 0 0 0 0 0 0 0.1 0"/>
<feBlend mode="normal" in2="effect2_innerShadow_316_4930" result="effect3_innerShadow_316_4930"/>
</filter>
<filter id="filter14_bii_316_4930" x="2033.18" y="1057.06" width="340.541" height="340.542" filterUnits="userSpaceOnUse" color-interpolation-filters="sRGB">
<feFlood flood-opacity="0" result="BackgroundImageFix"/>
<feGaussianBlur in="BackgroundImage" stdDeviation="12.0562"/>
<feComposite in2="SourceAlpha" operator="in" result="effect1_backgroundBlur_316_4930"/>
<feBlend mode="normal" in="SourceGraphic" in2="effect1_backgroundBlur_316_4930" result="shape"/>
<feColorMatrix in="SourceAlpha" type="matrix" values="0 0 0 0 0 0 0 0 0 0 0 0 0 0 0 0 0 0 127 0" result="hardAlpha"/>
<feOffset dx="-12.0562" dy="12.0562"/>
<feGaussianBlur stdDeviation="6.0281"/>
<feComposite in2="hardAlpha" operator="arithmetic" k2="-1" k3="1"/>
<feColorMatrix type="matrix" values="0 0 0 0 1 0 0 0 0 1 0 0 0 0 1 0 0 0 0.1 0"/>
<feBlend mode="normal" in2="shape" result="effect2_innerShadow_316_4930"/>
<feColorMatrix in="SourceAlpha" type="matrix" values="0 0 0 0 0 0 0 0 0 0 0 0 0 0 0 0 0 0 127 0" result="hardAlpha"/>
<feOffset dx="12.0562" dy="-12.0562"/>
<feGaussianBlur stdDeviation="6.0281"/>
<feComposite in2="hardAlpha" operator="arithmetic" k2="-1" k3="1"/>
<feColorMatrix type="matrix" values="0 0 0 0 0.76 0 0 0 0 0.0456 0 0 0 0 0 0 0 0 0.1 0"/>
<feBlend mode="normal" in2="effect2_innerShadow_316_4930" result="effect3_innerShadow_316_4930"/>
</filter>
<filter id="filter15_bii_316_4930" x="663.944" y="1474.89" width="692.801" height="162.07" filterUnits="userSpaceOnUse" color-interpolation-filters="sRGB">
<feFlood flood-opacity="0" result="BackgroundImageFix"/>
<feGaussianBlur in="BackgroundImage" stdDeviation="15.6393"/>
<feComposite in2="SourceAlpha" operator="in" result="effect1_backgroundBlur_316_4930"/>
<feBlend mode="normal" in="SourceGraphic" in2="effect1_backgroundBlur_316_4930" result="shape"/>
<feColorMatrix in="SourceAlpha" type="matrix" values="0 0 0 0 0 0 0 0 0 0 0 0 0 0 0 0 0 0 127 0" result="hardAlpha"/>
<feOffset dx="-15.6393" dy="15.6393"/>
<feGaussianBlur stdDeviation="7.81965"/>
<feComposite in2="hardAlpha" operator="arithmetic" k2="-1" k3="1"/>
<feColorMatrix type="matrix" values="0 0 0 0 1 0 0 0 0 1 0 0 0 0 1 0 0 0 0.1 0"/>
<feBlend mode="normal" in2="shape" result="effect2_innerShadow_316_4930"/>
<feColorMatrix in="SourceAlpha" type="matrix" values="0 0 0 0 0 0 0 0 0 0 0 0 0 0 0 0 0 0 127 0" result="hardAlpha"/>
<feOffset dx="15.6393" dy="-15.6393"/>
<feGaussianBlur stdDeviation="7.81965"/>
<feComposite in2="hardAlpha" operator="arithmetic" k2="-1" k3="1"/>
<feColorMatrix type="matrix" values="0 0 0 0 0.715294 0 0 0 0 0.542431 0 0 0 0 0 0 0 0 0.1 0"/>
<feBlend mode="normal" in2="effect2_innerShadow_316_4930" result="effect3_innerShadow_316_4930"/>
</filter>
<filter id="filter16_bii_316_4930" x="1358.64" y="1487.52" width="667.551" height="136.82" filterUnits="userSpaceOnUse" color-interpolation-filters="sRGB">
<feFlood flood-opacity="0" result="BackgroundImageFix"/>
<feGaussianBlur in="BackgroundImage" stdDeviation="9.32679"/>
<feComposite in2="SourceAlpha" operator="in" result="effect1_backgroundBlur_316_4930"/>
<feBlend mode="normal" in="SourceGraphic" in2="effect1_backgroundBlur_316_4930" result="shape"/>
<feColorMatrix in="SourceAlpha" type="matrix" values="0 0 0 0 0 0 0 0 0 0 0 0 0 0 0 0 0 0 127 0" result="hardAlpha"/>
<feOffset dx="-9.32679" dy="9.32679"/>
<feGaussianBlur stdDeviation="4.6634"/>
<feComposite in2="hardAlpha" operator="arithmetic" k2="-1" k3="1"/>
<feColorMatrix type="matrix" values="0 0 0 0 1 0 0 0 0 1 0 0 0 0 1 0 0 0 0.1 0"/>
<feBlend mode="normal" in2="shape" result="effect2_innerShadow_316_4930"/>
<feColorMatrix in="SourceAlpha" type="matrix" values="0 0 0 0 0 0 0 0 0 0 0 0 0 0 0 0 0 0 127 0" result="hardAlpha"/>
<feOffset dx="9.32679" dy="-9.32679"/>
<feGaussianBlur stdDeviation="4.6634"/>
<feComposite in2="hardAlpha" operator="arithmetic" k2="-1" k3="1"/>
<feColorMatrix type="matrix" values="0 0 0 0 0 0 0 0 0 0.68251 0 0 0 0 0.14902 0 0 0 0.1 0"/>
<feBlend mode="normal" in2="effect2_innerShadow_316_4930" result="effect3_innerShadow_316_4930"/>
</filter>
<clipPath id="clip0_316_4930">
<rect width="29.0244" height="31.257" fill="white" transform="translate(1261.19 164.46)"/>
</clipPath>
</defs>
</svg>
