<svg width="741" height="217" viewBox="0 0 741 217" fill="none" xmlns="http://www.w3.org/2000/svg">
<path d="M274.451 43.4375C274.451 39.5312 274.028 36.4388 273.182 34.1602C272.335 31.8815 270.936 30.1562 268.982 28.9844C267.029 27.8125 264.458 27.0638 261.268 26.7383C258.11 26.4128 254.188 26.25 249.5 26.25H227.576C223.41 26.25 219.894 26.3802 217.029 26.6406C214.197 26.8685 211.854 27.3568 209.998 28.1055C208.143 28.8542 206.71 29.9284 205.701 31.3281C204.692 32.7279 203.96 34.5833 203.504 36.8945C203.048 39.2057 202.788 42.054 202.723 45.4395C202.658 48.7923 202.625 52.8125 202.625 57.5C202.625 62.1875 202.658 66.224 202.723 69.6094C202.82 72.9622 203.097 75.7943 203.553 78.1055C204.008 80.4167 204.725 82.2721 205.701 83.6719C206.71 85.0716 208.143 86.1458 209.998 86.8945C211.854 87.6432 214.197 88.1478 217.029 88.4082C219.894 88.6361 223.41 88.75 227.576 88.75H249.5C253.146 88.75 256.287 88.6523 258.924 88.457C261.561 88.2617 263.807 87.9036 265.662 87.3828C267.518 86.862 269.015 86.1458 270.154 85.2344C271.294 84.3229 272.173 83.1836 272.791 81.8164C273.442 80.4167 273.882 78.7565 274.109 76.8359C274.337 74.8828 274.451 72.6042 274.451 70H283.826C283.826 73.125 283.631 75.957 283.24 78.4961C282.85 81.0026 282.15 83.2487 281.141 85.2344C280.164 87.1875 278.846 88.8802 277.186 90.3125C275.525 91.7448 273.426 92.9329 270.887 93.877C268.348 94.7884 265.32 95.4557 261.805 95.8789C258.289 96.3346 254.188 96.5625 249.5 96.5625H227.576C221.847 96.5625 217.013 96.2044 213.074 95.4883C209.168 94.8047 205.945 93.763 203.406 92.3633C200.867 90.931 198.898 89.1406 197.498 86.9922C196.131 84.8438 195.122 82.321 194.471 79.4238C193.852 76.5267 193.494 73.2552 193.396 69.6094C193.299 65.9635 193.25 61.9271 193.25 57.5C193.25 53.0729 193.299 49.0365 193.396 45.3906C193.494 41.7448 193.852 38.4733 194.471 35.5762C195.122 32.679 196.131 30.1562 197.498 28.0078C198.898 25.8594 200.867 24.0853 203.406 22.6855C205.945 21.2533 209.168 20.1953 213.074 19.5117C217.013 18.7956 221.847 18.4375 227.576 18.4375H249.5C254.188 18.4375 258.289 18.6654 261.805 19.1211C265.32 19.5443 268.348 20.2116 270.887 21.123C273.426 22.002 275.525 23.125 277.186 24.4922C278.846 25.8594 280.164 27.4707 281.141 29.3262C282.15 31.1816 282.85 33.2812 283.24 35.625C283.631 37.9688 283.826 40.5729 283.826 43.4375H274.451ZM352.625 95V63.2617C352.625 59.8763 352.365 57.028 351.844 54.7168C351.323 52.373 350.281 50.485 348.719 49.0527C347.156 47.6204 344.943 46.5951 342.078 45.9766C339.214 45.3255 335.438 45 330.75 45C325.672 45 321.505 45.3743 318.25 46.123C315.027 46.8392 312.488 47.8646 310.633 49.1992C308.777 50.5013 307.492 52.0801 306.775 53.9355C306.092 55.791 305.75 57.8581 305.75 60.1367V95H296.375V20H305.75V47.6367C306.401 46.1068 307.329 44.7884 308.533 43.6816C309.738 42.5749 311.121 41.6309 312.684 40.8496C314.279 40.0684 315.988 39.4499 317.811 38.9941C319.633 38.5059 321.473 38.1315 323.328 37.8711C325.216 37.6107 327.055 37.4316 328.846 37.334C330.669 37.2363 332.345 37.1875 333.875 37.1875C338.042 37.1875 341.622 37.4479 344.617 37.9688C347.645 38.457 350.2 39.2057 352.283 40.2148C354.399 41.1914 356.092 42.4121 357.361 43.877C358.631 45.3418 359.607 47.0508 360.291 49.0039C361.007 50.9245 361.479 53.0892 361.707 55.498C361.935 57.8743 362.049 60.4622 362.049 63.2617L362 95H352.625ZM373.035 66.4844C373.035 60.7227 373.654 55.9538 374.891 52.1777C376.128 48.4017 378.113 45.4069 380.848 43.1934C383.582 40.9798 387.13 39.4336 391.492 38.5547C395.854 37.6432 401.16 37.1875 407.41 37.1875C413.66 37.1875 418.966 37.6432 423.328 38.5547C427.69 39.4336 431.238 40.9798 433.973 43.1934C436.707 45.4069 438.693 48.4017 439.93 52.1777C441.167 55.9538 441.785 60.7227 441.785 66.4844C441.785 72.2461 441.167 77.0312 439.93 80.8398C438.693 84.6484 436.707 87.6758 433.973 89.9219C431.238 92.168 427.69 93.763 423.328 94.707C418.966 95.6185 413.66 96.0742 407.41 96.0742C401.16 96.0742 395.854 95.6185 391.492 94.707C387.13 93.763 383.582 92.168 380.848 89.9219C378.113 87.6758 376.128 84.6484 374.891 80.8398C373.654 77.0312 373.035 72.2461 373.035 66.4844ZM382.41 66.4844C382.41 69.6094 382.524 72.3275 382.752 74.6387C382.98 76.9499 383.403 78.9355 384.021 80.5957C384.673 82.2559 385.568 83.6068 386.707 84.6484C387.846 85.6901 389.344 86.5202 391.199 87.1387C393.055 87.7572 395.301 88.1803 397.938 88.4082C400.607 88.6361 403.764 88.75 407.41 88.75C410.535 88.75 413.318 88.6849 415.76 88.5547C418.234 88.3919 420.382 88.0501 422.205 87.5293C424.061 87.0085 425.639 86.276 426.941 85.332C428.243 84.3555 429.285 83.0371 430.066 81.377C430.88 79.7168 431.466 77.6823 431.824 75.2734C432.215 72.832 432.41 69.9023 432.41 66.4844C432.41 63.1315 432.215 60.2832 431.824 57.9395C431.466 55.5632 430.88 53.5775 430.066 51.9824C429.285 50.3874 428.243 49.1341 426.941 48.2227C425.639 47.2786 424.061 46.5788 422.205 46.123C420.382 45.6348 418.234 45.3255 415.76 45.1953C413.318 45.0651 410.535 45 407.41 45C404.285 45 401.486 45.0651 399.012 45.1953C396.57 45.3255 394.422 45.6348 392.566 46.123C390.743 46.5788 389.181 47.2786 387.879 48.2227C386.577 49.1341 385.519 50.3874 384.705 51.9824C383.924 53.5775 383.338 55.5632 382.947 57.9395C382.589 60.2832 382.41 63.1315 382.41 66.4844ZM501.16 57.0605C501.16 54.7168 500.981 52.7799 500.623 51.25C500.298 49.6875 499.5 48.4505 498.23 47.5391C496.961 46.5951 495.073 45.944 492.566 45.5859C490.092 45.1953 486.707 45 482.41 45C478.211 45 474.793 45.3743 472.156 46.123C469.52 46.8392 467.452 47.8646 465.955 49.1992C464.458 50.5339 463.432 52.1289 462.879 53.9844C462.358 55.8398 462.098 57.9069 462.098 60.1855V95H452.723V38.75H462.098V47.6855C462.423 46.6764 463.025 45.5697 463.904 44.3652C464.783 43.1283 466.118 41.9889 467.908 40.9473C469.699 39.873 472.01 38.9779 474.842 38.2617C477.706 37.5456 481.271 37.1875 485.535 37.1875C490.418 37.1875 494.389 37.627 497.449 38.5059C500.509 39.3522 502.885 40.6217 504.578 42.3145C506.303 43.9746 507.459 46.0417 508.045 48.5156C508.663 50.9896 508.973 53.8379 508.973 57.0605H501.16ZM548.035 96.0742C541.785 96.0742 536.479 95.6185 532.117 94.707C527.755 93.7956 524.207 92.2331 521.473 90.0195C518.738 87.806 516.753 84.8275 515.516 81.084C514.279 77.3405 513.66 72.6367 513.66 66.9727C513.66 61.1133 514.279 56.263 515.516 52.4219C516.753 48.5807 518.738 45.5371 521.473 43.291C524.207 41.0449 527.755 39.4661 532.117 38.5547C536.479 37.6432 541.785 37.1875 548.035 37.1875C552.462 37.1875 556.173 37.4154 559.168 37.8711C562.163 38.3268 564.604 38.8965 566.492 39.5801C568.413 40.2637 569.861 41.0124 570.838 41.8262C571.847 42.6074 572.579 43.3398 573.035 44.0234V20H582.41V95H573.035V86.6504C573.035 86.6504 572.254 87.5781 570.691 89.4336C569.324 90.7682 567.811 91.8424 566.15 92.6562C564.49 93.4701 562.163 94.2513 559.168 95C556.173 95.7161 552.462 96.0742 548.035 96.0742ZM548.035 88.75C551.16 88.75 553.943 88.6849 556.385 88.5547C558.826 88.3919 560.975 88.0664 562.83 87.5781C564.686 87.0898 566.248 86.3737 567.518 85.4297C568.82 84.4531 569.878 83.1673 570.691 81.5723C571.505 79.9772 572.091 78.0078 572.449 75.6641C572.84 73.2878 573.035 70.4395 573.035 67.1191C573.035 63.6686 572.84 60.7389 572.449 58.3301C572.091 55.8887 571.505 53.8542 570.691 52.2266C569.878 50.5664 568.82 49.2643 567.518 48.3203C566.248 47.3763 564.686 46.6602 562.83 46.1719C560.975 45.651 558.826 45.3255 556.385 45.1953C553.943 45.0651 551.16 45 548.035 45C544.389 45 541.232 45.1139 538.562 45.3418C535.926 45.5697 533.68 45.9766 531.824 46.5625C529.969 47.1484 528.455 47.9622 527.283 49.0039C526.144 50.0456 525.249 51.3802 524.598 53.0078C523.979 54.6354 523.556 56.6048 523.328 58.916C523.133 61.1947 523.035 63.8802 523.035 66.9727C523.035 70.0326 523.133 72.7018 523.328 74.9805C523.556 77.2266 523.979 79.1634 524.598 80.791C525.249 82.3861 526.144 83.7044 527.283 84.7461C528.455 85.7878 529.969 86.6016 531.824 87.1875C533.68 87.7734 535.926 88.1803 538.562 88.4082C541.232 88.6361 544.389 88.75 548.035 88.75ZM274.451 143.438C274.451 139.531 274.028 136.439 273.182 134.16C272.335 131.882 270.936 130.156 268.982 128.984C267.029 127.812 264.458 127.064 261.268 126.738C258.11 126.413 254.188 126.25 249.5 126.25H227.576C223.41 126.25 219.894 126.38 217.029 126.641C214.197 126.868 211.854 127.357 209.998 128.105C208.143 128.854 206.71 129.928 205.701 131.328C204.692 132.728 203.96 134.583 203.504 136.895C203.048 139.206 202.788 142.054 202.723 145.439C202.658 148.792 202.625 152.812 202.625 157.5C202.625 162.188 202.658 166.224 202.723 169.609C202.82 172.962 203.097 175.794 203.553 178.105C204.008 180.417 204.725 182.272 205.701 183.672C206.71 185.072 208.143 186.146 209.998 186.895C211.854 187.643 214.197 188.148 217.029 188.408C219.894 188.636 223.41 188.75 227.576 188.75H249.5C253.146 188.75 256.287 188.652 258.924 188.457C261.561 188.262 263.807 187.904 265.662 187.383C267.518 186.862 269.015 186.146 270.154 185.234C271.294 184.323 272.173 183.184 272.791 181.816C273.442 180.417 273.882 178.757 274.109 176.836C274.337 174.883 274.451 172.604 274.451 170H283.826C283.826 173.125 283.631 175.957 283.24 178.496C282.85 181.003 282.15 183.249 281.141 185.234C280.164 187.188 278.846 188.88 277.186 190.312C275.525 191.745 273.426 192.933 270.887 193.877C268.348 194.788 265.32 195.456 261.805 195.879C258.289 196.335 254.188 196.562 249.5 196.562H227.576C221.847 196.562 217.013 196.204 213.074 195.488C209.168 194.805 205.945 193.763 203.406 192.363C200.867 190.931 198.898 189.141 197.498 186.992C196.131 184.844 195.122 182.321 194.471 179.424C193.852 176.527 193.494 173.255 193.396 169.609C193.299 165.964 193.25 161.927 193.25 157.5C193.25 153.073 193.299 149.036 193.396 145.391C193.494 141.745 193.852 138.473 194.471 135.576C195.122 132.679 196.131 130.156 197.498 128.008C198.898 125.859 200.867 124.085 203.406 122.686C205.945 121.253 209.168 120.195 213.074 119.512C217.013 118.796 221.847 118.438 227.576 118.438H249.5C254.188 118.438 258.289 118.665 261.805 119.121C265.32 119.544 268.348 120.212 270.887 121.123C273.426 122.002 275.525 123.125 277.186 124.492C278.846 125.859 280.164 127.471 281.141 129.326C282.15 131.182 282.85 133.281 283.24 135.625C283.631 137.969 283.826 140.573 283.826 143.438H274.451ZM352.625 195V163.262C352.625 159.876 352.365 157.028 351.844 154.717C351.323 152.373 350.281 150.485 348.719 149.053C347.156 147.62 344.943 146.595 342.078 145.977C339.214 145.326 335.438 145 330.75 145C325.672 145 321.505 145.374 318.25 146.123C315.027 146.839 312.488 147.865 310.633 149.199C308.777 150.501 307.492 152.08 306.775 153.936C306.092 155.791 305.75 157.858 305.75 160.137V195H296.375V120H305.75V147.637C306.401 146.107 307.329 144.788 308.533 143.682C309.738 142.575 311.121 141.631 312.684 140.85C314.279 140.068 315.988 139.45 317.811 138.994C319.633 138.506 321.473 138.132 323.328 137.871C325.216 137.611 327.055 137.432 328.846 137.334C330.669 137.236 332.345 137.188 333.875 137.188C338.042 137.188 341.622 137.448 344.617 137.969C347.645 138.457 350.2 139.206 352.283 140.215C354.399 141.191 356.092 142.412 357.361 143.877C358.631 145.342 359.607 147.051 360.291 149.004C361.007 150.924 361.479 153.089 361.707 155.498C361.935 157.874 362.049 160.462 362.049 163.262L362 195H352.625ZM407.41 196.074C401.16 196.074 395.854 195.651 391.492 194.805C387.13 193.926 383.582 192.428 380.848 190.312C378.113 188.197 376.128 185.365 374.891 181.816C373.654 178.268 373.035 173.809 373.035 168.438C373.035 162.285 373.654 157.207 374.891 153.203C376.128 149.167 378.113 145.96 380.848 143.584C383.582 141.208 387.13 139.548 391.492 138.604C395.854 137.66 401.16 137.188 407.41 137.188C411.87 137.188 415.727 137.513 418.982 138.164C422.27 138.815 425.07 139.759 427.381 140.996C429.725 142.233 431.613 143.73 433.045 145.488C434.51 147.246 435.649 149.102 436.463 151.055C437.309 152.975 437.879 155.238 438.172 157.842C438.497 160.446 438.66 163.197 438.66 166.094L437.879 169.219H382.41C382.41 173.516 382.833 177.048 383.68 179.814C384.526 182.549 385.926 184.551 387.879 185.82C389.832 187.09 392.404 187.904 395.594 188.262C398.784 188.587 402.723 188.75 407.41 188.75C411.707 188.75 415.255 188.636 418.055 188.408C420.887 188.148 423.133 187.676 424.793 186.992C426.453 186.309 427.609 185.365 428.26 184.16C428.943 182.923 429.285 181.328 429.285 179.375H438.66C438.66 182.402 438.123 184.99 437.049 187.139C436.007 189.255 434.266 190.98 431.824 192.314C429.383 193.617 426.16 194.561 422.156 195.146C418.185 195.765 413.27 196.074 407.41 196.074ZM407.41 145C404.285 145 401.486 145.065 399.012 145.195C396.57 145.326 394.422 145.618 392.566 146.074C390.743 146.497 389.181 147.132 387.879 147.979C386.577 148.792 385.519 149.769 384.705 150.908C383.924 152.015 383.338 153.594 382.947 155.645C382.589 157.663 382.41 160.104 382.41 162.969H429.285C429.285 159.16 428.878 156.182 428.064 154.033C427.251 151.852 425.965 150.062 424.207 148.662C422.449 147.262 420.187 146.302 417.42 145.781C414.653 145.26 411.316 145 407.41 145ZM510.535 195H501.16V163.262C501.16 159.876 500.932 157.028 500.477 154.717C500.053 152.373 499.158 150.485 497.791 149.053C496.456 147.62 494.552 146.595 492.078 145.977C489.637 145.326 486.414 145 482.41 145C478.016 145 474.402 145.374 471.57 146.123C468.738 146.839 466.508 147.865 464.881 149.199C463.253 150.501 462.114 152.08 461.463 153.936C460.844 155.791 460.535 157.858 460.535 160.137V195H451.16V138.75H460.535V147.637C460.568 147.539 460.714 147.214 460.975 146.66C461.235 146.107 461.691 145.456 462.342 144.707C463.025 143.926 463.937 143.096 465.076 142.217C466.248 141.338 467.745 140.524 469.568 139.775C471.424 139.027 473.654 138.408 476.258 137.92C478.862 137.432 481.954 137.188 485.535 137.188C489.051 137.188 492.094 137.415 494.666 137.871C497.27 138.294 499.484 138.945 501.307 139.824C503.162 140.671 504.66 141.745 505.799 143.047C506.971 144.316 507.898 145.781 508.582 147.441C509.135 146.562 509.998 145.537 511.17 144.365C512.342 143.193 513.969 142.07 516.053 140.996C518.169 139.922 520.805 139.027 523.963 138.311C527.12 137.562 530.978 137.188 535.535 137.188C539.279 137.188 542.485 137.448 545.154 137.969C547.856 138.457 550.135 139.206 551.99 140.215C553.846 141.191 555.327 142.412 556.434 143.877C557.573 145.342 558.436 147.051 559.021 149.004C559.64 150.924 560.047 153.089 560.242 155.498C560.438 157.874 560.535 160.462 560.535 163.262V195H551.16V163.262C551.16 159.876 550.932 157.028 550.477 154.717C550.053 152.373 549.158 150.485 547.791 149.053C546.456 147.62 544.552 146.595 542.078 145.977C539.637 145.326 536.414 145 532.41 145C528.016 145 524.402 145.374 521.57 146.123C518.738 146.839 516.508 147.865 514.881 149.199C513.253 150.501 512.114 152.08 511.463 153.936C510.844 155.791 510.535 157.858 510.535 160.137V195ZM576.16 138.75H585.535V195H576.16V138.75ZM585.535 129.375H576.16V120H585.535V129.375ZM633.973 169.365C637.618 169.365 640.727 169.43 643.299 169.561C645.87 169.658 648.019 169.854 649.744 170.146C651.502 170.407 652.885 170.749 653.895 171.172C654.904 171.595 655.669 172.23 656.189 173.076C656.71 173.89 657.036 174.72 657.166 175.566C657.329 176.38 657.41 177.324 657.41 178.398C657.41 179.57 657.329 180.645 657.166 181.621C657.036 182.565 656.694 183.428 656.141 184.209C655.587 184.99 654.773 185.658 653.699 186.211C652.625 186.764 651.16 187.236 649.305 187.627C647.449 188.018 645.138 188.311 642.371 188.506C639.637 188.669 636.316 188.75 632.41 188.75C628.113 188.75 624.549 188.636 621.717 188.408C618.917 188.148 616.688 187.676 615.027 186.992C613.367 186.309 612.195 185.365 611.512 184.16C610.861 182.923 610.535 181.328 610.535 179.375H601.16C601.16 182.337 601.681 184.844 602.723 186.895C603.797 188.945 605.555 190.622 607.996 191.924C610.438 193.193 613.644 194.121 617.615 194.707C621.619 195.293 626.551 195.586 632.41 195.586C637.098 195.586 641.199 195.439 644.715 195.146C648.263 194.886 651.307 194.479 653.846 193.926C656.385 193.34 658.484 192.591 660.145 191.68C661.837 190.736 663.172 189.629 664.148 188.359C665.125 187.057 665.809 185.576 666.199 183.916C666.59 182.223 666.785 180.319 666.785 178.203C666.785 176.087 666.59 174.232 666.199 172.637C665.809 171.009 665.125 169.609 664.148 168.438C663.204 167.233 661.935 166.126 660.34 165.117C658.745 164.108 656.727 163.359 654.285 162.871C651.844 162.383 648.947 162.041 645.594 161.846C642.273 161.65 638.4 161.553 633.973 161.553C630.327 161.553 627.218 161.553 624.646 161.553C622.075 161.52 619.91 161.423 618.152 161.26C616.427 161.064 615.06 160.788 614.051 160.43C613.042 160.072 612.277 159.551 611.756 158.867C611.235 158.184 610.893 157.321 610.73 156.279C610.6 155.205 610.535 154.115 610.535 153.008C610.535 151.12 610.958 149.639 611.805 148.564C612.651 147.49 614.051 146.693 616.004 146.172C617.957 145.651 620.529 145.326 623.719 145.195C626.909 145.065 630.848 145 635.535 145C639.832 145 643.38 145.13 646.18 145.391C649.012 145.618 651.258 146.058 652.918 146.709C654.578 147.327 655.734 148.19 656.385 149.297C657.068 150.404 657.41 151.836 657.41 153.594H666.785C666.785 150.762 666.313 148.32 665.369 146.27C664.425 144.219 662.765 142.526 660.389 141.191C658.045 139.824 654.855 138.815 650.818 138.164C646.814 137.513 641.72 137.188 635.535 137.188C629.285 137.188 623.979 137.464 619.617 138.018C615.255 138.571 611.707 139.482 608.973 140.752C606.238 141.989 604.253 143.617 603.016 145.635C601.779 147.62 601.16 150.078 601.16 153.008C601.16 155.156 601.355 157.158 601.746 159.014C602.137 160.837 602.804 162.383 603.748 163.652C604.692 164.889 605.962 165.882 607.557 166.631C609.184 167.38 611.202 167.965 613.611 168.389C616.053 168.779 618.95 169.04 622.303 169.17C625.656 169.3 629.546 169.365 633.973 169.365ZM733.973 170C733.973 174.785 733.582 178.789 732.801 182.012C732.02 185.202 730.701 187.757 728.846 189.678C727.023 191.598 724.614 192.965 721.619 193.779C718.624 194.593 714.93 195 710.535 195C706.271 195 702.69 194.674 699.793 194.023C696.896 193.372 694.552 192.266 692.762 190.703C690.971 189.141 689.686 187.057 688.904 184.453C688.123 181.849 687.732 178.594 687.732 174.688V146.465H676.16V138.75H687.732V123.369H697.107V138.75H732.41V146.465H697.107V174.688C697.107 177.812 697.335 180.221 697.791 181.914C698.279 183.607 699.044 184.844 700.086 185.625C701.128 186.406 702.495 186.862 704.188 186.992C705.913 187.122 708.012 187.188 710.486 187.188C712.439 187.188 714.181 187.155 715.711 187.09C717.273 187.025 718.624 186.829 719.764 186.504C720.936 186.146 721.928 185.625 722.742 184.941C723.556 184.225 724.207 183.232 724.695 181.963C725.216 180.693 725.59 179.098 725.818 177.178C726.046 175.225 726.16 172.832 726.16 170H733.973Z" fill="#222222"/>
<line x1="77.551" y1="140.809" x2="116.013" y2="112.925" stroke="#222222" stroke-width="7.69231"/>
<line x1="73.0563" y1="50.1944" x2="115.364" y2="74.2328" stroke="#222222" stroke-width="7.69231"/>
<circle cx="48.0769" cy="168.923" r="44.2308" stroke="#222222" stroke-width="7.69231"/>
<circle cx="141.344" cy="94.8845" r="34.6154" stroke="#222222" stroke-width="7.69231"/>
<circle cx="60.5756" cy="41.0385" r="20.1923" stroke="#222222" stroke-width="7.69231"/>
</svg>
