<svg width="85" height="26" viewBox="0 0 85 26" fill="none" xmlns="http://www.w3.org/2000/svg">
<path d="M16.7785 14.7095C14.4909 16.2402 12.1444 17.569 9.73908 18.696L6.58523 16.4757C6.0638 14.9955 5.71898 13.5657 5.55077 12.1865C4.69292 14.1376 3.84349 16.3075 3.00246 18.696L0 16.7532C1.46338 12.8172 3.47344 8.59528 6.03015 4.08738C6.83754 2.67446 7.66174 1.312 8.50277 0L11.1015 1.94277C9.40267 4.44903 7.81313 7.27487 6.33292 10.4203C8.58687 8.31774 10.9249 6.40021 13.3471 4.66769L15.9206 7.06462C12.8256 9.03262 10.4371 10.6222 8.75508 11.8332C9.04103 12.6406 9.46995 13.6246 10.0418 14.7852C12.1781 14.062 14.2386 13.1873 16.2234 12.1612L16.7785 14.7095Z" fill="#54ACFC"/>
<path d="M21.1625 13.1452C20.3719 13.1452 19.7496 13.0864 19.2954 12.9686C19.0263 13.6246 18.8581 14.4404 18.7908 15.416C21.6839 15.2478 24.4761 14.6002 27.1674 13.4732C28.0757 13.1032 28.9504 12.6658 29.7914 12.1612L30.3213 14.7095C28.757 15.7019 26.9067 16.5766 24.7705 17.3335C22.4997 18.1409 20.3551 18.5951 18.3367 18.696L15.208 15.7945C15.208 13.4732 15.8388 11.3538 17.1004 9.43631C18.0087 8.10749 19.0347 7.05621 20.1785 6.28246C21.3391 5.50872 22.4493 4.95364 23.509 4.61723L27.773 8.14954C27.3525 9.89887 26.5535 11.1688 25.376 11.9594C24.1986 12.75 22.7941 13.1452 21.1625 13.1452ZM20.3551 10.6978C21.3307 10.6978 22.1801 10.4287 22.9034 9.89046C23.7445 9.25128 24.165 8.3598 24.165 7.216C22.4661 8.14113 21.1961 9.30174 20.3551 10.6978Z" fill="#54ACFC"/>
<path d="M39.3561 14.3058C42.081 13.5153 43.9901 12.8004 45.0834 12.1612L45.6385 14.7095C44.2929 15.7188 42.7874 16.6355 41.1222 17.4597C40.5335 17.7625 40.0205 17.9895 39.5831 18.1409L38.3468 16.7785C37.8759 18.9147 37.3208 20.622 36.6816 21.9003C36.0761 23.0777 35.2182 24.2552 34.1081 25.4326C32.2578 25.3822 30.2309 25.0878 28.0274 24.5495C27.3378 24.3813 26.707 24.1963 26.1351 23.9945L25.9837 19.8314C27.1107 18.839 28.3639 17.998 29.7431 17.3083L28.2798 16.2486C28.4311 14.0283 29.5833 11.1688 31.7364 7.67015C32.4092 6.57682 33.1493 5.48349 33.9567 4.39015L36.5807 6.38339C33.6371 10.5212 32.0475 13.5657 31.8121 15.5169C32.7035 15.3824 33.4184 15.1721 33.9567 14.8862C35.0332 14.3143 35.891 13.4816 36.5302 12.3883C37.9768 9.49518 39.272 7.24123 40.4158 5.62646L43.0902 7.72062C41.4418 10.2437 40.1971 12.4388 39.3561 14.3058ZM28.5321 21.6732C30.0795 22.0265 31.3579 22.2199 32.3671 22.2535C33.4605 21.3284 34.3183 19.8734 34.9407 17.8886C32.1989 18.9988 30.0627 20.2603 28.5321 21.6732Z" fill="#54ACFC"/>
<path d="M49.9894 8.83077C51.0996 7.83836 52.5714 6.82913 54.4048 5.80308L57.4578 8.2C57.3232 9.54564 57.1045 10.7063 56.8018 11.6818C56.499 12.6574 56.0028 13.4985 55.3131 14.2049C57.1298 13.6162 58.8539 12.935 60.4855 12.1612L61.0153 14.7095C58.8791 15.9038 55.9019 16.9719 52.0836 17.9138C50.9062 18.2166 49.7203 18.4773 48.5261 18.696L46.1796 16.5514C44.733 19.8146 43.6565 22.6909 42.9501 25.1803L40.0738 23.2375C42.1427 17.014 45.0442 10.7567 48.7784 4.46585L51.3267 6.33292L49.9894 8.83077ZM46.4824 15.8702C48.299 15.5842 49.6278 15.273 50.4688 14.9366C51.6799 14.3647 52.6387 13.1536 53.3451 11.3034C53.5806 10.7315 53.7404 10.1428 53.8245 9.53723C52.1088 10.4455 50.5361 11.4211 49.1064 12.464C48.6186 12.8172 48.0971 13.2041 47.5421 13.6246L46.4824 15.8702Z" fill="#54ACFC"/>
<path d="M66.4992 3.73415C66.1124 3.33046 65.9189 2.84267 65.9189 2.27077C65.9189 1.69887 66.1124 1.21949 66.4992 0.832615C66.9029 0.428923 67.3907 0.227077 67.9626 0.227077C68.5345 0.227077 69.0139 0.428923 69.4008 0.832615C69.8045 1.21949 70.0063 1.69887 70.0063 2.27077C70.0063 2.84267 69.8045 3.33046 69.4008 3.73415C69.0139 4.12103 68.5345 4.31446 67.9626 4.31446C67.3907 4.31446 66.9029 4.12103 66.4992 3.73415ZM62.6894 14.8357C64.4051 14.3143 66.4656 13.4228 68.8709 12.1612L69.4008 14.7095C67.7692 15.7692 65.8012 16.8037 63.4968 17.8129C62.723 18.1493 61.9661 18.4437 61.226 18.696L58.3245 16.0215C59.1487 13.7676 60.6289 10.9586 62.7651 7.59446C63.4043 6.58523 64.0266 5.70215 64.6322 4.94523L67.13 6.78708C65.9021 8.46913 64.7079 10.496 63.5472 12.8677C63.2108 13.5742 62.9249 14.2302 62.6894 14.8357Z" fill="#54ACFC"/>
<path d="M69.8557 18.2418C68.9306 17.1149 67.9886 15.7104 67.0299 14.0283L68.8709 12.1612C69.2242 12.7836 69.5445 13.2798 69.8305 13.6498C70.6211 12.8256 71.3107 12.1865 71.8994 11.7323C71.3107 9.98298 70.8986 8.07385 70.6631 6.00492L73.817 4.54154C74.0861 6.54318 74.4141 8.15795 74.801 9.38585C75.642 8.59528 76.4746 7.83836 77.2988 7.11508C78.1398 6.3918 79.0902 5.66851 80.1499 4.94523L83.001 6.888C81.0666 8.26728 78.7033 10.1428 75.9111 12.5145C76.1971 13.2546 76.5166 13.9358 76.8699 14.5582C78.9388 13.9526 80.4106 13.4732 81.2853 13.12C82.1768 12.75 82.9253 12.4304 83.5308 12.1612L84.0606 14.7095C81.2012 16.2907 78.2492 17.6195 75.2046 18.696C74.3636 17.2663 73.6824 15.9795 73.1609 14.8357C72.5891 15.374 72.0508 15.9206 71.5462 16.4757C71.0416 17.014 70.4781 17.6027 69.8557 18.2418Z" fill="#54ACFC"/>
</svg>
