<svg width="82" height="21" viewBox="0 0 82 21" fill="none" xmlns="http://www.w3.org/2000/svg">
<path d="M14.0009 2.34848C13.9479 2.50642 13.7623 2.69069 13.4441 2.90127C13.1259 3.11185 12.8607 3.21715 12.6486 3.21715C11.5083 3.11185 10.3681 3.01972 9.22788 2.94075C8.11417 2.86179 6.97394 2.80914 5.8072 2.78282C5.9663 3.70412 6.11214 4.62543 6.24473 5.54673C6.40383 6.46804 6.54967 7.38935 6.68226 8.31065C8.93619 8.23168 11.1636 8.11323 13.3645 7.95529C13.7358 7.95529 14.107 8.07374 14.4782 8.31065C14.8495 8.54756 15.0351 8.77131 15.0351 8.98189C15.0351 9.27144 14.9158 9.53467 14.6771 9.77158C14.4384 9.98217 14.1468 10.1138 13.802 10.1664C12.6883 10.3507 11.5614 10.4955 10.4211 10.6008C9.30743 10.6797 8.1672 10.7455 7.00046 10.7982C7.13304 11.7195 7.23911 12.6408 7.31866 13.5621C7.42473 14.4571 7.51754 15.3521 7.59709 16.247C7.65012 16.6156 7.61035 17.0104 7.47776 17.4316C7.3717 17.8264 7.18608 18.0239 6.92091 18.0239C6.68226 18.0239 6.45686 17.958 6.24473 17.8264C6.03259 17.6948 5.83372 17.55 5.6481 17.3921C5.489 17.2078 5.35641 17.0104 5.25034 16.7998C5.14428 16.5892 5.07799 16.405 5.05147 16.247C4.7863 13.9833 4.49461 11.7326 4.17641 9.49519C3.88473 7.25773 3.55326 5.00711 3.18203 2.74333H1.86944C1.4982 2.74333 1.15348 2.70385 0.835282 2.62488C0.517079 2.54591 0.278427 2.34849 0.119326 2.03261C0.0662922 1.95364 0.0265169 1.82203 0 1.63776C0 1.4535 0.0132585 1.26924 0.0397754 1.08498C0.0928091 0.900719 0.17236 0.729619 0.278427 0.571681C0.384495 0.413742 0.530338 0.30845 0.715956 0.255804C1.75012 0.0978667 2.85057 0.0320592 4.01731 0.0583819C5.21057 0.0847046 6.36405 0.163673 7.47776 0.295289C8.61799 0.400581 9.67867 0.558519 10.6598 0.769104C11.6674 0.979689 12.5292 1.20343 13.2452 1.44034C13.696 1.70357 13.9479 2.00629 14.0009 2.34848Z" fill="#222222"/>
<path d="M27.8574 5.74416C27.3801 6.00739 26.8762 6.28378 26.3459 6.57333C25.8421 6.86289 25.325 7.20509 24.7947 7.59993C24.2908 7.96845 23.8003 8.41595 23.323 8.94241C22.8722 9.44254 22.4612 10.048 22.0899 10.7587C21.5596 11.759 21.2016 12.7856 21.016 13.8385C20.8304 14.8651 20.7111 15.8785 20.658 16.8788C20.658 17.3526 20.5387 17.8396 20.3001 18.3397C20.0879 18.8135 19.783 19.0505 19.3852 19.0505C18.8814 19.0505 18.4704 18.8004 18.1522 18.3002C17.8605 17.7738 17.6616 17.2736 17.5556 16.7998C17.1048 14.9309 16.7335 13.0883 16.4418 11.272C16.1502 9.42938 15.8982 7.59993 15.6861 5.78364C15.6861 5.41512 15.7922 5.17821 16.0043 5.07292C16.243 4.96763 16.5081 4.92814 16.7998 4.95447C17.118 4.98079 17.423 5.05976 17.7147 5.19137C18.0063 5.32299 18.1787 5.53357 18.2317 5.82313C18.3378 6.79708 18.4704 7.82368 18.6295 8.90292C18.7886 9.95584 18.9477 10.864 19.1068 11.6274C19.2129 10.7324 19.5045 9.86371 19.9819 9.02137C20.4592 8.17904 21.0425 7.41567 21.732 6.73127C22.4479 6.04687 23.2434 5.46777 24.1185 4.99395C25.0201 4.52014 25.9349 4.20426 26.863 4.04632C27.2607 3.99367 27.5922 3.99367 27.8574 4.04632C28.1225 4.09897 28.3082 4.1911 28.4142 4.32271C28.5203 4.45433 28.5336 4.66491 28.454 4.95447C28.401 5.24402 28.2021 5.50725 27.8574 5.74416Z" fill="#222222"/>
<path d="M37.8957 10.0875C36.8615 10.6929 35.7478 11.1667 34.5545 11.5089C33.3613 11.8248 32.0752 11.9827 30.6963 11.9827C30.7494 12.904 31.0145 13.6411 31.4918 14.1939C31.9691 14.7203 32.5658 15.0362 33.2817 15.1415C33.706 15.1941 34.1303 15.181 34.5545 15.102C35.0053 15.023 35.4163 14.9046 35.7876 14.7466C36.1853 14.5624 36.5433 14.365 36.8615 14.1544C37.1797 13.9438 37.4581 13.7332 37.6968 13.5226C37.9354 13.312 38.1874 13.1804 38.4525 13.1278C38.7177 13.0488 38.9166 13.0356 39.0492 13.0883C39.4204 13.2199 39.553 13.6147 39.4469 14.2728C39.0226 15.1152 38.4127 15.839 37.6172 16.4445C36.8217 17.0236 35.9334 17.3921 34.9523 17.55C34.1038 17.708 33.2287 17.6685 32.3271 17.4316C31.4255 17.1947 30.6168 16.734 29.9008 16.0496C29.2909 15.4442 28.8269 14.7335 28.5087 13.9175C28.1905 13.1014 27.9916 12.2591 27.9121 11.3904C27.8325 10.5744 27.8988 9.7979 28.1109 9.06086C28.3496 8.32381 28.7076 7.6789 29.1849 7.12612C29.6622 6.54701 30.2588 6.0732 30.9748 5.70467C31.6907 5.33615 32.526 5.12557 33.4806 5.07292C34.6208 4.99395 35.655 5.20454 36.5831 5.70467C37.5112 6.20481 38.1608 6.90237 38.5321 7.79735C38.7442 8.29749 38.7972 8.73182 38.6912 9.10034C38.6116 9.46887 38.3465 9.7979 37.8957 10.0875ZM33.3215 7.40251C33.0563 7.45515 32.7647 7.54728 32.4464 7.6789C32.1548 7.81052 31.8763 7.98162 31.6112 8.1922C31.3725 8.37646 31.1471 8.60021 30.935 8.86344C30.7494 9.10034 30.6433 9.37674 30.6168 9.69261C31.0676 9.69261 31.5581 9.65313 32.0885 9.57416C32.6453 9.49519 33.1757 9.40306 33.6795 9.29777C34.2098 9.16615 34.6871 9.02137 35.1114 8.86344C35.5622 8.7055 35.9334 8.5344 36.2251 8.35014C36.013 7.85 35.6152 7.54729 35.0318 7.44199C34.475 7.31038 33.9049 7.29722 33.3215 7.40251Z" fill="#222222"/>
<path d="M49.2549 8.78447C49.7588 8.75814 50.2626 8.8766 50.7664 9.13983C51.2702 9.40306 51.5221 9.81107 51.5221 10.3638C51.4691 10.8113 51.2172 11.1009 50.7664 11.2325C50.3421 11.3378 49.9974 11.3904 49.7323 11.3904C49.2019 11.3904 48.6318 11.4036 48.0219 11.4299C47.412 11.4563 46.7889 11.4957 46.1525 11.5484C46.0994 12.417 46.0464 13.2331 45.9934 13.9964C45.9669 14.7598 45.9403 15.4442 45.9138 16.0496C45.8873 16.6287 45.874 17.1025 45.874 17.4711C45.874 17.8396 45.8873 18.037 45.9138 18.0633C46.4972 17.958 47.1203 17.7869 47.7833 17.55C48.4727 17.2868 49.1489 17.0104 49.8118 16.7209C50.5012 16.405 51.1642 16.0891 51.8006 15.7732C52.4635 15.431 53.0866 15.1152 53.67 14.8256C53.9352 14.694 54.1738 14.6545 54.386 14.7072C54.6246 14.7598 54.7705 14.8782 54.8235 15.0625C54.8765 15.3521 54.8368 15.7074 54.7042 16.1286C54.5716 16.5498 54.3329 16.9314 53.9882 17.2736C53.5905 17.5895 53.0601 17.958 52.3972 18.3792C51.7608 18.7741 51.0714 19.1557 50.3289 19.5243C49.5864 19.8928 48.8307 20.2218 48.0617 20.5114C47.3192 20.7746 46.6563 20.9325 46.0729 20.9852C45.1979 21.0642 44.5349 20.8273 44.0842 20.2745C43.6334 19.7217 43.3815 19.0241 43.3284 18.1818C43.2754 17.3395 43.2621 16.3655 43.2886 15.2599C43.3417 14.1544 43.3947 12.983 43.4477 11.7458C42.9439 11.7985 42.4534 11.8511 41.9761 11.9037C41.5253 11.9301 41.0877 11.9696 40.6635 12.0222C40.3188 12.0222 39.9343 11.9432 39.51 11.7853C39.1122 11.6274 38.9134 11.3246 38.9134 10.8771C38.9134 10.7192 38.9796 10.5086 39.1122 10.2454C39.2448 9.98217 39.5365 9.78474 39.9873 9.65313C41.0745 9.46887 42.281 9.31093 43.6068 9.17931C43.6864 7.94213 43.7792 6.74443 43.8853 5.58622C43.9913 4.42801 44.0842 3.37508 44.1637 2.42745C44.1902 2.11158 44.283 1.83519 44.4421 1.59828C44.6012 1.36137 44.7736 1.24292 44.9592 1.24292C45.41 1.21659 45.8343 1.33505 46.232 1.59828C46.6563 1.83519 46.8684 2.11158 46.8684 2.42745C46.7624 3.32244 46.6563 4.33587 46.5502 5.46776C46.4707 6.59966 46.3911 7.75787 46.3116 8.94241C46.8419 8.88976 47.3457 8.86344 47.823 8.86344C48.3269 8.83711 48.8042 8.81079 49.2549 8.78447Z" fill="#222222"/>
<path d="M67.8779 5.03343C67.4536 5.74416 67.0293 6.44172 66.6051 7.12612C66.1808 7.81051 65.7168 8.60021 65.2129 9.49519C64.7356 10.3638 64.1788 11.3773 63.5424 12.5355C62.906 13.6937 62.1635 15.102 61.315 16.7603C61.1028 17.1552 60.8907 17.4711 60.6785 17.708C60.4664 17.9449 60.2145 18.0633 59.9228 18.0633C59.5251 18.0633 59.2069 17.958 58.9682 17.7475C58.7561 17.5106 58.5705 17.2605 58.4114 16.9973C57.5363 15.5495 56.6745 13.9438 55.826 12.1801C54.9774 10.4165 54.288 8.69234 53.7576 7.00766C53.7046 6.87605 53.7046 6.73127 53.7576 6.57333C53.8372 6.38907 53.9433 6.27062 54.0758 6.21797C54.341 6.08636 54.6857 6.07319 55.11 6.17849C55.4282 6.3101 55.7464 6.54701 56.0646 6.88921C56.3828 7.23141 56.6347 7.58677 56.8203 7.95529C56.9794 8.32381 57.1651 8.74498 57.3772 9.2188C57.5893 9.69261 57.8147 10.2059 58.0534 10.7587C58.3185 11.2852 58.5837 11.8116 58.8489 12.3381C59.1141 12.8645 59.3792 13.3384 59.6444 13.7595C60.0952 12.9698 60.5725 12.1275 61.0763 11.2325C61.6066 10.3112 62.137 9.3899 62.6673 8.46859C63.1977 7.52096 63.728 6.61282 64.2583 5.74416C64.8152 4.8755 65.3588 4.09897 65.8891 3.41457C66.0217 3.23031 66.2073 3.12502 66.446 3.09869C66.6846 3.07237 66.9498 3.1645 67.2415 3.37508C67.9044 3.87522 68.1165 4.428 67.8779 5.03343Z" fill="#222222"/>
<path d="M71.9866 7.6789C71.8275 8.38962 71.6684 9.17931 71.5092 10.048C71.3501 10.8903 71.2308 11.7063 71.1513 12.496C71.0982 13.2857 71.0982 13.9964 71.1513 14.6282C71.2308 15.2599 71.4032 15.7074 71.6683 15.9707C72.1191 16.0496 72.6362 15.8654 73.2196 15.4179C73.803 14.9441 74.3731 14.3518 74.9299 13.6411C75.4868 12.9303 75.9906 12.167 76.4414 11.351C76.8922 10.5086 77.2104 9.77158 77.396 9.13983C77.5021 8.82395 77.5949 8.49491 77.6744 8.15271C77.754 7.81052 77.7938 7.45515 77.7938 7.08663C77.7938 6.87605 77.9263 6.67862 78.1915 6.49436C78.4832 6.28378 78.7218 6.16533 78.9075 6.139C79.04 6.11268 79.1859 6.139 79.345 6.21797C79.5306 6.29694 79.6897 6.41539 79.8223 6.57333C79.9814 6.70495 80.114 6.87605 80.2201 7.08663C80.3526 7.27089 80.4189 7.46832 80.4189 7.6789C80.472 8.46859 80.5515 9.33725 80.6576 10.2849C80.7637 11.2325 80.883 12.1801 81.0156 13.1278C81.1747 14.0754 81.3338 14.9967 81.4929 15.8917C81.652 16.7867 81.8111 17.5895 81.9702 18.3002C82.0497 18.5898 81.9702 18.9188 81.7315 19.2874C81.4929 19.6559 81.2277 19.8796 80.936 19.9586C80.6974 20.0112 80.4454 19.9849 80.1803 19.8796C79.9416 19.7743 79.756 19.5637 79.6234 19.2479C79.4908 18.8794 79.3582 18.4319 79.2257 17.9054C79.1196 17.3526 79.0135 16.7867 78.9075 16.2076C78.8279 15.6021 78.7484 15.0362 78.6688 14.5097C78.5893 13.9569 78.5362 13.4963 78.5097 13.1278C78.112 13.8385 77.6347 14.5624 77.0778 15.2994C76.5475 16.0101 75.9641 16.6682 75.3277 17.2736C74.7178 17.8528 74.0681 18.3134 73.3787 18.6556C72.7158 18.9715 72.0263 19.0899 71.3104 19.011C70.2497 18.8794 69.4409 17.8922 68.8841 16.0496C68.6719 15.3126 68.5659 14.4966 68.5659 13.6016C68.5924 12.7066 68.6587 11.8248 68.7648 10.9561C68.8973 10.0611 69.0432 9.2188 69.2023 8.42911C69.3879 7.63942 69.547 6.9945 69.6796 6.49436C69.7326 6.28378 69.8387 6.09952 69.9978 5.94158C70.1569 5.75732 70.3425 5.69151 70.5546 5.74416C70.9524 5.82313 71.3104 6.06003 71.6286 6.45488C71.9733 6.84972 72.0926 7.25773 71.9866 7.6789Z" fill="#222222"/>
<path d="M68.7737 1.45956C68.7737 0.851614 69.2599 0.353476 69.872 0.334287L80.5146 0.000662324C81.3124 -0.0243487 81.9449 0.662608 81.8483 1.44919C81.7686 2.0978 81.2139 2.58539 80.5557 2.58539H69.9078C69.2814 2.58539 68.7737 2.08134 68.7737 1.45956Z" fill="#222222"/>
</svg>
