<svg width="84" height="11" viewBox="0 0 84 11" fill="none" xmlns="http://www.w3.org/2000/svg">
<path d="M0.375489 10.8157C0.27921 10.8157 0.192558 10.782 0.115535 10.7147C0.0385117 10.6376 0 10.5462 0 10.4403V1.08192C0 0.976012 0.0385117 0.889361 0.115535 0.821966C0.192558 0.744942 0.27921 0.70643 0.375489 0.70643H4.98245C5.85859 0.70643 6.57587 0.821965 7.13429 1.05304C7.69271 1.28411 8.10671 1.61627 8.37629 2.04952C8.64587 2.48278 8.78066 3.01713 8.78066 3.65257C8.78066 3.97992 8.71327 4.27357 8.57848 4.53353C8.45331 4.78385 8.29927 4.99567 8.11634 5.16897C7.93341 5.33265 7.7601 5.45299 7.59643 5.53002C7.97192 5.69369 8.29927 5.9729 8.57848 6.36765C8.85769 6.75276 8.99729 7.19565 8.99729 7.6963C8.99729 8.37025 8.84324 8.9383 8.53515 9.40044C8.23669 9.86258 7.79861 10.214 7.22094 10.4547C6.65289 10.6954 5.95487 10.8157 5.12687 10.8157H0.375489ZM3.105 8.63502H4.7947C5.12205 8.63502 5.36275 8.53874 5.5168 8.34618C5.67084 8.144 5.74787 7.92256 5.74787 7.68186C5.74787 7.43153 5.66603 7.2149 5.50236 7.03197C5.33868 6.83942 5.1028 6.74314 4.7947 6.74314H3.105V8.63502ZM3.105 4.62018H4.65028C4.95838 4.62018 5.18463 4.53353 5.32905 4.36023C5.47347 4.18692 5.54568 3.98474 5.54568 3.75367C5.54568 3.5226 5.47347 3.32041 5.32905 3.14711C5.18463 2.97381 4.95838 2.88715 4.65028 2.88715H3.105V4.62018Z" fill="#222222"/>
<path d="M14.005 10.9602C13.1578 10.9602 12.4405 10.835 11.8532 10.5847C11.2755 10.3343 10.8326 9.96849 10.5245 9.48709C10.2164 8.99607 10.0431 8.40877 10.0046 7.72518C9.99498 7.523 9.99017 7.30156 9.99017 7.06086C9.99017 6.82016 9.99498 6.59872 10.0046 6.39653C10.0431 5.70332 10.2261 5.11602 10.5534 4.63462C10.8808 4.15323 11.3333 3.78736 11.9109 3.53704C12.4982 3.28671 13.1963 3.16155 14.005 3.16155C14.8138 3.16155 15.507 3.28671 16.0846 3.53704C16.6719 3.78736 17.1293 4.15323 17.4566 4.63462C17.784 5.11602 17.9669 5.70332 18.0054 6.39653C18.0247 6.59872 18.0343 6.82016 18.0343 7.06086C18.0343 7.30156 18.0247 7.523 18.0054 7.72518C17.9669 8.40877 17.7936 8.99607 17.4855 9.48709C17.1774 9.96849 16.7297 10.3343 16.1424 10.5847C15.5647 10.835 14.8523 10.9602 14.005 10.9602ZM14.005 8.92386C14.3612 8.92386 14.6068 8.81795 14.7415 8.60614C14.8763 8.39432 14.9534 8.0766 14.9726 7.65297C14.9822 7.50856 14.9871 7.31118 14.9871 7.06086C14.9871 6.81053 14.9822 6.61316 14.9726 6.46874C14.9534 6.05474 14.8763 5.74183 14.7415 5.53002C14.6068 5.30858 14.3612 5.19785 14.005 5.19785C13.6584 5.19785 13.4177 5.30858 13.2829 5.53002C13.1481 5.74183 13.0663 6.05474 13.0374 6.46874C13.0278 6.61316 13.023 6.81053 13.023 7.06086C13.023 7.31118 13.0278 7.50856 13.0374 7.65297C13.0663 8.0766 13.1481 8.39432 13.2829 8.60614C13.4177 8.81795 13.6584 8.92386 14.005 8.92386Z" fill="#222222"/>
<path d="M22.5831 10.9602C21.9284 10.9602 21.37 10.8928 20.9079 10.758C20.4458 10.6136 20.0654 10.4354 19.767 10.2236C19.4781 10.0118 19.2663 9.79519 19.1315 9.57374C18.9967 9.34267 18.9245 9.14049 18.9149 8.96719C18.9053 8.86128 18.9342 8.77463 19.0016 8.70723C19.0786 8.63021 19.1604 8.5917 19.2471 8.5917H21.3411C21.3508 8.5917 21.3652 8.59651 21.3845 8.60614C21.4037 8.60614 21.423 8.61577 21.4422 8.63502C21.5674 8.67353 21.6829 8.73612 21.7888 8.82277C21.9044 8.90942 22.0295 8.98644 22.1643 9.05384C22.3088 9.12123 22.4772 9.15493 22.6698 9.15493C22.8335 9.15493 22.9779 9.12123 23.1031 9.05384C23.2378 8.97681 23.3052 8.87091 23.3052 8.73612C23.3052 8.62058 23.2667 8.51949 23.1897 8.43284C23.1223 8.34618 22.9731 8.26435 22.742 8.18732C22.5109 8.10067 22.1403 8.00921 21.63 7.91293C21.1582 7.81665 20.725 7.67704 20.3302 7.49411C19.9451 7.30156 19.637 7.04642 19.4059 6.72869C19.1845 6.41097 19.0738 6.02104 19.0738 5.5589C19.0738 5.16416 19.2037 4.78385 19.4637 4.41799C19.7237 4.05213 20.1088 3.75367 20.6191 3.5226C21.139 3.2819 21.7744 3.16155 22.5254 3.16155C23.0934 3.16155 23.5941 3.22895 24.0273 3.36374C24.4702 3.49853 24.8409 3.66702 25.1394 3.8692C25.4475 4.07139 25.6785 4.28802 25.8326 4.51909C25.9962 4.75016 26.0829 4.95716 26.0925 5.14009C26.1022 5.24599 26.0733 5.33746 26.0059 5.41448C25.9385 5.48188 25.8615 5.51558 25.7748 5.51558H23.8829C23.854 5.51558 23.8203 5.51558 23.7818 5.51558C23.7529 5.50595 23.7289 5.49151 23.7096 5.47225C23.5748 5.44337 23.4497 5.39041 23.3341 5.31339C23.2282 5.22674 23.1127 5.14972 22.9875 5.08232C22.8624 5.0053 22.7035 4.96678 22.5109 4.96678C22.3473 4.96678 22.2125 5.0053 22.1066 5.08232C22.0103 5.15934 21.9621 5.26044 21.9621 5.3856C21.9621 5.49151 21.9958 5.58779 22.0632 5.67444C22.1306 5.76109 22.2847 5.84293 22.5254 5.91995C22.7661 5.99697 23.1464 6.07881 23.6663 6.16546C24.3402 6.27137 24.8794 6.44948 25.2838 6.69981C25.6882 6.94051 25.977 7.22453 26.1503 7.55188C26.3236 7.87923 26.4102 8.20658 26.4102 8.53393C26.4102 9.02495 26.261 9.45339 25.9625 9.81926C25.6737 10.1851 25.2405 10.4691 24.6628 10.6713C24.0947 10.8639 23.4015 10.9602 22.5831 10.9602Z" fill="#222222"/>
<path d="M30.8477 10.9602C30.193 10.9602 29.6346 10.8928 29.1725 10.758C28.7103 10.6136 28.33 10.4354 28.0316 10.2236C27.7427 10.0118 27.5309 9.79519 27.3961 9.57374C27.2613 9.34267 27.1891 9.14049 27.1795 8.96719C27.1699 8.86128 27.1988 8.77463 27.2662 8.70723C27.3432 8.63021 27.425 8.5917 27.5117 8.5917H29.6057C29.6154 8.5917 29.6298 8.59651 29.6491 8.60614C29.6683 8.60614 29.6876 8.61577 29.7068 8.63502C29.832 8.67353 29.9475 8.73612 30.0534 8.82277C30.169 8.90942 30.2941 8.98644 30.4289 9.05384C30.5733 9.12123 30.7418 9.15493 30.9344 9.15493C31.0981 9.15493 31.2425 9.12123 31.3676 9.05384C31.5024 8.97681 31.5698 8.87091 31.5698 8.73612C31.5698 8.62058 31.5313 8.51949 31.4543 8.43284C31.3869 8.34618 31.2377 8.26435 31.0066 8.18732C30.7755 8.10067 30.4049 8.00921 29.8946 7.91293C29.4228 7.81665 28.9895 7.67704 28.5948 7.49411C28.2097 7.30156 27.9016 7.04642 27.6705 6.72869C27.4491 6.41097 27.3384 6.02104 27.3384 5.5589C27.3384 5.16416 27.4683 4.78385 27.7283 4.41799C27.9882 4.05213 28.3734 3.75367 28.8836 3.5226C29.4036 3.2819 30.039 3.16155 30.79 3.16155C31.358 3.16155 31.8587 3.22895 32.2919 3.36374C32.7348 3.49853 33.1055 3.66702 33.404 3.8692C33.712 4.07139 33.9431 4.28802 34.0972 4.51909C34.2608 4.75016 34.3475 4.95716 34.3571 5.14009C34.3667 5.24599 34.3379 5.33746 34.2705 5.41448C34.2031 5.48188 34.126 5.51558 34.0394 5.51558H32.1475C32.1186 5.51558 32.0849 5.51558 32.0464 5.51558C32.0175 5.50595 31.9935 5.49151 31.9742 5.47225C31.8394 5.44337 31.7143 5.39041 31.5987 5.31339C31.4928 5.22674 31.3773 5.14972 31.2521 5.08232C31.1269 5.0053 30.9681 4.96678 30.7755 4.96678C30.6119 4.96678 30.4771 5.0053 30.3712 5.08232C30.2749 5.15934 30.2267 5.26044 30.2267 5.3856C30.2267 5.49151 30.2604 5.58779 30.3278 5.67444C30.3952 5.76109 30.5493 5.84293 30.79 5.91995C31.0307 5.99697 31.411 6.07881 31.9309 6.16546C32.6048 6.27137 33.144 6.44948 33.5484 6.69981C33.9527 6.94051 34.2416 7.22453 34.4149 7.55188C34.5882 7.87923 34.6748 8.20658 34.6748 8.53393C34.6748 9.02495 34.5256 9.45339 34.2271 9.81926C33.9383 10.1851 33.505 10.4691 32.9274 10.6713C32.3593 10.8639 31.6661 10.9602 30.8477 10.9602Z" fill="#222222"/>
<path d="M41.1163 10.8157C41.0103 10.8157 40.9189 10.782 40.8419 10.7147C40.7745 10.6376 40.7408 10.5462 40.7408 10.4403V3.39262H38.2568C38.1509 3.39262 38.0594 3.35892 37.9824 3.29153C37.915 3.2145 37.8813 3.12304 37.8813 3.01713V1.08192C37.8813 0.976012 37.915 0.889361 37.9824 0.821966C38.0594 0.744942 38.1509 0.70643 38.2568 0.70643H46.3731C46.479 0.70643 46.5657 0.744942 46.633 0.821966C46.7101 0.889361 46.7486 0.976012 46.7486 1.08192V3.01713C46.7486 3.12304 46.7101 3.2145 46.633 3.29153C46.5657 3.35892 46.479 3.39262 46.3731 3.39262H43.8891V10.4403C43.8891 10.5462 43.8506 10.6376 43.7736 10.7147C43.7062 10.782 43.6195 10.8157 43.5136 10.8157H41.1163Z" fill="#222222"/>
<path d="M48.8489 10.9602C48.3193 10.9602 47.8427 10.8591 47.4191 10.6569C47.0051 10.4547 46.6778 10.1851 46.4371 9.84814C46.206 9.50153 46.0905 9.11642 46.0905 8.69279C46.0905 7.99958 46.3697 7.4556 46.9281 7.06086C47.4961 6.65648 48.2519 6.37727 49.1955 6.22323L50.8563 5.96327V5.86218C50.8563 5.56372 50.8081 5.34227 50.7119 5.19785C50.6252 5.04381 50.4375 4.96678 50.1486 4.96678C49.9464 4.96678 49.7828 5.0053 49.6576 5.08232C49.5324 5.15934 49.4169 5.27006 49.311 5.41448C49.2147 5.52039 49.0896 5.57334 48.9355 5.57334H46.8992C46.7933 5.57334 46.7115 5.54446 46.6537 5.48669C46.5959 5.42892 46.5719 5.3519 46.5815 5.25562C46.5911 5.08232 46.6633 4.88013 46.7981 4.64906C46.9329 4.40837 47.1399 4.1773 47.4191 3.95585C47.708 3.72478 48.0786 3.53704 48.5311 3.39262C48.9837 3.23857 49.5276 3.16155 50.1631 3.16155C50.8081 3.16155 51.3618 3.23376 51.8239 3.37818C52.286 3.5226 52.6663 3.72478 52.9648 3.98474C53.2633 4.24469 53.4847 4.56241 53.6291 4.9379C53.7735 5.30376 53.8458 5.71295 53.8458 6.16546V10.4403C53.8458 10.5462 53.8072 10.6376 53.7302 10.7147C53.6628 10.782 53.5762 10.8157 53.4703 10.8157H51.3617C51.2655 10.8157 51.1788 10.782 51.1018 10.7147C51.0248 10.6376 50.9863 10.5462 50.9863 10.4403V9.97812C50.8611 10.1707 50.6926 10.3392 50.4808 10.4836C50.2786 10.628 50.0379 10.7435 49.7587 10.8302C49.4891 10.9168 49.1858 10.9602 48.8489 10.9602ZM49.6865 9.06828C49.9272 9.06828 50.1342 9.02014 50.3075 8.92386C50.4904 8.81795 50.6348 8.65909 50.7407 8.44728C50.8467 8.23546 50.8996 7.9707 50.8996 7.65297V7.55188L49.8598 7.75407C49.5036 7.82146 49.2532 7.92256 49.1088 8.05735C48.9644 8.18251 48.8922 8.32211 48.8922 8.47616C48.8922 8.5917 48.9259 8.69279 48.9933 8.77944C49.0607 8.86609 49.1521 8.9383 49.2677 8.99607C49.3928 9.04421 49.5324 9.06828 49.6865 9.06828Z" fill="#222222"/>
<path d="M55.6574 10.8157C55.5515 10.8157 55.46 10.782 55.383 10.7147C55.3156 10.6376 55.2819 10.5462 55.2819 10.4403V0.937501C55.2819 0.831593 55.3156 0.744942 55.383 0.677547C55.46 0.600523 55.5515 0.562012 55.6574 0.562012H57.8093C57.9055 0.562012 57.9922 0.600523 58.0692 0.677547C58.1462 0.744942 58.1848 0.831593 58.1848 0.937501V10.4403C58.1848 10.5462 58.1462 10.6376 58.0692 10.7147C57.9922 10.782 57.9055 10.8157 57.8093 10.8157H55.6574Z" fill="#222222"/>
<path d="M60.0577 10.8157C59.9518 10.8157 59.8603 10.782 59.7833 10.7147C59.7159 10.6376 59.6822 10.5462 59.6822 10.4403V0.937501C59.6822 0.831593 59.7159 0.744942 59.7833 0.677547C59.8603 0.600523 59.9518 0.562012 60.0577 0.562012H62.1518C62.2577 0.562012 62.3443 0.600523 62.4117 0.677547C62.4887 0.744942 62.5272 0.831593 62.5272 0.937501V5.70332L64.1736 3.55148C64.2121 3.50334 64.2651 3.45039 64.3325 3.39262C64.3999 3.33485 64.4961 3.30597 64.6213 3.30597H67.0475C67.1438 3.30597 67.2209 3.33967 67.2786 3.40706C67.346 3.46483 67.3797 3.54185 67.3797 3.63813C67.3797 3.67664 67.3701 3.71997 67.3508 3.76811C67.3412 3.81625 67.3219 3.84995 67.2931 3.8692L64.9968 6.68537L67.6541 10.267C67.7022 10.344 67.7263 10.4162 67.7263 10.4836C67.7263 10.5799 67.6926 10.6617 67.6252 10.7291C67.5675 10.7869 67.4904 10.8157 67.3942 10.8157H64.8813C64.7368 10.8157 64.6309 10.7869 64.5635 10.7291C64.5058 10.6617 64.4528 10.6087 64.4047 10.5702L62.5272 7.9707V10.4403C62.5272 10.5462 62.4887 10.6376 62.4117 10.7147C62.3443 10.782 62.2577 10.8157 62.1518 10.8157H60.0577Z" fill="#222222"/>
<path d="M80.6286 2.54764L81.5731 3.4921L78.3724 6.69274L76.2146 4.53493C75.9588 4.27914 75.5456 4.27914 75.2898 4.53493L71.3546 8.47671C71.0988 8.73249 71.0988 9.14569 71.3546 9.40148C71.6104 9.65727 72.0236 9.65727 72.2794 9.40148L75.7489 5.92537L77.9068 8.08318C78.1625 8.33897 78.5757 8.33897 78.8315 8.08318L82.4978 4.42343L83.4423 5.36788C83.6456 5.5712 83.9998 5.42691 83.9998 5.13833V2.31809C84.0063 2.13444 83.8621 1.99015 83.6784 1.99015H80.8647C80.5696 1.99015 80.4253 2.34432 80.6286 2.54764Z" fill="#008000"/>
</svg>
