<svg width="84" height="24" viewBox="0 0 84 24" fill="none" xmlns="http://www.w3.org/2000/svg">
<path d="M0.0166016 8.33291L83.9942 0.984863V23.029H0.0166016V8.33291Z" fill="#FFF853"/>
<path d="M17.4703 11.1429C17.462 11.1637 17.4454 11.2011 17.4204 11.2552C17.3955 11.3092 17.383 11.3446 17.383 11.3612C17.383 11.3945 17.3809 11.4381 17.3768 11.4921C17.3768 11.542 17.3934 11.5732 17.4267 11.5857C17.3809 11.6813 17.3518 11.779 17.3394 11.8788C17.331 11.9744 17.3269 12.0741 17.3269 12.1781C17.3269 12.2778 17.3248 12.3797 17.3206 12.4836C17.3165 12.5834 17.2999 12.6811 17.2708 12.7767C17.2874 12.8016 17.2915 12.8328 17.2832 12.8702C17.2791 12.9035 17.2895 12.9305 17.3144 12.9513C17.2936 12.9845 17.2812 13.0178 17.277 13.051C17.2728 13.0801 17.2708 13.1113 17.2708 13.1446C17.2708 13.2111 17.277 13.2755 17.2895 13.3379C17.2437 13.4044 17.2209 13.4792 17.2209 13.5624C17.225 13.6413 17.2271 13.7224 17.2271 13.8056C17.2271 13.8762 17.2167 13.9448 17.1959 14.0113C17.1793 14.0778 17.171 14.1464 17.171 14.2171C17.171 14.2379 17.1731 14.2566 17.1772 14.2732C17.1814 14.2899 17.1835 14.3086 17.1835 14.3293C17.1835 14.3501 17.1751 14.3647 17.1585 14.373C17.146 14.3772 17.1398 14.3959 17.1398 14.4291C17.1398 14.5829 17.1294 14.7326 17.1086 14.8781C17.0878 15.0194 17.0608 15.1608 17.0276 15.3021C16.9985 15.4393 16.9652 15.5785 16.9278 15.7199C16.8904 15.8612 16.8571 16.0046 16.828 16.1501C16.7823 16.2 16.747 16.2561 16.722 16.3185C16.7012 16.3809 16.6617 16.4307 16.6036 16.4682C16.5495 16.6053 16.4809 16.7301 16.3978 16.8423C16.3188 16.9545 16.2294 17.0605 16.1296 17.1603C16.034 17.2601 15.9343 17.3557 15.8303 17.4472C15.7264 17.5428 15.6246 17.6405 15.5248 17.7402C15.4832 17.7402 15.4416 17.7402 15.4001 17.7402C15.3627 17.7444 15.3232 17.7465 15.2816 17.7465C15.1901 17.7465 15.0987 17.7423 15.0072 17.734C14.9158 17.7257 14.8285 17.7111 14.7453 17.6903C14.7287 17.6321 14.6955 17.5926 14.6456 17.5719C14.5998 17.5552 14.5583 17.5282 14.5209 17.4908C14.4793 17.4534 14.4481 17.4118 14.4273 17.3661C14.4065 17.3204 14.3629 17.2892 14.2964 17.2726C14.2756 17.2102 14.2423 17.1374 14.1966 17.0543C14.155 16.9712 14.1135 16.8859 14.0719 16.7986C14.0303 16.7113 13.9929 16.6282 13.9597 16.5492C13.9306 16.4661 13.916 16.3954 13.916 16.3372C13.916 16.3164 13.9181 16.2977 13.9222 16.2811C13.9306 16.2603 13.9368 16.2395 13.9409 16.2187C13.916 16.1896 13.8994 16.1522 13.8911 16.1065C13.8827 16.0608 13.8765 16.015 13.8724 15.9693C13.8724 15.9194 13.8682 15.8737 13.8599 15.8321C13.8516 15.7864 13.8329 15.7511 13.8038 15.7261C13.7539 15.7594 13.7144 15.8009 13.6853 15.8508C13.6562 15.9007 13.6292 15.9548 13.6042 16.013C13.5834 16.0712 13.5627 16.1294 13.5419 16.1876C13.5211 16.2458 13.4961 16.2998 13.467 16.3497C13.4088 16.3954 13.3569 16.4474 13.3111 16.5056C13.2696 16.5638 13.2259 16.622 13.1802 16.6802C13.1386 16.7425 13.0929 16.7986 13.043 16.8485C12.9931 16.9026 12.9349 16.9462 12.8684 16.9795C12.8518 17.0543 12.8206 17.1167 12.7749 17.1665C12.7333 17.2206 12.6876 17.2684 12.6377 17.31C12.5878 17.3557 12.54 17.4014 12.4943 17.4472C12.4486 17.497 12.4153 17.5573 12.3945 17.628C12.3238 17.6612 12.2449 17.709 12.1576 17.7714C12.0703 17.8379 11.9809 17.9044 11.8894 17.9709C11.8021 18.0375 11.7128 18.0936 11.6213 18.1393C11.534 18.1892 11.4571 18.2141 11.3906 18.2141C11.3365 18.2141 11.2846 18.2079 11.2347 18.1954C11.189 18.1871 11.1412 18.1767 11.0913 18.1642C11.0414 18.1518 10.9915 18.1393 10.9416 18.1268C10.8917 18.1185 10.8398 18.1164 10.7857 18.1206C10.7067 18.0375 10.6465 17.9418 10.6049 17.8338C10.5633 17.7298 10.5114 17.6321 10.449 17.5407C10.4282 17.416 10.4074 17.2892 10.3866 17.1603C10.3659 17.0356 10.3555 16.9109 10.3555 16.7862C10.3555 16.7155 10.3638 16.649 10.3804 16.5866C10.397 16.5284 10.4054 16.4682 10.4054 16.4058C10.4054 16.385 10.4012 16.3663 10.3929 16.3497C10.3887 16.3289 10.3846 16.3081 10.3804 16.2873C10.4095 16.2291 10.4324 16.1689 10.449 16.1065C10.4656 16.04 10.4781 15.9735 10.4864 15.907C10.4989 15.8404 10.5114 15.776 10.5238 15.7137C10.5363 15.6471 10.555 15.5848 10.58 15.5266C10.5883 15.4767 10.5737 15.4393 10.5363 15.4143C10.5654 15.3852 10.5841 15.3541 10.5924 15.3208C10.6007 15.2876 10.6049 15.2543 10.6049 15.221C10.6091 15.1878 10.6111 15.1524 10.6111 15.115C10.6111 15.0776 10.6153 15.0423 10.6236 15.009C10.6278 14.9924 10.6381 14.9675 10.6548 14.9342C10.6756 14.8968 10.6943 14.8615 10.7109 14.8282C10.7317 14.7908 10.7483 14.7575 10.7608 14.7284C10.7774 14.6952 10.7857 14.6702 10.7857 14.6536C10.7857 14.6245 10.7774 14.5933 10.7608 14.5601C10.7774 14.4769 10.8044 14.3959 10.8418 14.3169C10.8834 14.2379 10.9146 14.1568 10.9354 14.0737C10.9562 13.9905 10.9686 13.9178 10.9728 13.8554C10.977 13.7889 10.9957 13.712 11.0289 13.6247C11.0331 13.6164 11.0352 13.606 11.0352 13.5935C11.0352 13.5769 11.0289 13.5665 11.0164 13.5624C11.004 13.5582 10.9936 13.5499 10.9853 13.5374C11.0352 13.4418 11.0726 13.34 11.0975 13.2319C11.1266 13.1196 11.1495 13.0053 11.1661 12.8889C11.1869 12.7725 11.2056 12.6582 11.2222 12.546C11.2388 12.4296 11.2638 12.3194 11.297 12.2155C11.2846 12.1323 11.2742 12.0471 11.2659 11.9598C11.2576 11.8684 11.2534 11.7811 11.2534 11.6979C11.2534 11.6023 11.2617 11.5046 11.2783 11.4048C11.2991 11.3051 11.3428 11.2178 11.4093 11.1429C11.4425 11.1429 11.4779 11.1409 11.5153 11.1367C11.5569 11.1326 11.5943 11.1305 11.6275 11.1305C11.6774 11.1305 11.7315 11.1429 11.7897 11.1679C11.8188 11.3009 11.8562 11.4319 11.9019 11.5607C11.9476 11.6896 11.9705 11.8268 11.9705 11.9723C11.9705 12.043 11.9622 12.1136 11.9455 12.1843C11.9331 12.2508 11.9185 12.3194 11.9019 12.3901C11.8894 12.4566 11.879 12.5252 11.8707 12.5958C11.8624 12.6624 11.8645 12.7289 11.877 12.7954C11.8312 12.8577 11.8042 12.9305 11.7959 13.0136C11.7917 13.0926 11.7897 13.1674 11.7897 13.2381C11.7481 13.2963 11.7169 13.3545 11.6961 13.4127C11.6753 13.4709 11.6587 13.5312 11.6462 13.5935C11.6379 13.6517 11.6296 13.712 11.6213 13.7744C11.613 13.8367 11.6026 13.8991 11.5901 13.9614C11.5818 13.9822 11.5673 14.0072 11.5465 14.0363C11.5298 14.0654 11.5215 14.0862 11.5215 14.0986C11.5215 14.1277 11.5298 14.1568 11.5465 14.1859C11.5382 14.1984 11.5298 14.2088 11.5215 14.2171C11.5132 14.2213 11.507 14.2317 11.5028 14.2483C11.4903 14.294 11.48 14.3439 11.4716 14.3979C11.4675 14.4478 11.4592 14.4956 11.4467 14.5414C11.4259 14.6453 11.3968 14.7471 11.3594 14.8469C11.3261 14.9467 11.2908 15.0464 11.2534 15.1462C11.2534 15.2294 11.2492 15.2959 11.2409 15.3457C11.2368 15.3956 11.2285 15.4414 11.216 15.4829C11.2077 15.5203 11.1952 15.5619 11.1786 15.6076C11.1661 15.6492 11.1536 15.7033 11.1412 15.7698C11.1287 15.8321 11.1162 15.909 11.1037 16.0005C11.0954 16.0919 11.085 16.1876 11.0726 16.2873C11.0642 16.3829 11.058 16.4786 11.0539 16.5742C11.0497 16.6656 11.0476 16.7446 11.0476 16.8111C11.0476 16.9317 11.058 17.0481 11.0788 17.1603C11.1037 17.2767 11.1453 17.3869 11.2035 17.4908H11.3095C11.3345 17.4908 11.3615 17.4908 11.3906 17.4908C11.4197 17.495 11.4467 17.5033 11.4716 17.5157C11.5007 17.5074 11.5153 17.495 11.5153 17.4783C11.5153 17.4659 11.5153 17.4492 11.5153 17.4284C11.5153 17.416 11.5257 17.3993 11.5465 17.3786L11.5901 17.3848C11.6317 17.3848 11.6691 17.3786 11.7024 17.3661C11.7398 17.3536 11.7772 17.337 11.8146 17.3162C11.8936 17.2081 11.985 17.1167 12.089 17.0418C12.1971 16.967 12.2927 16.8797 12.3758 16.7799C12.3966 16.7467 12.4028 16.7072 12.3945 16.6615C12.4444 16.6531 12.4818 16.6344 12.5068 16.6053C12.5359 16.5762 12.5629 16.5451 12.5878 16.5118C12.6128 16.4786 12.6377 16.4474 12.6626 16.4183C12.6917 16.385 12.7292 16.3622 12.7749 16.3497C12.7957 16.3123 12.8144 16.2728 12.831 16.2312C12.8476 16.1855 12.8643 16.1418 12.8809 16.1003C12.9017 16.0587 12.9245 16.0213 12.9495 15.988C12.9786 15.9506 13.016 15.9215 13.0617 15.9007C13.1324 15.7427 13.1927 15.5806 13.2426 15.4143C13.2924 15.2439 13.3673 15.088 13.467 14.9467C13.467 14.8926 13.4691 14.8427 13.4733 14.797C13.4774 14.7513 13.4754 14.7035 13.467 14.6536C13.571 14.5123 13.6375 14.3647 13.6666 14.2109C13.6957 14.0571 13.7102 13.8949 13.7102 13.7245C13.7102 13.5832 13.756 13.4855 13.8474 13.4314C13.943 13.3774 14.0553 13.3504 14.1841 13.3504C14.2049 13.3504 14.2257 13.3504 14.2465 13.3504C14.2714 13.3504 14.2943 13.3524 14.3151 13.3566C14.3234 13.3857 14.3379 13.4086 14.3587 13.4252C14.3837 13.4377 14.4086 13.4522 14.4336 13.4688V13.5062C14.4336 13.5644 14.4252 13.6185 14.4086 13.6684C14.3961 13.7141 14.3899 13.764 14.3899 13.818C14.3899 13.843 14.3941 13.8762 14.4024 13.9178C14.444 14.0384 14.4751 14.1485 14.4959 14.2483C14.5209 14.3481 14.5333 14.4644 14.5333 14.5975C14.5333 14.7097 14.5271 14.824 14.5146 14.9404C14.5063 15.0527 14.4938 15.1649 14.4772 15.2772C14.5021 15.3229 14.5146 15.3707 14.5146 15.4206C14.5146 15.4538 14.5105 15.4892 14.5021 15.5266C14.498 15.5598 14.4959 15.5931 14.4959 15.6264C14.4959 15.697 14.5063 15.7677 14.5271 15.8384C14.552 15.9049 14.577 15.9714 14.6019 16.0379C14.631 16.1044 14.656 16.1709 14.6767 16.2374C14.6975 16.304 14.7058 16.3705 14.7017 16.437C14.7724 16.5243 14.8347 16.6137 14.8888 16.7051C14.947 16.8007 15.0176 16.8839 15.1008 16.9545C15.134 16.9629 15.161 16.967 15.1818 16.967C15.2068 16.967 15.2276 16.9629 15.2442 16.9545C15.2608 16.9504 15.2754 16.9441 15.2878 16.9358C15.3045 16.9317 15.3211 16.9275 15.3377 16.9234C15.3543 16.9234 15.3793 16.9254 15.4125 16.9296C15.4874 16.8756 15.556 16.8132 15.6183 16.7425C15.6807 16.676 15.7389 16.6074 15.7929 16.5368C15.8511 16.4661 15.9093 16.3933 15.9675 16.3185C16.0257 16.2437 16.086 16.173 16.1483 16.1065C16.2689 15.8072 16.3666 15.5079 16.4414 15.2086C16.5163 14.9093 16.562 14.5975 16.5786 14.2732C16.5786 14.2275 16.589 14.2046 16.6098 14.2046C16.6306 14.2046 16.6493 14.1901 16.6659 14.161V13.9864C16.6659 13.8534 16.6721 13.7203 16.6846 13.5873C16.7012 13.4543 16.7324 13.3233 16.7781 13.1945C16.7657 13.1446 16.7594 13.0947 16.7594 13.0448C16.7594 12.9367 16.7678 12.8328 16.7844 12.733C16.8052 12.6291 16.8156 12.5252 16.8156 12.4212C16.8156 12.3672 16.8093 12.3132 16.7969 12.2591C16.7885 12.2009 16.7678 12.149 16.7345 12.1032L16.7283 12.0658C16.7283 12.0409 16.7366 12.0201 16.7532 12.0035C16.774 11.9868 16.7885 11.9681 16.7969 11.9473C16.7761 11.8933 16.7678 11.8372 16.7719 11.779C16.7802 11.7208 16.7844 11.6626 16.7844 11.6044C16.7844 11.5711 16.7802 11.5358 16.7719 11.4984C16.7636 11.461 16.7428 11.4319 16.7096 11.4111C16.747 11.3695 16.774 11.3155 16.7906 11.249C16.8072 11.1824 16.8176 11.1118 16.8218 11.0369C16.8301 10.9621 16.8343 10.8894 16.8343 10.8187C16.8343 10.7439 16.8384 10.6815 16.8467 10.6316C16.8842 10.5901 16.9257 10.5547 16.9715 10.5256C17.0213 10.4924 17.0754 10.4757 17.1336 10.4757C17.2084 10.4757 17.2624 10.5028 17.2957 10.5568C17.329 10.6067 17.3539 10.669 17.3705 10.7439C17.3872 10.8145 17.3996 10.8873 17.4079 10.9621C17.4204 11.0369 17.4412 11.0972 17.4703 11.1429Z" fill="#222222"/>
<path d="M21.7542 12.6083V12.6333C21.7251 12.6416 21.7105 12.6624 21.7105 12.6956C21.6648 12.7164 21.617 12.733 21.5671 12.7455C21.5172 12.7538 21.4694 12.7684 21.4237 12.7891C21.3779 12.785 21.3301 12.7829 21.2803 12.7829C21.2345 12.7788 21.1888 12.7767 21.1431 12.7767C21.0184 12.7767 20.8936 12.7808 20.7689 12.7891C20.6442 12.7975 20.5195 12.7975 20.3948 12.7891C20.3366 12.8224 20.2722 12.8494 20.2015 12.8702C20.135 12.8868 20.0705 12.8952 20.0082 12.8952C19.9583 12.8952 19.9147 12.8889 19.8772 12.8764C19.7775 12.9263 19.6673 12.9679 19.5468 13.0012C19.4304 13.0344 19.3119 13.0677 19.1913 13.1009C19.0708 13.13 18.9544 13.1654 18.8421 13.2069C18.734 13.2443 18.6384 13.2984 18.5553 13.3691C18.547 13.4273 18.5407 13.4855 18.5366 13.5437C18.5324 13.5977 18.5304 13.6517 18.5304 13.7058C18.5304 13.764 18.5324 13.818 18.5366 13.8679C18.5449 13.9178 18.5595 13.9677 18.5802 14.0176C18.601 14.0259 18.6239 14.0321 18.6488 14.0363C18.6779 14.0404 18.7029 14.0425 18.7237 14.0425C18.7444 14.0425 18.7652 14.0404 18.786 14.0363C18.8068 14.028 18.8213 14.0134 18.8297 13.9926C18.892 13.9843 18.9544 13.9822 19.0167 13.9864C19.0791 13.9864 19.1414 13.9864 19.2038 13.9864C19.2662 13.9864 19.3264 13.9843 19.3846 13.9802C19.447 13.976 19.5073 13.9656 19.5655 13.949C19.632 13.9323 19.6964 13.922 19.7588 13.9178C19.8253 13.9136 19.8897 13.9095 19.9521 13.9053C20.0144 13.9012 20.0789 13.8949 20.1454 13.8866C20.2119 13.8741 20.2805 13.8513 20.3512 13.818C20.4052 13.8388 20.4592 13.8492 20.5133 13.8492C20.5715 13.8492 20.6276 13.8534 20.6816 13.8617C20.7107 13.8825 20.7336 13.9053 20.7502 13.9303C20.771 13.9552 20.7814 13.9843 20.7814 14.0176C20.7814 14.0758 20.7606 14.134 20.7191 14.1922C20.6775 14.2504 20.6442 14.3044 20.6193 14.3543H20.5507C20.4509 14.3543 20.3532 14.3688 20.2576 14.3979C20.1662 14.4229 20.0726 14.4541 19.977 14.4915C19.8856 14.5247 19.792 14.5559 19.6964 14.585C19.605 14.6099 19.5093 14.6224 19.4096 14.6224C19.3929 14.6224 19.3826 14.6328 19.3784 14.6536C19.3784 14.6702 19.3742 14.6827 19.3659 14.691C19.3451 14.6869 19.314 14.6848 19.2724 14.6848C19.1768 14.6848 19.0853 14.6952 18.998 14.716C18.9107 14.7367 18.8213 14.7471 18.7299 14.7471C18.705 14.7471 18.68 14.7471 18.6551 14.7471C18.6301 14.743 18.6052 14.7388 18.5802 14.7347C18.5595 14.7679 18.5324 14.7908 18.4992 14.8033C18.4659 14.8116 18.4347 14.8282 18.4056 14.8531C18.3932 14.8905 18.3849 14.9363 18.3807 14.9903C18.3807 15.0444 18.3786 15.1005 18.3745 15.1587C18.3745 15.2127 18.3703 15.2647 18.362 15.3146C18.3537 15.3645 18.337 15.4039 18.3121 15.433C18.3163 15.4538 18.3329 15.4621 18.362 15.458C18.3911 15.4497 18.4056 15.4621 18.4056 15.4954C18.4056 15.5328 18.4015 15.5723 18.3932 15.6139C18.3849 15.6555 18.3807 15.697 18.3807 15.7386C18.3807 15.8176 18.389 15.9049 18.4056 16.0005C18.4264 16.0919 18.4555 16.1772 18.4929 16.2561C18.5345 16.3351 18.5886 16.4016 18.6551 16.4557C18.7216 16.5056 18.8047 16.5305 18.9045 16.5305C18.971 16.5305 19.0334 16.518 19.0916 16.4931C19.1498 16.4682 19.1976 16.4266 19.235 16.3684L19.2662 16.3622C19.2828 16.3622 19.2973 16.3642 19.3098 16.3684C19.3264 16.3725 19.3431 16.3746 19.3597 16.3746C19.3846 16.3746 19.4158 16.3601 19.4532 16.331C19.4948 16.2977 19.5384 16.2603 19.5842 16.2187C19.6341 16.1772 19.6839 16.1377 19.7338 16.1003C19.7837 16.0587 19.8315 16.0296 19.8772 16.013C19.9063 15.9548 19.9334 15.8966 19.9583 15.8384C19.9874 15.7802 20.029 15.7344 20.083 15.7012V15.5203C20.1246 15.4746 20.1682 15.433 20.214 15.3956C20.2639 15.3582 20.3013 15.3104 20.3262 15.2522C20.347 15.2605 20.3657 15.2668 20.3823 15.2709C20.4031 15.2751 20.4239 15.2772 20.4447 15.2772C20.4655 15.2772 20.4863 15.2751 20.507 15.2709C20.532 15.2668 20.5548 15.2605 20.5756 15.2522C20.6089 15.2979 20.6338 15.3499 20.6505 15.4081C20.6712 15.4621 20.6962 15.5141 20.7253 15.564C20.6879 15.6388 20.6442 15.7282 20.5943 15.8321C20.5445 15.9361 20.4904 16.04 20.4322 16.1439C20.374 16.2478 20.3117 16.3476 20.2451 16.4432C20.1828 16.5347 20.1204 16.6053 20.0581 16.6552C20.0456 16.6677 20.0186 16.6822 19.977 16.6989C19.9313 16.7321 19.8897 16.7633 19.8523 16.7924C19.8149 16.8257 19.7796 16.8631 19.7463 16.9047C19.6257 16.9421 19.5093 16.992 19.3971 17.0543C19.289 17.1167 19.1809 17.1769 19.0729 17.2351C19.023 17.2227 18.9689 17.2164 18.9107 17.2164C18.8608 17.2164 18.811 17.2185 18.7611 17.2227C18.7112 17.231 18.6571 17.2351 18.5989 17.2351C18.5823 17.2144 18.5574 17.1998 18.5241 17.1915C18.495 17.1873 18.4846 17.1665 18.4929 17.1291C18.3516 17.1208 18.2373 17.0813 18.15 17.0107C18.0627 16.9441 17.9879 16.861 17.9255 16.7612C17.8673 16.6615 17.8195 16.5534 17.7821 16.437C17.7447 16.3206 17.7052 16.2083 17.6636 16.1003V16.0816C17.6636 16.0608 17.6719 16.0483 17.6885 16.0441C17.7052 16.04 17.7135 16.0275 17.7135 16.0067C17.7135 15.9984 17.7114 15.9922 17.7073 15.988C17.6948 15.9423 17.6844 15.9028 17.6761 15.8695C17.6678 15.8363 17.6636 15.7968 17.6636 15.7511C17.6636 15.6846 17.6678 15.6201 17.6761 15.5578C17.6844 15.4912 17.6885 15.4247 17.6885 15.3582C17.6885 15.2917 17.6802 15.2335 17.6636 15.1836C17.6802 15.1628 17.6948 15.1358 17.7073 15.1026C17.7156 15.0651 17.7218 15.0277 17.726 14.9903C17.7301 14.9529 17.7322 14.9155 17.7322 14.8781C17.7364 14.8407 17.7426 14.8074 17.7509 14.7783C17.7343 14.7326 17.7197 14.6931 17.7073 14.6598C17.6948 14.6224 17.6885 14.5788 17.6885 14.5289V14.4852C17.7301 14.4146 17.7655 14.3418 17.7946 14.267C17.8237 14.1922 17.8548 14.1153 17.8881 14.0363V14.0176C17.8881 13.897 17.8839 13.7765 17.8756 13.6559C17.8673 13.5353 17.8631 13.4148 17.8631 13.2942C17.8631 13.2527 17.8631 13.2132 17.8631 13.1758C17.8631 13.1342 17.8652 13.0947 17.8694 13.0573C17.9026 13.0407 17.9276 13.0178 17.9442 12.9887C17.9608 12.9596 17.9858 12.9367 18.019 12.9201H18.2248C18.2373 12.8993 18.2498 12.8785 18.2622 12.8577C18.2747 12.837 18.283 12.8141 18.2872 12.7891C18.3329 12.7767 18.3765 12.76 18.4181 12.7393C18.4638 12.7143 18.5054 12.6894 18.5428 12.6644C18.601 12.6312 18.653 12.6021 18.6987 12.5771C18.7486 12.548 18.7964 12.5252 18.8421 12.5085C18.892 12.4878 18.944 12.4711 18.998 12.4587C19.0521 12.4462 19.1144 12.4358 19.1851 12.4275C19.2183 12.4275 19.2391 12.4212 19.2474 12.4088C19.2599 12.3963 19.2765 12.3818 19.2973 12.3651C19.3472 12.3734 19.3971 12.3818 19.447 12.3901C19.4969 12.3942 19.5468 12.3963 19.5966 12.3963C19.6964 12.3963 19.7899 12.3776 19.8772 12.3402C20.002 12.3402 20.1246 12.3381 20.2451 12.3339C20.3699 12.3298 20.4946 12.3277 20.6193 12.3277C20.7274 12.3277 20.8354 12.3319 20.9435 12.3402C21.0516 12.3485 21.1576 12.363 21.2616 12.3838C21.299 12.3714 21.3405 12.3651 21.3863 12.3651C21.4361 12.3651 21.486 12.3714 21.5359 12.3838C21.59 12.3921 21.6419 12.3921 21.6918 12.3838C21.696 12.4296 21.7064 12.4691 21.723 12.5023C21.7438 12.5314 21.7542 12.5667 21.7542 12.6083Z" fill="#222222"/>
<path d="M65.1797 11.0087C65.1797 11.1542 65.1527 11.2955 65.0987 11.4327C65.0446 11.5657 65.0051 11.7029 64.9802 11.8443C64.8887 11.9648 64.8035 12.0895 64.7245 12.2184C64.6455 12.3473 64.5645 12.4761 64.4813 12.605C64.3982 12.7339 64.3109 12.8586 64.2194 12.9791C64.128 13.0955 64.0241 13.2015 63.9077 13.2972C63.9118 13.3013 63.9139 13.3096 63.9139 13.3221C63.9139 13.347 63.9014 13.3678 63.8765 13.3844C63.8557 13.3969 63.8495 13.4135 63.8578 13.4343C63.7538 13.5424 63.652 13.6484 63.5522 13.7523C63.4525 13.8563 63.361 13.9727 63.2779 14.1015C63.1864 14.1473 63.1116 14.2221 63.0534 14.326C63.0284 14.326 63.0097 14.3323 62.9973 14.3447C62.9848 14.353 62.9682 14.3614 62.9474 14.3697C62.8143 14.5318 62.6751 14.6856 62.5296 14.8311C62.3841 14.9766 62.2282 15.1096 62.0619 15.2302C61.9996 15.2759 61.9372 15.3175 61.8748 15.3549C61.8125 15.3923 61.7522 15.4318 61.694 15.4734C61.6566 15.4983 61.6192 15.5274 61.5818 15.5607C61.5485 15.5939 61.5132 15.6251 61.4758 15.6542C61.3552 15.7581 61.2367 15.8454 61.1203 15.9161C61.0039 15.9826 60.8668 16.0283 60.7088 16.0533C60.6963 16.099 60.6901 16.1489 60.6901 16.2029C60.6901 16.2528 60.6901 16.3027 60.6901 16.3526C60.6901 16.4025 60.688 16.4544 60.6838 16.5085C60.6797 16.5584 60.6651 16.6062 60.6402 16.6519V16.6706C60.6402 16.7122 60.6506 16.7517 60.6714 16.7891C60.6922 16.8307 60.7025 16.8722 60.7025 16.9138C60.7025 16.9429 60.688 16.9678 60.6589 16.9886H60.821C60.821 17.0468 60.8377 17.0967 60.8709 17.1383C60.9083 17.1799 60.927 17.211 60.927 17.2318C60.927 17.3025 60.9187 17.3794 60.9021 17.4625C60.8896 17.5498 60.848 17.608 60.7774 17.6371V17.6745C60.7774 17.7161 60.7732 17.7556 60.7649 17.793C60.7566 17.8346 60.7379 17.8741 60.7088 17.9115C60.6839 17.9115 60.6589 17.9115 60.634 17.9115C60.6132 17.9157 60.5924 17.9177 60.5716 17.9177C60.397 17.9177 60.2411 17.8762 60.1039 17.793C60.0582 17.6849 60.027 17.5727 60.0104 17.4563C59.9979 17.3441 59.9917 17.2297 59.9917 17.1133C59.9917 16.8847 60.0083 16.6581 60.0416 16.4337C60.0748 16.2092 60.1019 15.9847 60.1226 15.7602L60.2162 15.5794C60.2245 15.463 60.239 15.3466 60.2598 15.2302C60.2806 15.1096 60.3014 14.9912 60.3222 14.8748C60.343 14.7584 60.3596 14.642 60.3721 14.5256C60.3887 14.4092 60.3949 14.2928 60.3908 14.1764C60.424 14.1057 60.4469 14.0309 60.4594 13.9519C60.476 13.8729 60.4843 13.796 60.4843 13.7212C60.4843 13.6796 60.4822 13.638 60.4781 13.5965C60.4739 13.5549 60.4614 13.5154 60.4407 13.478C60.4656 13.4614 60.4822 13.4406 60.4905 13.4156C60.4989 13.3907 60.5113 13.3678 60.528 13.347C60.5404 13.1849 60.5508 13.0249 60.5591 12.8669C60.5674 12.7048 60.5716 12.5447 60.5716 12.3868C60.5716 12.2995 60.5695 12.2142 60.5654 12.1311C60.5612 12.0438 60.555 11.9565 60.5467 11.8692C60.5425 11.8359 60.5342 11.7964 60.5217 11.7507C60.5134 11.705 60.5092 11.6697 60.5092 11.6447C60.5092 11.6115 60.5113 11.5782 60.5155 11.5449C60.5196 11.5075 60.5217 11.4701 60.5217 11.4327C60.5217 11.3911 60.5176 11.3516 60.5092 11.3142C60.5009 11.2727 60.4864 11.2352 60.4656 11.202C60.2661 11.2602 60.0873 11.3392 59.9293 11.4389C59.7714 11.5346 59.6113 11.6426 59.4492 11.7632C59.3827 11.8089 59.3099 11.863 59.2309 11.9253C59.152 11.9877 59.0771 12.0355 59.0065 12.0687C58.994 12.077 58.9794 12.0833 58.9628 12.0874C58.942 12.0874 58.9254 12.0874 58.9129 12.0874C58.8672 12.0874 58.8256 12.0854 58.7882 12.0812C58.7508 12.0729 58.7134 12.0687 58.676 12.0687C58.6178 12.0105 58.5492 11.9648 58.4702 11.9316C58.4577 11.8817 58.4515 11.8276 58.4515 11.7694C58.4515 11.7112 58.4577 11.6551 58.4702 11.6011C58.4785 11.547 58.4931 11.493 58.5139 11.4389C58.5637 11.4223 58.6178 11.4036 58.676 11.3828C58.73 11.362 58.7841 11.3392 58.8381 11.3142C58.888 11.2851 58.9337 11.2539 58.9753 11.2207C59.0169 11.1833 59.0501 11.1376 59.0751 11.0835C59.1 11.096 59.1229 11.1022 59.1437 11.1022C59.1644 11.1022 59.1831 11.1001 59.1998 11.096C59.2164 11.0918 59.2351 11.0877 59.2559 11.0835C59.3307 11.0378 59.4055 10.99 59.4804 10.9401C59.5594 10.8902 59.6404 10.8486 59.7236 10.8154C59.7485 10.8071 59.7631 10.7967 59.7672 10.7842C59.7714 10.7717 59.7714 10.753 59.7672 10.7281C59.8628 10.699 59.9626 10.6657 60.0665 10.6283C60.1704 10.5867 60.2577 10.5306 60.3284 10.4599H60.4407C60.503 10.4142 60.5695 10.3768 60.6402 10.3477C60.7109 10.3186 60.7815 10.2916 60.8522 10.2666C60.927 10.2375 60.9998 10.2084 61.0705 10.1793C61.1411 10.1461 61.2076 10.1045 61.27 10.0546C61.2949 10.0463 61.3157 10.0422 61.3324 10.0422C61.3531 10.0422 61.376 10.0463 61.4009 10.0546C61.4425 10.0338 61.4778 10.0089 61.5069 9.97981C61.5402 9.94655 61.5735 9.91329 61.6067 9.88004C61.6732 9.88004 61.7335 9.8738 61.7876 9.86133C61.8416 9.84886 61.8936 9.83223 61.9434 9.81144C61.9933 9.79066 62.0411 9.7678 62.0869 9.74285C62.1367 9.71375 62.1908 9.68465 62.249 9.65555C62.2739 9.66387 62.2926 9.67426 62.3051 9.68673C62.3176 9.69505 62.3384 9.6992 62.3675 9.6992C62.409 9.6701 62.4527 9.64932 62.4984 9.63685C62.5483 9.62022 62.5982 9.60775 62.6481 9.59943C62.6979 9.59112 62.7458 9.58073 62.7915 9.56826C62.8414 9.55578 62.885 9.53292 62.9224 9.49966C63.0555 9.49966 63.1885 9.49759 63.3215 9.49343C63.4587 9.48511 63.5938 9.48096 63.7268 9.48096C63.9181 9.48096 64.1114 9.49551 64.3067 9.52461C64.5063 9.55371 64.685 9.62645 64.843 9.74285C64.9054 9.89251 64.9947 10.0193 65.1111 10.1232C65.1194 10.169 65.1278 10.2126 65.1361 10.2542C65.1485 10.2916 65.1631 10.329 65.1797 10.3664C65.1506 10.4288 65.1361 10.4974 65.1361 10.5722C65.1361 10.647 65.1423 10.7218 65.1548 10.7967C65.1714 10.8673 65.1797 10.938 65.1797 11.0087ZM64.5998 10.859C64.579 10.8216 64.5645 10.78 64.5562 10.7343C64.552 10.6844 64.552 10.6366 64.5562 10.5909C64.5021 10.5493 64.4605 10.4953 64.4314 10.4288C64.4023 10.3623 64.3608 10.3124 64.3067 10.2791C64.2693 10.2583 64.2153 10.2459 64.1446 10.2417C64.0781 10.2375 64.022 10.2292 63.9762 10.2168C63.9222 10.2001 63.8848 10.1835 63.864 10.1669C63.8474 10.1502 63.81 10.1419 63.7518 10.1419C63.7019 10.1419 63.652 10.1482 63.6021 10.1606C63.5522 10.169 63.5023 10.1731 63.4525 10.1731C63.4109 10.1731 63.3714 10.1648 63.334 10.1482C63.2966 10.1315 63.2571 10.1232 63.2155 10.1232C63.1698 10.1232 63.1261 10.1378 63.0846 10.1669C63.0471 10.196 63.0014 10.2043 62.9474 10.1918C62.9224 10.2126 62.9079 10.2292 62.9037 10.2417C62.9037 10.2542 62.9016 10.2646 62.8975 10.2729C62.8933 10.277 62.8829 10.2791 62.8663 10.2791C62.8538 10.2791 62.8247 10.2791 62.779 10.2791C62.6917 10.2791 62.6023 10.2916 62.5109 10.3165C62.4236 10.3415 62.3446 10.383 62.2739 10.4412C62.2615 10.4371 62.249 10.435 62.2365 10.435C62.2282 10.4308 62.2178 10.4288 62.2053 10.4288C62.1347 10.4288 62.0661 10.4496 61.9996 10.4911C61.9372 10.5285 61.8665 10.5472 61.7876 10.5472C61.7377 10.5971 61.6774 10.6366 61.6067 10.6657C61.536 10.6948 61.4633 10.7239 61.3885 10.753C61.3178 10.778 61.2513 10.8091 61.1889 10.8466C61.1266 10.8798 61.0788 10.9297 61.0455 10.9962C61.0414 11.0295 61.0518 11.0503 61.0767 11.0586C61.1016 11.0669 61.1141 11.0877 61.1141 11.1209C61.1141 11.15 61.1079 11.1854 61.0954 11.2269C61.0871 11.2685 61.0829 11.3101 61.0829 11.3516C61.0829 11.4473 61.0933 11.5408 61.1141 11.6322C61.1349 11.7237 61.1557 11.8172 61.1765 11.9128C61.1557 11.9253 61.1411 11.944 61.1328 11.969C61.1245 11.9939 61.1099 12.0126 61.0892 12.0251C61.1474 12.1997 61.1765 12.3784 61.1765 12.5613C61.1765 12.7068 61.1598 12.8503 61.1266 12.9916C61.0975 13.1288 61.0767 13.2701 61.0642 13.4156V13.4219C61.0642 13.4468 61.0725 13.4634 61.0892 13.4717C61.1058 13.4801 61.1141 13.4946 61.1141 13.5154C61.1141 13.5279 61.112 13.5383 61.1079 13.5466C61.0621 13.8293 61.0164 14.1119 60.9707 14.3946C60.9291 14.6773 60.8938 14.9621 60.8647 15.2489H60.9146C61.0226 15.2489 61.1183 15.2177 61.2014 15.1554C61.2887 15.0888 61.3614 15.0161 61.4196 14.9371H61.5194C61.8187 14.6752 62.1056 14.405 62.3799 14.1265C62.6585 13.848 62.9224 13.5487 63.1719 13.2286C63.2051 13.2286 63.228 13.2202 63.2404 13.2036C63.2529 13.187 63.2737 13.1745 63.3028 13.1662C63.3901 13.0456 63.4816 12.9272 63.5772 12.8108C63.6728 12.6902 63.7767 12.5759 63.8889 12.4678C63.8931 12.4262 63.9035 12.3888 63.9201 12.3556C63.9409 12.3223 63.9617 12.2911 63.9825 12.262C64.0033 12.2329 64.022 12.2018 64.0386 12.1685C64.0552 12.1352 64.0635 12.0958 64.0635 12.05C64.0843 12.0417 64.1072 12.0334 64.1321 12.0251C64.1571 12.0126 64.1799 11.996 64.2007 11.9752C64.209 11.9336 64.2236 11.8962 64.2444 11.863C64.2652 11.8297 64.2756 11.7923 64.2756 11.7507C64.2756 11.7341 64.2714 11.7133 64.2631 11.6884C64.3296 11.6593 64.3816 11.6115 64.419 11.5449C64.4564 11.4784 64.4855 11.4057 64.5063 11.3267C64.5271 11.2436 64.5416 11.1604 64.5499 11.0773C64.5624 10.9941 64.579 10.9214 64.5998 10.859Z" fill="#222222"/>
<path d="M66.1649 15.7976C66.1442 15.8309 66.1192 15.8621 66.0901 15.8912C66.061 15.9161 66.034 15.9431 66.0091 15.9722C65.98 15.9847 65.9467 15.9909 65.9093 15.9909C65.876 15.9909 65.8428 15.9909 65.8095 15.9909C65.7804 15.9868 65.7513 15.9868 65.7222 15.9909C65.6973 15.9909 65.6765 15.9992 65.6599 16.0159C65.6266 16.0076 65.6017 15.993 65.585 15.9722C65.5684 15.9473 65.5393 15.9327 65.4977 15.9286C65.4811 15.9244 65.4645 15.9244 65.4478 15.9286C65.3855 15.8579 65.3273 15.7831 65.2733 15.7041C65.2234 15.6251 65.1756 15.5503 65.1298 15.4796C65.1257 15.3258 65.1132 15.1699 65.0924 15.0119C65.0883 14.9745 65.082 14.9371 65.0737 14.8997C65.0654 14.8623 65.0592 14.827 65.055 14.7937C65.055 14.7521 65.0571 14.7126 65.0612 14.6752C65.0696 14.6336 65.0758 14.5962 65.08 14.563C65.0966 14.4424 65.1153 14.3239 65.1361 14.2075C65.1569 14.0912 65.1756 13.9727 65.1922 13.8521C65.2088 13.744 65.2171 13.6318 65.2171 13.5154C65.2171 13.3948 65.1984 13.2826 65.161 13.1787L65.1548 13.1475C65.1631 13.1142 65.1714 13.0872 65.1797 13.0664C65.1922 13.0415 65.2005 13.0145 65.2047 12.9854C65.213 12.9396 65.2026 12.9064 65.1735 12.8856C65.186 12.8523 65.2067 12.8316 65.2358 12.8232C65.2649 12.8108 65.2816 12.7858 65.2857 12.7484C65.2899 12.7318 65.2899 12.7152 65.2857 12.6985C65.319 12.6861 65.3522 12.6757 65.3855 12.6674C65.4229 12.6549 65.4582 12.6528 65.4915 12.6611C65.5455 12.6694 65.5933 12.6881 65.6349 12.7172C65.6765 12.7422 65.716 12.7713 65.7534 12.8045C65.8199 13.0041 65.8469 13.2161 65.8345 13.4406C65.822 13.6609 65.8012 13.8833 65.7721 14.1078C65.743 14.3323 65.7243 14.5526 65.716 14.7688C65.7077 14.9808 65.7409 15.1782 65.8158 15.3611L65.8282 15.3674C65.849 15.3715 65.8656 15.3653 65.8781 15.3487C65.8906 15.3279 65.9072 15.3196 65.928 15.3237C65.9446 15.332 65.955 15.3362 65.9592 15.3362C65.9758 15.4193 66.0028 15.4983 66.0402 15.5731C66.0776 15.648 66.1192 15.7228 66.1649 15.7976Z" fill="#222222"/>
<path d="M71.3966 16.1967C71.3842 16.2549 71.3571 16.3027 71.3156 16.3401C71.2781 16.3734 71.2324 16.4004 71.1784 16.4212C71.1243 16.442 71.0682 16.4565 71.01 16.4648C70.956 16.469 70.9061 16.4711 70.8604 16.4711C70.8396 16.4711 70.8188 16.4711 70.798 16.4711C70.7814 16.4669 70.7627 16.4648 70.7419 16.4648C70.7211 16.4648 70.7107 16.4752 70.7107 16.496C70.7107 16.5168 70.7003 16.5314 70.6795 16.5397C70.6587 16.5314 70.638 16.5251 70.6172 16.521C70.5964 16.5168 70.5756 16.5147 70.5548 16.5147C70.5257 16.5147 70.4966 16.5168 70.4675 16.521C70.4426 16.5251 70.4176 16.5272 70.3927 16.5272C70.3594 16.5272 70.3345 16.523 70.3179 16.5147C70.3054 16.5064 70.2929 16.4981 70.2805 16.4898C70.2721 16.4773 70.2617 16.4648 70.2493 16.4524C70.241 16.4399 70.2264 16.4295 70.2056 16.4212C70.1765 16.4087 70.1516 16.4066 70.1308 16.415C70.1142 16.4233 70.0871 16.4108 70.0497 16.3775C69.9999 16.336 69.9562 16.2861 69.9188 16.2279C69.8855 16.1655 69.8523 16.1011 69.819 16.0346C69.7858 15.9681 69.7504 15.9016 69.713 15.835C69.6756 15.7685 69.632 15.7103 69.5821 15.6604H69.5322C69.4573 15.6604 69.4054 15.6916 69.3763 15.754C69.3555 15.7415 69.3347 15.727 69.3139 15.7103C69.2931 15.6895 69.2703 15.6729 69.2453 15.6604C69.1497 15.6895 69.05 15.7145 68.946 15.7353C68.8421 15.7561 68.7382 15.7665 68.6343 15.7665C68.6052 15.7665 68.576 15.7665 68.5469 15.7665C68.522 15.7665 68.495 15.7623 68.4659 15.754C68.4243 15.7706 68.3869 15.7914 68.3536 15.8163C68.3204 15.8371 68.283 15.8475 68.2414 15.8475C68.2165 15.8475 68.1874 15.8392 68.1541 15.8226C68.1292 15.8226 68.1167 15.833 68.1167 15.8537C68.1209 15.8745 68.1084 15.8849 68.0793 15.8849H68.0232C67.965 15.8849 67.9068 15.887 67.8486 15.8912C67.7945 15.8953 67.7384 15.8974 67.6802 15.8974C67.6012 15.8974 67.5202 15.887 67.437 15.8662C67.4162 15.8787 67.3934 15.8849 67.3684 15.8849C67.3518 15.8932 67.3393 15.9078 67.331 15.9286C67.3227 15.9452 67.3144 15.9618 67.3061 15.9785C67.2977 15.9909 67.2853 16.0034 67.2687 16.0159C67.2562 16.0242 67.2375 16.0263 67.2125 16.0221C67.2042 16.072 67.1834 16.1115 67.1502 16.1406C67.1169 16.1697 67.1003 16.2133 67.1003 16.2715C67.0546 16.2965 67.0172 16.3277 66.9881 16.3651C66.959 16.4025 66.9299 16.442 66.9008 16.4835C66.8717 16.5251 66.8405 16.5646 66.8072 16.602C66.7781 16.6394 66.7407 16.6685 66.695 16.6893C66.6742 16.7143 66.668 16.7538 66.6763 16.8078C66.6305 16.8452 66.5744 16.8785 66.5079 16.9076C66.4414 16.9367 66.379 16.9512 66.3208 16.9512C66.2003 16.9512 66.1171 16.8868 66.0714 16.7579C66.0714 16.7163 66.0756 16.6727 66.0839 16.627C66.088 16.5771 66.0964 16.5314 66.1088 16.4898C66.1213 16.4441 66.14 16.4046 66.1649 16.3713C66.1899 16.3339 66.2252 16.3069 66.271 16.2902C66.271 16.2528 66.2585 16.2279 66.2335 16.2154C66.2086 16.1988 66.1982 16.1718 66.2024 16.1344C66.3146 16.0803 66.4123 16.0096 66.4954 15.9223C66.5786 15.835 66.6534 15.7436 66.7199 15.648C66.7906 15.5482 66.8613 15.4484 66.9319 15.3487C67.0026 15.2489 67.0816 15.1595 67.1689 15.0805V14.9496C67.2936 14.8166 67.3747 14.6669 67.4121 14.5006C67.4578 14.4923 67.4869 14.4715 67.4994 14.4383C67.516 14.405 67.5243 14.3655 67.5243 14.3198C67.5451 14.3198 67.5576 14.3115 67.5617 14.2948C67.57 14.2741 67.5888 14.2678 67.6178 14.2761C67.6553 14.1764 67.6968 14.0849 67.7426 14.0018C67.7883 13.9186 67.834 13.8355 67.8797 13.7523C67.9255 13.6651 67.965 13.5757 67.9982 13.4842C68.0356 13.3928 68.0627 13.2909 68.0793 13.1787C68.1375 13.1745 68.1687 13.1475 68.1728 13.0976C68.1811 13.0436 68.1894 12.9958 68.1978 12.9542C68.2601 12.896 68.3058 12.8274 68.3349 12.7484C68.3682 12.6694 68.3973 12.5884 68.4222 12.5052C68.4472 12.4179 68.4742 12.3327 68.5033 12.2496C68.5366 12.1623 68.5823 12.0854 68.6405 12.0189V12.0001C68.6405 11.9794 68.6322 11.9669 68.6155 11.9627C68.5989 11.9544 68.5906 11.9399 68.5906 11.9191C68.5948 11.9149 68.5968 11.9108 68.5968 11.9066C68.6467 11.8858 68.6841 11.8526 68.7091 11.8068C68.734 11.757 68.7714 11.7216 68.8213 11.7008C68.9086 11.7715 68.9855 11.8152 69.052 11.8318C69.1186 11.8443 69.2058 11.8546 69.3139 11.863C69.368 11.9212 69.3971 11.9918 69.4012 12.075C69.4095 12.154 69.4241 12.2329 69.4449 12.3119C69.4781 12.445 69.5135 12.5759 69.5509 12.7048C69.5925 12.8295 69.6236 12.9583 69.6444 13.0914C69.6569 13.1704 69.6798 13.2452 69.713 13.3159C69.7463 13.3865 69.7691 13.4593 69.7816 13.5341C69.7899 13.5923 69.7899 13.6588 69.7816 13.7336C69.7733 13.8043 69.7816 13.8667 69.8065 13.9207L69.8502 14.0205C69.871 14.0662 69.8876 14.114 69.9001 14.1639C69.9167 14.2138 69.9313 14.2637 69.9437 14.3136C69.977 14.4383 70.0061 14.5734 70.031 14.7189C70.0601 14.8602 70.1038 14.9891 70.162 15.1055C70.1828 15.147 70.2139 15.1761 70.2555 15.1928C70.3012 15.2094 70.3511 15.2219 70.4052 15.2302C70.4592 15.2343 70.5112 15.2364 70.5611 15.2364C70.6151 15.2323 70.6608 15.2302 70.6982 15.2302C70.719 15.2302 70.7398 15.2302 70.7606 15.2302C70.7855 15.2302 70.8105 15.2343 70.8354 15.2427C70.8521 15.2759 70.8604 15.305 70.8604 15.33C70.8604 15.3798 70.8437 15.4193 70.8105 15.4484C70.7772 15.4775 70.7606 15.5108 70.7606 15.5482C70.7606 15.569 70.7689 15.5919 70.7855 15.6168C70.7689 15.6126 70.744 15.6106 70.7107 15.6106C70.6151 15.6106 70.5216 15.6272 70.4301 15.6604C70.4634 15.7311 70.507 15.7914 70.5611 15.8413C70.6193 15.887 70.6795 15.9307 70.7419 15.9722C70.7835 15.939 70.8271 15.9223 70.8728 15.9223C70.9227 15.9223 70.9684 15.9348 71.01 15.9598C71.0557 15.9805 71.1036 15.9909 71.1534 15.9909C71.1909 15.9909 71.2179 15.9847 71.2345 15.9722C71.2678 16.0096 71.2948 16.0491 71.3156 16.0907C71.3363 16.1281 71.3634 16.1635 71.3966 16.1967ZM69.4449 15.199C69.4366 15.1283 69.422 15.0785 69.4012 15.0494C69.3846 15.0161 69.3701 14.9766 69.3576 14.9309C69.341 14.8727 69.3285 14.8103 69.3202 14.7438C69.316 14.6773 69.3077 14.6129 69.2952 14.5505C69.2661 14.4092 69.2329 14.2678 69.1955 14.1265C69.1622 13.9851 69.1186 13.848 69.0645 13.7149C69.0811 13.69 69.0894 13.6671 69.0894 13.6463V13.6276C69.052 13.5861 69.025 13.5362 69.0084 13.478C68.9918 13.4156 68.9751 13.3553 68.9585 13.2972C68.946 13.2348 68.9273 13.1787 68.9024 13.1288C68.8816 13.0747 68.8463 13.0311 68.7964 12.9978C68.7839 13.0228 68.7777 13.0519 68.7777 13.0851C68.7777 13.1142 68.7797 13.1413 68.7839 13.1662C68.7922 13.1911 68.7964 13.2182 68.7964 13.2473C68.7548 13.2681 68.7236 13.3013 68.7028 13.347C68.6862 13.3886 68.6571 13.4219 68.6155 13.4468C68.5823 13.5798 68.5345 13.7066 68.4721 13.8272C68.4098 13.9436 68.3433 14.06 68.2726 14.1764C68.2061 14.2928 68.1416 14.4112 68.0793 14.5318C68.0169 14.6482 67.967 14.7708 67.9296 14.8997C67.8756 14.9371 67.8382 14.9849 67.8174 15.0431C67.8008 15.1013 67.7924 15.1595 67.7924 15.2177C67.8299 15.2385 67.8714 15.251 67.9172 15.2551C67.967 15.2551 68.0148 15.2551 68.0606 15.2551C68.1063 15.2551 68.1499 15.2593 68.1915 15.2676C68.2331 15.2759 68.2705 15.2967 68.3038 15.33C68.3578 15.3133 68.416 15.3029 68.4784 15.2988C68.5449 15.2905 68.5989 15.2718 68.6405 15.2427C68.7236 15.2718 68.813 15.2863 68.9086 15.2863C68.9585 15.2863 69.0063 15.2822 69.052 15.2738C69.1019 15.2655 69.1497 15.2551 69.1955 15.2427C69.2329 15.251 69.262 15.2655 69.2828 15.2863C69.3035 15.3029 69.3347 15.3092 69.3763 15.305C69.3971 15.2884 69.4095 15.2718 69.4137 15.2551C69.4179 15.2343 69.4283 15.2156 69.4449 15.199Z" fill="#222222"/>
<path d="M75.4498 12.5551C75.4415 12.605 75.429 12.6486 75.4124 12.6861C75.3999 12.7193 75.3978 12.765 75.4061 12.8232C75.3645 12.8274 75.3313 12.842 75.3064 12.8669C75.2856 12.8877 75.2669 12.9126 75.2502 12.9417C75.2378 12.9708 75.2232 13.002 75.2066 13.0353C75.1941 13.0644 75.1775 13.0914 75.1567 13.1163C75.19 13.266 75.2087 13.4177 75.2128 13.5715C75.217 13.7253 75.2274 13.8771 75.244 14.0267C75.2648 14.2179 75.296 14.4071 75.3375 14.5942C75.3833 14.7771 75.4061 14.9641 75.4061 15.1554C75.4061 15.2136 75.404 15.2676 75.3999 15.3175C75.3999 15.3674 75.3999 15.4193 75.3999 15.4734C75.3999 15.5066 75.3999 15.542 75.3999 15.5794C75.404 15.6126 75.4061 15.6459 75.4061 15.6792C75.4061 15.7997 75.3895 15.9203 75.3562 16.0408C75.3271 16.1614 75.3043 16.2819 75.2876 16.4025C75.2378 16.4482 75.1941 16.4981 75.1567 16.5521C75.1234 16.6062 75.0881 16.6561 75.0507 16.7018C75.0133 16.7475 74.9696 16.787 74.9197 16.8203C74.8699 16.8577 74.8075 16.8826 74.7327 16.8951C74.7202 16.9367 74.6953 16.9678 74.6578 16.9886C74.6246 17.0094 74.5955 17.0385 74.5706 17.0759H74.5581C74.4541 17.0759 74.3648 17.0614 74.2899 17.0323C74.2151 17.0032 74.1444 16.9699 74.0779 16.9325C74.0156 16.8951 73.9511 16.8556 73.8846 16.814C73.8181 16.7725 73.7412 16.7392 73.6539 16.7143C73.5375 16.6187 73.4315 16.5147 73.3359 16.4025C73.2403 16.2861 73.1322 16.1822 73.0116 16.0907C72.9825 16.0076 72.9431 15.939 72.8932 15.8849C72.8474 15.8309 72.8017 15.7685 72.756 15.6979C72.7352 15.6688 72.7186 15.6417 72.7061 15.6168C72.6978 15.5919 72.6853 15.5628 72.6687 15.5295C72.6562 15.4962 72.6354 15.4734 72.6063 15.4609C72.5814 15.4484 72.5585 15.4339 72.5377 15.4173C72.5045 15.2884 72.4567 15.1699 72.3943 15.0618C72.332 14.9537 72.2592 14.8498 72.1761 14.75C72.1511 14.7958 72.1303 14.8457 72.1137 14.8997C72.1012 14.9496 72.0888 15.0016 72.0763 15.0556C72.0638 15.1055 72.0472 15.1574 72.0264 15.2115C72.0098 15.2614 71.9869 15.3071 71.9578 15.3487V15.3674C71.9578 15.3882 71.9661 15.4006 71.9828 15.4048C71.9994 15.4089 72.0077 15.4214 72.0077 15.4422C72.0077 15.4464 72.0056 15.4505 72.0015 15.4547C72.0015 15.4588 72.0015 15.463 72.0015 15.4671C71.9807 15.4838 71.9641 15.5046 71.9516 15.5295C71.9433 15.5544 71.9225 15.569 71.8892 15.5731C71.8934 15.5939 71.8955 15.6147 71.8955 15.6355C71.8955 15.6521 71.8955 15.6708 71.8955 15.6916C71.8955 15.8122 71.8809 15.9327 71.8518 16.0533C71.8269 16.1738 71.8144 16.2965 71.8144 16.4212C71.8144 16.4461 71.8144 16.4732 71.8144 16.5023C71.8144 16.5314 71.8165 16.5584 71.8206 16.5833C71.829 16.6083 71.8414 16.6332 71.8581 16.6581C71.8747 16.6831 71.883 16.706 71.883 16.7267C71.883 16.7558 71.8705 16.7829 71.8456 16.8078C71.8747 16.8286 71.9079 16.8514 71.9454 16.8764C71.9828 16.9013 72.016 16.9284 72.0451 16.9575C72.0784 16.9907 72.1054 17.024 72.1262 17.0572C72.147 17.0946 72.1574 17.1341 72.1574 17.1757C72.1574 17.2464 72.1345 17.2963 72.0888 17.3254C72.0431 17.3545 71.9869 17.3773 71.9204 17.3939C71.8581 17.4106 71.7915 17.4251 71.7209 17.4376C71.6544 17.4542 71.5982 17.4812 71.5525 17.5187H71.5338C71.4839 17.5187 71.4465 17.5041 71.4216 17.475C71.3966 17.4459 71.3592 17.4314 71.3093 17.4314C71.2303 17.3025 71.1763 17.157 71.1472 16.9949C71.1181 16.8369 71.1035 16.6852 71.1035 16.5397C71.1035 16.3609 71.1202 16.1822 71.1534 16.0034C71.1825 15.8247 71.2199 15.648 71.2657 15.4734C71.3072 15.2988 71.353 15.1263 71.4029 14.9558C71.4569 14.7812 71.5068 14.6066 71.5525 14.432C71.5525 14.4279 71.5525 14.4258 71.5525 14.4258C71.5567 14.4216 71.5587 14.4175 71.5587 14.4133C71.5587 14.3925 71.5525 14.378 71.54 14.3697C71.5317 14.3614 71.5276 14.3489 71.5276 14.3323C71.5276 14.3239 71.5297 14.3198 71.5338 14.3198C71.5463 14.2782 71.5588 14.2387 71.5712 14.2013C71.5879 14.1639 71.6003 14.1223 71.6086 14.0766C71.6336 13.9602 71.6502 13.8417 71.6585 13.7212C71.671 13.5965 71.6772 13.4738 71.6772 13.3533C71.6814 13.2327 71.6855 13.1122 71.6897 12.9916C71.698 12.8669 71.7126 12.7443 71.7333 12.6237C71.7666 12.5904 71.7978 12.5551 71.8269 12.5177C71.856 12.4803 71.8934 12.447 71.9391 12.4179C72.0223 12.4221 72.1054 12.4346 72.1885 12.4553C72.2717 12.4761 72.3507 12.5094 72.4255 12.5551C72.4754 12.7339 72.5086 12.9126 72.5253 13.0914C72.5461 13.2701 72.5793 13.4489 72.625 13.6276V13.6463C72.625 13.6671 72.6354 13.6775 72.6562 13.6775C72.6812 13.6734 72.6999 13.6796 72.7123 13.6962C72.704 13.7087 72.6978 13.7233 72.6936 13.7399C72.6936 13.7565 72.6936 13.7731 72.6936 13.7898V13.8958C72.7019 13.929 72.7123 13.9644 72.7248 14.0018C72.7373 14.0392 72.7643 14.0621 72.8059 14.0704C72.8267 14.2034 72.8578 14.326 72.8994 14.4383C72.941 14.5505 72.9888 14.6586 73.0428 14.7625C73.0969 14.8664 73.1551 14.9704 73.2174 15.0743C73.2798 15.1741 73.3442 15.2801 73.4107 15.3923C73.5147 15.4713 73.604 15.5628 73.6789 15.6667C73.7537 15.7665 73.8285 15.8641 73.9033 15.9598C73.9823 16.0512 74.0696 16.1323 74.1652 16.2029C74.265 16.2736 74.3939 16.3173 74.5518 16.3339C74.5726 16.3173 74.5872 16.2944 74.5955 16.2653C74.608 16.2362 74.6184 16.2071 74.6267 16.178C74.6391 16.1489 74.6516 16.124 74.6641 16.1032C74.6807 16.0782 74.7036 16.0595 74.7327 16.0471C74.741 15.9307 74.7493 15.8122 74.7576 15.6916C74.7701 15.5711 74.7971 15.4567 74.8387 15.3487C74.8179 15.3113 74.8075 15.2655 74.8075 15.2115C74.8075 15.1699 74.8096 15.1304 74.8137 15.093C74.822 15.0556 74.8262 15.0182 74.8262 14.9808C74.8262 14.9018 74.8096 14.8373 74.7763 14.7875C74.7763 14.7584 74.7784 14.7293 74.7826 14.7002C74.7867 14.6669 74.7992 14.6357 74.82 14.6066C74.7867 14.5235 74.7597 14.4362 74.7389 14.3447C74.7223 14.2533 74.714 14.1597 74.714 14.0641C74.714 14.0101 74.7202 13.954 74.7327 13.8958C74.7077 13.8334 74.6911 13.7607 74.6828 13.6775C74.6745 13.5902 74.6662 13.505 74.6578 13.4219C74.6495 13.3346 74.6371 13.2535 74.6204 13.1787C74.6038 13.1038 74.5726 13.0436 74.5269 12.9978C74.5518 12.9604 74.5643 12.9168 74.5643 12.8669C74.5643 12.7838 74.5518 12.7048 74.5269 12.6299C74.502 12.5551 74.4895 12.4761 74.4895 12.393C74.4895 12.3348 74.502 12.2766 74.5269 12.2184C74.6184 12.2225 74.7077 12.2329 74.795 12.2496C74.8865 12.262 74.9759 12.2683 75.0632 12.2683C75.0881 12.3015 75.1172 12.3286 75.1505 12.3493C75.1837 12.3701 75.2191 12.3909 75.2565 12.4117C75.2939 12.4283 75.3292 12.447 75.3625 12.4678C75.3999 12.4886 75.429 12.5177 75.4498 12.5551Z" fill="#222222"/>
<path d="M80.0205 13.0415C79.9955 13.0789 79.981 13.1205 79.9768 13.1662C79.9727 13.2119 79.9706 13.2535 79.9706 13.2909C79.9706 13.3408 79.9706 13.3907 79.9706 13.4406C79.9747 13.4863 79.9768 13.532 79.9768 13.5778V13.6713C79.9685 13.7004 79.956 13.7295 79.9394 13.7586C79.9228 13.7877 79.9103 13.8168 79.902 13.8459C79.8438 13.9997 79.8147 14.1535 79.8147 14.3073V14.3198C79.7939 14.3697 79.7731 14.4154 79.7523 14.457C79.7357 14.4985 79.7191 14.5401 79.7025 14.5817C79.6858 14.6191 79.6734 14.6607 79.665 14.7064C79.6567 14.748 79.6546 14.7979 79.6588 14.8561C79.6006 15.0015 79.5237 15.1346 79.4281 15.2551C79.3325 15.3715 79.2389 15.4921 79.1475 15.6168C79.0602 15.6501 78.9791 15.6937 78.9043 15.7477C78.8336 15.8018 78.765 15.8621 78.6985 15.9286C78.5697 15.9701 78.4429 16.018 78.3182 16.072C78.1934 16.126 78.0812 16.1988 77.9814 16.2902C77.9024 16.2986 77.8235 16.311 77.7445 16.3277C77.6655 16.3443 77.5886 16.3692 77.5138 16.4025H77.4389C77.4015 16.4025 77.3745 16.3942 77.3579 16.3775C77.3038 16.4066 77.2477 16.4274 77.1895 16.4399C77.1313 16.4482 77.0731 16.4524 77.0149 16.4524C76.9401 16.4524 76.8653 16.4482 76.7904 16.4399C76.7198 16.4274 76.647 16.415 76.5722 16.4025C76.5306 16.3443 76.4724 16.3006 76.3976 16.2715C76.3228 16.2383 76.2562 16.2071 76.198 16.178C76.0775 16.0117 75.9902 15.8517 75.9362 15.6979C75.8821 15.5399 75.826 15.3632 75.7678 15.1678C75.7761 15.1096 75.7906 15.0535 75.8114 14.9995C75.8322 14.9413 75.8405 14.8789 75.8364 14.8124C75.9112 14.5962 76.0089 14.4009 76.1294 14.2263C76.2542 14.0475 76.3955 13.8771 76.5535 13.7149C76.5535 13.69 76.5576 13.6692 76.5659 13.6526C76.5784 13.636 76.5805 13.611 76.5722 13.5778C76.5763 13.5819 76.5847 13.584 76.5971 13.584C76.6304 13.584 76.6512 13.5757 76.6595 13.559C76.6678 13.5383 76.6699 13.5154 76.6657 13.4905C76.8154 13.3948 76.9505 13.2847 77.071 13.16C77.1957 13.0353 77.3371 12.9313 77.4951 12.8482C77.5075 12.8108 77.5283 12.7796 77.5574 12.7547C77.5865 12.7297 77.6094 12.7006 77.626 12.6674C77.759 12.6299 77.8796 12.5738 77.9877 12.499C78.0957 12.4242 78.2101 12.3577 78.3306 12.2995C78.3971 12.262 78.4595 12.2371 78.5177 12.2246C78.58 12.208 78.6466 12.1914 78.7172 12.1747C78.7422 12.1664 78.765 12.1602 78.7858 12.156C78.8066 12.1519 78.8295 12.1498 78.8544 12.1498C78.9292 12.1498 79.002 12.1643 79.0727 12.1934C79.1433 12.2184 79.2161 12.2309 79.2909 12.2309C79.3117 12.2309 79.3283 12.2309 79.3408 12.2309C79.3574 12.2267 79.374 12.2225 79.3907 12.2184C79.4613 12.3057 79.5507 12.3722 79.6588 12.4179C79.6837 12.4803 79.7129 12.5343 79.7461 12.5801C79.7835 12.6258 79.8209 12.6715 79.8583 12.7172C79.8958 12.7588 79.929 12.8066 79.9581 12.8607C79.9914 12.9105 80.0122 12.9708 80.0205 13.0415ZM79.3969 13.3657C79.3969 13.345 79.3948 13.3262 79.3907 13.3096C79.3491 13.2972 79.3096 13.2805 79.2722 13.2597C79.2348 13.239 79.1932 13.2286 79.1475 13.2286C79.1184 13.2286 79.0893 13.2348 79.0602 13.2473C79.056 13.2182 79.0436 13.1974 79.0228 13.1849C79.0061 13.1724 78.9854 13.162 78.9604 13.1537C78.9396 13.1413 78.9168 13.1329 78.8918 13.1288C78.871 13.1205 78.8523 13.108 78.8357 13.0914C78.8232 13.0581 78.8087 13.0249 78.7921 12.9916C78.7796 12.9542 78.7546 12.9272 78.7172 12.9105C78.6798 12.948 78.6362 12.9791 78.5863 13.0041C78.5364 13.0249 78.4844 13.0456 78.4304 13.0664C78.3805 13.0872 78.3306 13.1122 78.2807 13.1413C78.235 13.1704 78.1955 13.2057 78.1623 13.2473H78.05C78.0251 13.293 77.9897 13.3283 77.944 13.3533C77.8983 13.3741 77.8588 13.4052 77.8255 13.4468C77.759 13.4801 77.6967 13.5216 77.6385 13.5715C77.5844 13.6172 77.5304 13.6671 77.4763 13.7212C77.4223 13.7711 77.3683 13.823 77.3142 13.8771C77.2643 13.9311 77.2103 13.981 77.1521 14.0267C77.098 14.1431 77.0378 14.245 76.9713 14.3323C76.9089 14.4154 76.8486 14.5006 76.7904 14.5879C76.7364 14.6752 76.6886 14.7708 76.647 14.8748C76.6096 14.9745 76.5909 15.0992 76.5909 15.2489C76.5909 15.2697 76.5909 15.2905 76.5909 15.3113C76.5909 15.332 76.593 15.3528 76.5971 15.3736C76.6512 15.4318 76.6948 15.4942 76.7281 15.5607C76.7655 15.6272 76.8258 15.675 76.9089 15.7041C76.992 15.7374 77.0793 15.7519 77.1708 15.7477C77.2664 15.7436 77.3579 15.754 77.4452 15.7789C77.6447 15.7415 77.8359 15.6812 78.0188 15.5981C78.2059 15.5108 78.3826 15.4069 78.5489 15.2863C78.5738 15.2655 78.6029 15.2447 78.6362 15.224C78.6694 15.199 78.6964 15.1741 78.7172 15.1491C78.738 15.1283 78.7546 15.1055 78.7671 15.0805C78.7837 15.0556 78.8004 15.0327 78.817 15.0119C78.8503 14.9579 78.8877 14.9039 78.9292 14.8498C78.9708 14.7958 79.0145 14.7459 79.0602 14.7002C79.081 14.6087 79.108 14.5214 79.1412 14.4383C79.1745 14.351 79.2078 14.2657 79.241 14.1826C79.2743 14.0995 79.3013 14.0142 79.3221 13.9269C79.347 13.8396 79.3595 13.7482 79.3595 13.6526C79.3595 13.6318 79.3574 13.6089 79.3533 13.584C79.3533 13.559 79.3512 13.5362 79.347 13.5154C79.3803 13.4697 79.3969 13.4198 79.3969 13.3657Z" fill="#222222"/>
<path d="M48.6691 0.954433C48.6691 0.61069 48.9478 0.332031 49.2915 0.332031H56.1572C56.5009 0.332031 56.7796 0.61069 56.7796 0.954433V16.304C56.7796 18.8453 56.2858 20.7139 55.2983 21.9098C54.213 23.1976 52.4384 23.8416 49.9744 23.8416H49.2915C48.9478 23.8416 48.6691 23.5629 48.6691 23.2192V0.954433ZM26.9043 0.954434C26.9043 0.61069 27.183 0.332031 27.5267 0.332031H34.3924C34.7361 0.332031 35.0148 0.61069 35.0148 0.954433V23.2192C35.0148 23.5629 34.7361 23.8416 34.3924 23.8416H33.7095C30.1016 23.8416 27.9505 22.4042 27.2563 19.5295C27.0216 18.5981 26.9043 17.5229 26.9043 16.304V0.954434ZM37.772 0.971681C37.772 0.627938 38.0507 0.34928 38.3944 0.34928H45.3041C45.6479 0.34928 45.9265 0.627939 45.9265 0.971682V23.2364C45.9265 23.5802 45.6479 23.8588 45.3041 23.8588H38.3944C38.0507 23.8588 37.772 23.5802 37.772 23.2364V0.971681Z" fill="#222222"/>
</svg>
