<svg width="175" height="175" viewBox="0 0 175 175" fill="none" xmlns="http://www.w3.org/2000/svg">
<rect width="175" height="175" rx="87.5" fill="white"/>
<path d="M119 69.5C119 97.1142 105.612 160.5 77.9981 160.5C50.3839 160.5 57 132.114 57 104.5C57 76.8858 50.3839 28.5 77.9981 28.5C105.612 28.5 119 41.8858 119 69.5Z" fill="#FFCA24"/>
<path d="M122 52.3193C122 79.7868 101.112 55.8007 77.1702 55.8007C53.2289 55.8007 56.1083 79.7868 56.1083 52.3193C56.1083 24.8518 84.5586 14 108.5 14C132.441 14 122 24.8518 122 52.3193Z" fill="#7B67F8"/>
<g filter="url(#filter0_d_145_3474)">
<path d="M124.5 58.0002C124.5 85.6144 108 57 79 61C51.3858 61 53.5003 83.1144 53.5003 55.5001C48.5 52 62.386 52 90.0003 52C117.614 52 122.5 55.5001 124.5 58.0002Z" fill="#7B67F8"/>
</g>
<path d="M128 76.7121C128 80.8961 126.017 90.5 121.926 90.5C117.836 90.5 118.001 85.9719 118.001 81.7879C118.001 77.6039 117.836 70.5 121.926 70.5C126.017 70.5 128 72.5281 128 76.7121Z" fill="#FFCA24"/>
<path d="M57 75.7121C57 79.8961 55.0169 89.5 50.9262 89.5C46.8356 89.5 47.0009 84.9719 47.0009 80.7879C47.0009 76.6039 46.8356 69.5 50.9262 69.5C55.0169 69.5 57 71.5281 57 75.7121Z" fill="#F0B600"/>
<g filter="url(#filter1_d_145_3474)">
<path d="M83.2356 71.9534C82.1263 71.9046 80.9641 71.6478 79.7693 70.9822C76.907 69.3875 69.6892 68.5004 67.5354 68.5C61.4683 68.4986 55.4953 68.7034 50 69.5468L50.1824 73.6802C51.7531 74.2574 52.2317 75.3356 52.4468 76.6372C53.4382 82.6363 54.828 87.738 57.4155 89.8358C59.2532 91.3256 61.5622 92.6237 65.8827 92.4906C70.4852 92.3488 75.3747 91.0772 77.7733 88.2925C79.879 85.8478 82.0754 82.0866 82.8708 77.9754C83.1704 76.4263 84.2606 75.7414 85.5 75.7414C86.7394 75.7414 87.8296 76.4263 88.1292 77.9754C88.9245 82.0866 91.121 85.8478 93.2267 88.2925C95.6253 91.0772 100.515 92.3488 105.117 92.4906C109.438 92.6237 111.747 91.3256 113.584 89.8358C116.172 87.738 117.562 82.6363 118.553 76.6372C118.768 75.3356 119.247 74.2574 120.818 73.6802L121 69.5468C115.505 68.7034 109.532 68.4986 103.465 68.5C101.311 68.5004 94.093 69.3875 91.2307 70.9822C90.0359 71.6478 88.8737 71.9046 87.7644 71.9534C86.2562 72.0199 84.7438 72.0199 83.2356 71.9534V71.9534ZM65.5715 70.5829C66.9118 70.5804 68.2691 70.613 69.5529 70.5936C70.6638 70.5769 78.3179 70.3668 79.5547 74.9752C80.7336 79.3677 78.9849 84.9522 75.2621 88.109C72.6681 90.3086 62.4597 92.6956 58.4565 87.9795C55.7127 84.7471 55.1322 81.8143 54.8399 77.7487C54.6548 75.1732 55.3138 72.5453 59.4974 71.2088C61.1597 70.6777 63.3377 70.5867 65.5715 70.5828V70.5829ZM100.75 70.5829C101.068 70.5811 101.308 70.5916 101.447 70.5936C102.731 70.613 104.088 70.5804 105.429 70.5829C107.662 70.5868 109.84 70.6778 111.503 71.2088C115.686 72.5453 116.345 75.1732 116.16 77.7487C115.868 81.8144 115.287 84.7472 112.544 87.9795C108.54 92.6957 98.3319 90.3086 95.7379 88.109C92.0151 84.9522 90.2664 79.3677 91.4453 74.9752C92.5275 70.9429 98.5234 70.5944 100.75 70.5829V70.5829ZM51.7922 71.5541H54.9151V72.2988H51.7922V71.5541ZM116.085 71.5541H119.208V72.2988H116.085V71.5541Z" fill="#343B4C"/>
</g>
<path d="M83.7567 92.0471C82.5708 96.4731 80.5041 97.898 80.0791 97.7842C79.6541 97.6703 81.6491 95.9273 82.835 91.5014C84.021 87.0754 85.0366 84.8973 85.4615 85.0112C86.5237 85.2958 84.9427 87.6211 83.7567 92.0471Z" fill="#A47C00"/>
<path d="M86 103.931C86 102.55 83.7614 104.931 81 104.931C78.2386 104.931 76 102.55 76 103.931C76 105.311 78.2386 106.431 81 106.431C83.7614 106.431 86 105.311 86 103.931Z" fill="#A47C00"/>
<path d="M88 103.353C88 103.824 87.3284 103.012 86.5 103.012C85.6716 103.012 85 103.824 85 103.353C85 102.882 85.6716 102.5 86.5 102.5C87.3284 102.5 88 102.882 88 103.353Z" fill="#A47C00"/>
<path d="M102 122.776C102 121.824 93.0457 123.638 82 123.638C70.9543 123.638 62 121.824 62 122.776C68 123.638 70.9543 124.5 82 124.5C93.0457 124.5 102 123.728 102 122.776Z" fill="#FF0F00"/>
<path d="M108 79.9998C108 77.2384 105.761 74.9998 103 74.9998C100.239 74.9998 98 77.2384 98 79.9998C98 82.7612 100.239 76.5 103 76.5C105.761 76.5 108 82.7612 108 79.9998Z" fill="#F0B600"/>
<path d="M72 80.4998C72 77.7384 69.7614 75.4998 67 75.4998C64.2386 75.4998 62 77.7384 62 80.4998C62 83.2612 64.2385 77 67 77C69.7614 77 72 83.2612 72 80.4998Z" fill="#F0B600"/>
<path d="M69 81.4066C69 83.0119 67.0474 82.3755 65.6667 82.3755C64.286 82.3755 64 83.0119 64 81.4066C64 79.8014 65.1193 78.5 66.5 78.5C67.8807 78.5 69 79.8014 69 81.4066Z" fill="#54ACFC"/>
<path d="M105 80.9001C105 82.2256 103.881 82.5001 102.5 82.5001C101.119 82.5001 100 82.2256 100 80.9001C100 79.5747 101.119 78.5001 102.5 78.5001C103.881 78.5001 105 79.5747 105 80.9001Z" fill="#54ACFC"/>
<defs>
<filter id="filter0_d_145_3474" x="51.4951" y="50" width="74.0051" height="20.1621" filterUnits="userSpaceOnUse" color-interpolation-filters="sRGB">
<feFlood flood-opacity="0" result="BackgroundImageFix"/>
<feColorMatrix in="SourceAlpha" type="matrix" values="0 0 0 0 0 0 0 0 0 0 0 0 0 0 0 0 0 0 127 0" result="hardAlpha"/>
<feOffset dy="-1"/>
<feGaussianBlur stdDeviation="0.5"/>
<feComposite in2="hardAlpha" operator="out"/>
<feColorMatrix type="matrix" values="0 0 0 0 0 0 0 0 0 0 0 0 0 0 0 0 0 0 0.25 0"/>
<feBlend mode="normal" in2="BackgroundImageFix" result="effect1_dropShadow_145_3474"/>
<feBlend mode="normal" in="SourceGraphic" in2="effect1_dropShadow_145_3474" result="shape"/>
</filter>
<filter id="filter1_d_145_3474" x="46" y="68.5" width="79" height="32" filterUnits="userSpaceOnUse" color-interpolation-filters="sRGB">
<feFlood flood-opacity="0" result="BackgroundImageFix"/>
<feColorMatrix in="SourceAlpha" type="matrix" values="0 0 0 0 0 0 0 0 0 0 0 0 0 0 0 0 0 0 127 0" result="hardAlpha"/>
<feOffset dy="4"/>
<feGaussianBlur stdDeviation="2"/>
<feComposite in2="hardAlpha" operator="out"/>
<feColorMatrix type="matrix" values="0 0 0 0 0 0 0 0 0 0 0 0 0 0 0 0 0 0 0.25 0"/>
<feBlend mode="normal" in2="BackgroundImageFix" result="effect1_dropShadow_145_3474"/>
<feBlend mode="normal" in="SourceGraphic" in2="effect1_dropShadow_145_3474" result="shape"/>
</filter>
</defs>
</svg>
