<svg width="139" height="231" viewBox="0 0 139 231" fill="none" xmlns="http://www.w3.org/2000/svg">
<path d="M136.56 112.946C136.56 123.446 135.203 134.219 126.966 134.219C118.729 134.219 119.061 125.101 119.061 116.676C119.061 108.251 118.729 93.9463 126.966 93.9463C135.203 93.9463 143.06 99.9463 136.56 112.946Z" fill="#FFCA24"/>
<path d="M22.1959 104.504C22.1959 112.929 18.2025 132.268 9.96546 132.268C1.72839 132.268 0.0595703 124.446 2.06123 114.725C-2.94043 98.9463 1.72839 91.9951 9.96546 91.9951C18.2025 91.9951 22.1959 96.0791 22.1959 104.504Z" fill="#F0B600"/>
<path d="M130.559 94.6543C89.577 241.397 76.0542 229.946 68.5596 229.946C46.5596 229.946 27.5602 192.737 19.0596 166.946C18.328 164.726 -4.62665 11.6436 50.9788 11.6436C106.584 11.6436 130.559 39.0488 130.559 94.6543Z" fill="#FFCA24"/>
<path d="M64.0748 137.397C61.6867 146.31 57.5251 149.179 56.6694 148.95C55.8136 148.721 59.8308 145.211 62.2188 136.299C64.6069 127.386 66.652 123 67.5077 123.23C69.6465 123.803 66.4629 128.485 64.0748 137.397Z" fill="#A47C00"/>
<path d="M68.5921 161.326C68.5921 158.546 64.0844 163.34 58.5238 163.34C52.9633 163.34 48.4556 158.546 48.4556 161.326C48.4556 164.106 52.9633 166.36 58.5238 166.36C64.0844 166.36 68.5921 164.106 68.5921 161.326Z" fill="#A47C00"/>
<path d="M56.3038 88.9979C56.9133 91.7582 48.4302 88.64 39.2623 90.6645C30.0943 92.6891 23.7132 99.0896 23.1037 96.3294C22.4941 93.5692 29.4321 89.6903 38.6001 87.6658C47.768 85.6413 55.6943 86.2377 56.3038 88.9979Z" fill="#A47C00"/>
<path d="M110.332 89.3385C110.886 92.1103 102.467 88.8235 93.2607 90.6646C84.0541 92.5058 77.5466 98.7778 76.9922 96.0059C76.4379 93.234 79.7935 91.1795 89 89.3384C98.2066 87.4972 109.778 86.5666 110.332 89.3385Z" fill="#A47C00"/>
<path d="M84.0596 184.446C83.9801 183.152 79.7771 190.25 72.5717 190.692C65.3663 191.134 49.0793 190.835 49.1587 192.129C49.2381 193.423 65.4206 192.019 72.626 191.577C79.8314 191.135 84.139 185.74 84.0596 184.446Z" fill="#A47C00"/>
<path d="M72.6191 160.163C72.6191 161.112 71.2668 159.476 69.5986 159.476C67.9304 159.476 66.5781 161.112 66.5781 160.163C66.5781 159.214 67.9304 158.445 69.5986 158.445C71.2668 158.445 72.6191 159.214 72.6191 160.163Z" fill="#A47C00"/>
<path d="M91.3587 183.059C90.8916 183.885 90.5201 181.795 89.0682 180.974C87.6163 180.152 85.6338 180.91 86.1009 180.084C86.5681 179.259 88.1238 179.255 89.5757 180.077C91.0276 180.898 91.8259 182.233 91.3587 183.059Z" fill="#A47C00"/>
<path d="M103.892 113.138C103.892 107.577 99.3847 103.07 93.8241 103.07C88.2636 103.07 83.7559 107.577 83.7559 113.138C83.7559 118.699 88.2635 106.091 93.8241 106.091C99.3846 106.091 103.892 118.699 103.892 113.138Z" fill="#F0B600"/>
<path d="M49.4007 114.145C49.4007 108.584 44.893 104.077 39.3324 104.077C33.7719 104.077 29.2642 108.584 29.2642 114.145C29.2642 119.705 33.7718 107.097 39.3324 107.097C44.8929 107.097 49.4007 119.705 49.4007 114.145Z" fill="#F0B600"/>
<path d="M45.0596 114.033C45.0596 116.842 41.5449 115.728 39.0596 115.728C36.5743 115.728 36.0596 116.842 36.0596 114.033C36.0596 111.224 38.0743 108.946 40.5596 108.946C43.0449 108.946 45.0596 111.224 45.0596 114.033Z" fill="#54ACFC"/>
<path d="M98.0596 113.147C98.0596 115.466 96.2687 115.947 94.0596 115.947C91.8504 115.947 90.0596 115.466 90.0596 113.147C90.0596 110.827 91.8504 108.947 94.0596 108.947C96.2687 108.947 98.0596 110.827 98.0596 113.147Z" fill="#54ACFC"/>
<path d="M27.5 3.4999C52.5012 -0.000514746 93.7688 -5.43303 119.557 29.4448C128.022 40.8924 135.069 49.909 132.841 65.4997C131.339 75.9997 131.339 85.0535 131.339 92.9997C131.339 97.9677 129.5 107.5 129.5 107.5L127.058 110.446C127.058 110.446 129.98 55.9197 115.558 43.4459C103.618 33.1193 68.7019 54.3641 54.0593 54.946C40.2292 55.4957 32.624 33.5128 22.0576 44.9459C13.6428 54.051 15.4012 85.5785 14.0588 96.446C13.3286 102.357 12 94.946 12 94.946C12 94.946 9.66478 85.7788 9.99965 67.446C10.3914 46.0016 10.9867 5.81192 27.5 3.4999Z" fill="#A4803B"/>
<g filter="url(#filter0_d_201_3409)">
<path d="M65.0634 92.663C63.2131 92.9332 61.2097 92.8763 59.0229 92.1535C53.784 90.4219 41.5653 91.2387 38.0028 91.9198C27.9676 93.8376 18.1533 96.0665 9.33129 99.2007L10.9411 105.979C13.7216 106.437 14.8544 108.069 15.6221 110.153C19.1604 119.762 23.0735 127.76 28.0171 130.411C31.528 132.294 35.7579 133.71 42.8617 132.122C50.4292 130.431 58.1138 126.781 61.1997 121.416C63.9088 116.706 66.3513 109.79 66.3657 102.738C66.3711 100.082 67.9574 98.6038 70.0073 98.2115C72.0573 97.8193 74.0771 98.6071 75.063 101.074C77.6795 107.622 82.5026 113.148 86.7591 116.525C91.6075 120.372 100.097 120.928 107.754 119.706C114.942 118.559 118.351 115.681 120.918 112.635C124.534 108.347 125.218 99.4687 124.96 89.2327C124.903 87.0118 125.354 85.0771 127.769 83.6253L126.763 76.7312C117.407 77.0752 107.463 78.6269 97.4284 80.5492C93.8662 81.2314 82.209 84.983 77.9794 88.5263C76.214 90.0053 74.3731 90.7979 72.5537 91.2298C70.0803 91.8169 67.5788 92.2955 65.0634 92.663V92.663ZM35.4138 95.9863C37.6298 95.5581 39.8851 95.1825 42.0023 94.7441C43.8345 94.3648 56.4275 91.5951 59.9316 98.8257C63.2715 105.718 62.1466 115.508 56.9882 121.907C53.394 126.366 37.2651 133.545 29.1514 127.011C23.5903 122.533 21.7021 117.866 19.932 111.235C18.8107 107.033 19.069 102.478 25.5656 98.9438C28.1469 97.5394 31.7204 96.6996 35.4138 95.9862L35.4138 95.9863ZM93.597 84.8534C94.1224 84.7499 94.5238 84.691 94.7541 84.6505C96.8836 84.2763 99.1183 83.7928 101.336 83.3727C105.032 82.6722 108.663 82.1334 111.58 82.4857C118.923 83.3722 120.844 87.5101 121.353 91.8285C122.156 98.6454 122.124 103.68 118.609 109.894C113.481 118.962 95.8409 118.244 90.8544 115.427C83.698 111.384 79.0384 102.701 79.5981 95.0627C80.1119 88.051 89.9186 85.5771 93.597 84.8534V84.8534ZM12.9307 101.953L18.0959 100.965L18.3315 102.197L13.1664 103.185L12.9307 101.953ZM119.268 81.6067L124.434 80.6184L124.669 81.85L119.504 82.8383L119.268 81.6067Z" fill="#343B4C"/>
</g>
<defs>
<filter id="filter0_d_201_3409" x="2.42165" y="76.731" width="132.257" height="69.8965" filterUnits="userSpaceOnUse" color-interpolation-filters="sRGB">
<feFlood flood-opacity="0" result="BackgroundImageFix"/>
<feColorMatrix in="SourceAlpha" type="matrix" values="0 0 0 0 0 0 0 0 0 0 0 0 0 0 0 0 0 0 127 0" result="hardAlpha"/>
<feOffset dy="6.90941"/>
<feGaussianBlur stdDeviation="3.4547"/>
<feComposite in2="hardAlpha" operator="out"/>
<feColorMatrix type="matrix" values="0 0 0 0 0 0 0 0 0 0 0 0 0 0 0 0 0 0 0.25 0"/>
<feBlend mode="normal" in2="BackgroundImageFix" result="effect1_dropShadow_201_3409"/>
<feBlend mode="normal" in="SourceGraphic" in2="effect1_dropShadow_201_3409" result="shape"/>
</filter>
</defs>
</svg>
