<svg width="167" height="295" viewBox="0 0 167 295" fill="none" xmlns="http://www.w3.org/2000/svg">
<path d="M147.93 111.757C147.93 167.363 120.972 295 65.3666 295C9.76119 295 23.0836 237.841 23.0836 182.235C23.0836 126.63 9.76119 29.1978 65.3666 29.1978C120.972 29.1978 147.93 56.152 147.93 111.757Z" fill="#FFCA24"/>
<path d="M153.971 77.1618C153.971 132.472 111.909 84.1721 63.6996 84.1721C15.4899 84.1721 21.2881 132.472 21.2881 77.1618C21.2881 21.8518 78.5772 0 126.787 0C174.996 0 153.971 21.8518 153.971 77.1618Z" fill="#7B67F8"/>
<g filter="url(#filter0_d_145_3475)">
<path d="M159.006 88.6008C159.006 144.206 125.78 86.5868 67.3841 94.6414C11.7786 94.6414 16.0366 139.172 16.0366 83.5666C5.96768 76.5186 33.9293 76.5186 89.5348 76.5186C145.14 76.5186 154.978 83.5666 159.006 88.6008Z" fill="#7B67F8"/>
</g>
<path d="M166.053 126.281C166.053 134.706 162.06 154.045 153.823 154.045C145.586 154.045 145.918 144.926 145.918 136.501C145.918 128.076 145.586 113.771 153.823 113.771C162.06 113.771 166.053 117.855 166.053 126.281Z" fill="#FFCA24"/>
<path d="M23.0835 124.267C23.0835 132.692 19.0902 152.031 10.8531 152.031C2.61605 152.031 2.94888 142.913 2.94888 134.488C2.94888 126.063 2.61605 111.758 10.8531 111.758C19.0902 111.758 23.0835 115.842 23.0835 124.267Z" fill="#F0B600"/>
<g filter="url(#filter1_d_145_3475)">
<path d="M75.9131 116.698C73.6792 116.6 71.339 116.083 68.9331 114.742C63.1694 111.531 48.6353 109.745 44.2982 109.744C32.0811 109.741 20.0536 110.154 8.98804 111.852L9.3554 120.175C12.5182 121.337 13.4819 123.509 13.915 126.13C15.9115 138.21 18.7098 148.483 23.9203 152.707C27.6207 155.707 32.2702 158.321 40.9703 158.053C50.2382 157.767 60.0839 155.207 64.9137 149.599C69.154 144.677 73.5768 137.103 75.1783 128.824C75.7817 125.705 77.9769 124.326 80.4727 124.326C82.9684 124.326 85.1636 125.705 85.767 128.824C87.3685 137.103 91.7914 144.677 96.0316 149.599C100.861 155.207 110.707 157.767 119.975 158.053C128.675 158.321 133.325 155.707 137.025 152.707C142.235 148.483 145.034 138.21 147.03 126.13C147.463 123.509 148.427 121.337 151.59 120.175L151.957 111.852C140.892 110.154 128.864 109.741 116.647 109.744C112.31 109.745 97.776 111.531 92.0122 114.742C89.6063 116.083 87.2662 116.6 85.0323 116.698C81.9955 116.832 78.9499 116.832 75.9131 116.698V116.698ZM40.3436 113.938C43.0424 113.933 45.7756 113.999 48.3608 113.96C50.5978 113.926 66.0105 113.503 68.5009 122.783C70.8748 131.628 67.3536 142.873 59.8571 149.23C54.6337 153.659 34.0775 158.466 26.0164 148.969C20.4914 142.46 19.3225 136.555 18.734 128.368C18.3611 123.182 19.6881 117.89 28.1126 115.199C31.4598 114.129 35.8455 113.946 40.3436 113.938V113.938ZM111.18 113.938C111.82 113.935 112.305 113.956 112.585 113.96C115.17 113.999 117.903 113.933 120.602 113.938C125.1 113.946 129.486 114.129 132.833 115.199C141.257 117.89 142.584 123.182 142.211 128.368C141.623 136.555 140.454 142.46 134.929 148.969C126.868 158.466 106.312 153.659 101.088 149.23C93.5917 142.873 90.0706 131.628 92.4444 122.783C94.6236 114.663 106.697 113.962 111.18 113.938V113.938ZM12.5968 115.894H18.8852V117.394H12.5968V115.894ZM142.06 115.894H148.349V117.394H142.06V115.894Z" fill="#343B4C"/>
</g>
<path d="M76.9622 157.16C74.5742 166.072 70.4125 168.941 69.5568 168.712C68.7011 168.483 72.7182 164.973 75.1063 156.061C77.4944 147.148 79.5394 142.762 80.3951 142.992C82.534 143.565 79.3503 148.247 76.9622 157.16Z" fill="#A47C00"/>
<path d="M81.4795 181.089C81.4795 178.309 76.9718 183.103 71.4113 183.103C65.8507 183.103 61.343 178.309 61.343 181.089C61.343 183.869 65.8507 186.123 71.4113 186.123C76.9718 186.123 81.4795 183.869 81.4795 181.089Z" fill="#A47C00"/>
<path d="M85.5068 179.926C85.5068 180.874 84.1545 179.239 82.4863 179.239C80.8181 179.239 79.4658 180.874 79.4658 179.926C79.4658 178.977 80.8181 178.208 82.4863 178.208C84.1545 178.208 85.5068 178.977 85.5068 179.926Z" fill="#A47C00"/>
<path d="M113.698 219.037C113.698 217.12 95.6671 220.773 73.4249 220.773C51.1827 220.773 33.1519 217.12 33.1519 219.037C45.2338 220.773 51.1827 222.508 73.4249 222.508C95.6671 222.508 113.698 220.954 113.698 219.037Z" fill="#FF0F00"/>
<path d="M125.78 132.901C125.78 127.34 121.272 122.832 115.712 122.832C110.151 122.832 105.643 127.34 105.643 132.901C105.643 138.461 110.151 125.853 115.712 125.853C121.272 125.853 125.78 138.461 125.78 132.901Z" fill="#F0B600"/>
<path d="M53.2884 133.908C53.2884 128.347 48.7807 123.839 43.2201 123.839C37.6596 123.839 33.1519 128.347 33.1519 133.908C33.1519 139.468 37.6595 126.86 43.2201 126.86C48.7806 126.86 53.2884 139.468 53.2884 133.908Z" fill="#F0B600"/>
<path d="M47.2475 135.733C47.2475 138.966 43.3156 137.684 40.5353 137.684C37.755 137.684 37.1792 138.966 37.1792 135.733C37.1792 132.501 39.4331 129.88 42.2133 129.88C44.9936 129.88 47.2475 132.501 47.2475 135.733Z" fill="#54ACFC"/>
<path d="M119.739 134.713C119.739 137.382 117.485 137.935 114.705 137.935C111.925 137.935 109.671 137.382 109.671 134.713C109.671 132.044 111.925 129.881 114.705 129.881C117.485 129.881 119.739 132.044 119.739 134.713Z" fill="#54ACFC"/>
<defs>
<filter id="filter0_d_145_3475" x="11.9988" y="72.4913" width="149.021" height="40.5991" filterUnits="userSpaceOnUse" color-interpolation-filters="sRGB">
<feFlood flood-opacity="0" result="BackgroundImageFix"/>
<feColorMatrix in="SourceAlpha" type="matrix" values="0 0 0 0 0 0 0 0 0 0 0 0 0 0 0 0 0 0 127 0" result="hardAlpha"/>
<feOffset dy="-2.01365"/>
<feGaussianBlur stdDeviation="1.00683"/>
<feComposite in2="hardAlpha" operator="out"/>
<feColorMatrix type="matrix" values="0 0 0 0 0 0 0 0 0 0 0 0 0 0 0 0 0 0 0.25 0"/>
<feBlend mode="normal" in2="BackgroundImageFix" result="effect1_dropShadow_145_3475"/>
<feBlend mode="normal" in="SourceGraphic" in2="effect1_dropShadow_145_3475" result="shape"/>
</filter>
<filter id="filter1_d_145_3475" x="0.93343" y="109.744" width="159.079" height="64.4369" filterUnits="userSpaceOnUse" color-interpolation-filters="sRGB">
<feFlood flood-opacity="0" result="BackgroundImageFix"/>
<feColorMatrix in="SourceAlpha" type="matrix" values="0 0 0 0 0 0 0 0 0 0 0 0 0 0 0 0 0 0 127 0" result="hardAlpha"/>
<feOffset dy="8.05461"/>
<feGaussianBlur stdDeviation="4.0273"/>
<feComposite in2="hardAlpha" operator="out"/>
<feColorMatrix type="matrix" values="0 0 0 0 0 0 0 0 0 0 0 0 0 0 0 0 0 0 0.25 0"/>
<feBlend mode="normal" in2="BackgroundImageFix" result="effect1_dropShadow_145_3475"/>
<feBlend mode="normal" in="SourceGraphic" in2="effect1_dropShadow_145_3475" result="shape"/>
</filter>
</defs>
</svg>
