<svg width="162" height="234" viewBox="0 0 162 234" fill="none" xmlns="http://www.w3.org/2000/svg">
<path d="M147.988 94.049C107.005 240.792 95.5 233.792 88.0054 233.792C45.8262 233.792 37.5054 233.292 23.1417 164.527C23.1417 108.921 9.8193 11.4893 65.4248 11.4893C121.03 11.4893 147.988 38.4435 147.988 94.049Z" fill="#FFCA24"/>
<path d="M35.5 64.4637C131.109 25.0117 67.062 71.474 115.272 71.474C158 52.5014 133.5 200.501 153 64.4637C153 9.15377 68 -4.49816 38.5 2.00134C21.5 -4.5 35.5 9.15376 35.5 64.4637Z" fill="#886200"/>
<path d="M35.7313 62.0873C21.2051 18.9725 34.0569 79.1458 26.7322 79.1458C20.2403 58.4118 26.7322 160.5 21 71.4847C21 11.0398 28.0213 -4.50962 32.5034 2.59328C42.5688 14.2235 35.7313 1.64235 35.7313 62.0873Z" fill="#886200"/>
<path d="M161.111 108.572C161.111 116.997 157.118 136.336 148.881 136.336C140.644 136.336 140.976 127.217 140.976 118.792C140.976 110.367 140.644 96.0625 148.881 96.0625C157.118 96.0625 161.111 100.146 161.111 108.572Z" fill="#FFCA24"/>
<path d="M23.1419 106.558C23.1419 114.983 19.1485 134.322 10.9115 134.322C2.6744 134.322 3.00723 125.204 3.00723 116.779C3.00723 108.354 2.6744 94.0488 10.9115 94.0488C19.1485 94.0488 23.1419 98.1328 23.1419 106.558Z" fill="#F0B600"/>
<g filter="url(#filter0_d_153_3425)">
<path d="M75.9714 98.9892C73.7375 98.8908 71.3974 98.3737 68.9915 97.0334C63.2277 93.8223 48.6936 92.0359 44.3565 92.0352C32.1395 92.0324 20.1119 92.4447 9.04639 94.1431L9.41375 102.466C12.5766 103.629 13.5402 105.8 13.9734 108.421C15.9698 120.501 18.7682 130.774 23.9786 134.998C27.6791 137.998 32.3286 140.612 41.0286 140.344C50.2965 140.058 60.1422 137.498 64.9721 131.89C69.2123 126.968 73.6352 119.394 75.2367 111.115C75.8401 107.996 78.0353 106.617 80.531 106.617C83.0268 106.617 85.222 107.996 85.8254 111.115C87.4269 119.394 91.8497 126.968 96.09 131.89C100.92 137.498 110.766 140.058 120.033 140.344C128.733 140.612 133.383 137.998 137.083 134.998C142.294 130.774 145.092 120.501 147.089 108.421C147.522 105.8 148.485 103.629 151.648 102.466L152.016 94.1431C140.95 92.4447 128.923 92.0324 116.706 92.0352C112.368 92.0359 97.8343 93.8223 92.0706 97.0334C89.6647 98.3737 87.3245 98.8908 85.0907 98.9892C82.0538 99.1229 79.0082 99.1229 75.9714 98.9892V98.9892ZM40.402 96.2293C43.1008 96.2244 45.8339 96.2901 48.4191 96.251C50.6562 96.2172 66.0688 95.7943 68.5593 105.074C70.9331 113.919 67.412 125.164 59.9154 131.521C54.692 135.95 34.1358 140.757 26.0748 131.26C20.5498 124.751 19.3808 118.846 18.7923 110.659C18.4195 105.473 19.7465 100.181 28.1709 97.4897C31.5181 96.4204 35.9039 96.2371 40.402 96.2293V96.2293ZM111.238 96.2293C111.879 96.2258 112.363 96.2468 112.643 96.251C115.228 96.2901 117.961 96.2244 120.66 96.2293C125.158 96.2372 129.544 96.4204 132.891 97.4897C141.316 100.181 142.643 105.473 142.27 110.659C141.681 118.846 140.512 124.751 134.987 131.26C126.926 140.757 106.37 135.95 101.147 131.521C93.6501 125.164 90.1289 113.919 92.5028 105.074C94.6819 96.9543 106.756 96.2526 111.238 96.2293V96.2293ZM12.6552 98.1851H18.9436V99.6846H12.6552V98.1851ZM142.118 98.1851H148.407V99.6846H142.118V98.1851Z" fill="#343B4C"/>
</g>
<path d="M77.0206 139.451C74.6325 148.363 70.4709 151.233 69.6152 151.004C68.7594 150.774 72.7766 147.265 75.1646 138.352C77.5527 129.44 79.5978 125.054 80.4535 125.283C82.5923 125.856 79.4087 130.539 77.0206 139.451Z" fill="#A47C00"/>
<path d="M81.5379 163.38C81.5379 160.6 77.0302 165.394 71.4696 165.394C65.9091 165.394 61.4014 160.6 61.4014 163.38C61.4014 166.161 65.9091 168.415 71.4696 168.415C77.0302 168.415 81.5379 166.161 81.5379 163.38Z" fill="#A47C00"/>
<path d="M85.5649 162.217C85.5649 163.166 84.2126 161.53 82.5444 161.53C80.8762 161.53 79.5239 163.166 79.5239 162.217C79.5239 161.269 80.8762 160.5 82.5444 160.5C84.2126 160.5 85.5649 161.269 85.5649 162.217Z" fill="#A47C00"/>
<path d="M103.005 194.982C103.005 192.602 89.3501 197.137 72.5054 197.137C55.6607 197.137 42.0054 192.602 42.0054 194.982C51.1554 197.137 55.6607 199.292 72.5054 199.292C89.3501 199.292 103.005 197.362 103.005 194.982Z" fill="#FF0F00"/>
<path d="M125.838 115.192C125.838 109.631 121.33 105.123 115.77 105.123C110.209 105.123 105.702 109.631 105.702 115.192C105.702 120.752 110.209 108.144 115.77 108.144C121.33 108.144 125.838 120.752 125.838 115.192Z" fill="#F0B600"/>
<path d="M53.3465 116.199C53.3465 110.638 48.8388 106.13 43.2782 106.13C37.7177 106.13 33.21 110.638 33.21 116.199C33.21 121.759 37.7176 109.151 43.2782 109.151C48.8387 109.151 53.3465 121.759 53.3465 116.199Z" fill="#F0B600"/>
<path d="M47.3056 118.025C47.3056 121.257 43.3737 119.976 40.5934 119.976C37.8131 119.976 37.2373 121.257 37.2373 118.025C37.2373 114.792 39.4912 112.172 42.2714 112.172C45.0517 112.172 47.3056 114.792 47.3056 118.025Z" fill="#54ACFC"/>
<path d="M119.797 117.005C119.797 119.674 117.543 120.227 114.763 120.227C111.983 120.227 109.729 119.674 109.729 117.005C109.729 114.336 111.983 112.172 114.763 112.172C117.543 112.172 119.797 114.336 119.797 117.005Z" fill="#54ACFC"/>
<defs>
<filter id="filter0_d_153_3425" x="0.991779" y="92.0352" width="159.078" height="64.4369" filterUnits="userSpaceOnUse" color-interpolation-filters="sRGB">
<feFlood flood-opacity="0" result="BackgroundImageFix"/>
<feColorMatrix in="SourceAlpha" type="matrix" values="0 0 0 0 0 0 0 0 0 0 0 0 0 0 0 0 0 0 127 0" result="hardAlpha"/>
<feOffset dy="8.05461"/>
<feGaussianBlur stdDeviation="4.0273"/>
<feComposite in2="hardAlpha" operator="out"/>
<feColorMatrix type="matrix" values="0 0 0 0 0 0 0 0 0 0 0 0 0 0 0 0 0 0 0.25 0"/>
<feBlend mode="normal" in2="BackgroundImageFix" result="effect1_dropShadow_153_3425"/>
<feBlend mode="normal" in="SourceGraphic" in2="effect1_dropShadow_153_3425" result="shape"/>
</filter>
</defs>
</svg>
