<svg width="2416" height="1672" viewBox="0 0 2416 1672" fill="none" xmlns="http://www.w3.org/2000/svg">
<path d="M30.1372 1640.8C31.0152 1018.56 32.301 401.551 30.294 31.1274M31.956 36.8036C910.756 13.4404 1802.41 11.5902 2383.98 27.6465L31.956 36.8036ZM33.6808 33.2285C839.914 19.0538 1643.89 16.2001 2386.96 31.6292L33.6808 33.2285ZM2381.66 33.1031C2369.97 480.861 2376.36 928.649 2389.38 1639.33L2381.66 33.1031ZM2386.34 33.6362C2388.03 593.694 2385.49 1151.4 2382.29 1640.87L2386.34 33.6362ZM2381.16 1641.87C1471.41 1638.92 551.967 1639.45 31.9874 1635.31L2381.16 1641.87ZM2383.76 1639.67C1475.71 1649.36 569.309 1645.19 29.6354 1639.64L2383.76 1639.67ZM27.5029 1639.99C36.1896 1125.56 35.8133 604.826 28.0047 29.5281L27.5029 1639.99Z" stroke="black" stroke-width="12.544" stroke-linecap="round"/>
<path d="M307.518 191.845C359.983 183.252 416.682 191.594 592.36 191.845M307.518 191.845H592.36M307.518 191.845C403.072 198.086 480.813 202.664 592.36 191.845M307.518 191.845C209.455 198.901 159.938 236 165.081 334.282M307.518 191.845C214.88 200.939 156.08 234.056 165.081 334.282M592.36 191.845C697.416 196.831 730.501 237.881 734.797 334.282M592.36 191.845C683.806 202.884 742.167 226.31 734.797 334.282M734.797 334.282C727.678 599.995 726.926 855.735 734.797 1461.58M734.797 334.282V1461.58M734.797 334.282C741.195 583.405 739.909 841.247 734.797 1461.58M734.797 1461.58C735.174 1556.16 681.203 1608.25 592.36 1604.02M734.797 1461.58C735.048 1547.19 694.939 1610.85 592.36 1604.02M592.36 1604.02C531.302 1593.76 450.049 1613.14 307.518 1604.02M592.36 1604.02H307.518M592.36 1604.02C494.015 1602.73 398.462 1606.52 307.518 1604.02M307.518 1604.02C206.288 1610.44 160.565 1548.6 165.081 1461.58M307.518 1604.02C210.396 1611.35 163.387 1565.19 165.081 1461.58M165.081 1461.58C160.345 1049.73 164.14 654.655 165.081 334.282M165.081 1461.58V334.282M165.081 1461.58C159.687 1208 156.175 952.543 165.081 334.282" stroke="black" stroke-width="12.544" stroke-linecap="round"/>
<path d="M213.603 434.61C268.388 435.613 485.274 420.874 539.683 419.181M224.39 418.303C279.333 420.874 491.891 431.066 545.265 431.035L224.39 418.303Z" stroke="black" stroke-width="12.544" stroke-linecap="round"/>
<path d="M231.797 482.752C287.586 483.16 490.454 487.236 541.382 486.421M216.493 490.435C272.063 492.63 490.203 497.46 544.267 497.962L216.493 490.435Z" stroke="black" stroke-width="12.544" stroke-linecap="round"/>
<path d="M278.974 575.139C332.442 575.013 539.23 580.878 593.639 580.846M287.849 584.045C341.913 585.927 547.948 591.916 601.323 592.92L287.849 584.045Z" stroke="black" stroke-width="12.544" stroke-linecap="round"/>
<path d="M290.845 653.175C342.777 655.37 549.47 655.088 603.535 651.638M299.124 636.742C352.216 637.181 558.188 639.188 611.312 640.913L299.124 636.742Z" stroke="black" stroke-width="12.544" stroke-linecap="round"/>
<path d="M384.986 786.509C438.236 785.569 640.915 777.384 696.516 778.23M393.297 791.056C447.204 792.374 653.522 792.185 704.732 790.868L393.297 791.056Z" stroke="black" stroke-width="12.544" stroke-linecap="round"/>
<path d="M370.484 722.708C421.883 720.733 636.824 721.767 690.387 722.802M381.429 730.611C434.145 731.27 645.48 737.071 698.29 735.817L381.429 730.611Z" stroke="black" stroke-width="12.544" stroke-linecap="round"/>
<path d="M184.178 775.452C171.101 754.849 182.986 749.737 202.681 756.95M202.681 756.95C336.964 752.12 497.464 753.218 713.628 756.95H202.681ZM202.681 756.95C314.416 745.942 426.214 751.211 713.628 756.95H202.681ZM713.628 756.95C732.632 758.267 721.186 775.578 732.099 775.452L713.628 756.95ZM713.628 756.95C737.556 747.636 720.214 776.111 732.099 775.452L713.628 756.95ZM732.099 775.452C725.671 784.107 732.727 788.31 732.099 812.426V775.452ZM732.099 775.452C732.946 786.397 728.399 795.272 732.099 812.426V775.452ZM732.099 812.426C732.821 824.53 736.396 838.956 713.628 830.928L732.099 812.426ZM732.099 812.426C743.64 823.276 721.751 828.795 713.628 830.928L732.099 812.426ZM713.628 830.928C573.763 849.179 421.73 840.022 202.681 830.928H713.628ZM713.628 830.928C547.295 834.252 377.293 836.855 202.681 830.928H713.628ZM202.681 830.928C183.457 842.813 192.144 836.51 184.178 812.426L202.681 830.928ZM202.681 830.928C186.687 843.378 191.391 830.552 184.178 812.426L202.681 830.928ZM184.178 812.426C179.192 801.889 188.537 789.752 184.178 775.452V812.426ZM184.178 812.426C182.077 799.474 182.14 785.613 184.178 775.452V812.426ZM184.178 775.452C196.346 760.713 182.986 761.246 202.681 756.95L184.178 775.452Z" stroke="black" stroke-width="12.544" stroke-linecap="round"/>
<path d="M871.019 208.837C967.451 212.381 1348.91 212.694 1445.22 214.137M855.935 212.443C953.621 214.921 1350.64 224.799 1449.83 227.935L855.935 212.443Z" stroke="black" stroke-width="12.544" stroke-linecap="round"/>
<path d="M940.754 342.851C1060.08 344.074 1529.13 354.36 1645.69 354.924M928.398 351.725C1048.1 351.631 1530.45 346.206 1649.96 347.711L928.398 351.725Z" stroke="black" stroke-width="12.544" stroke-linecap="round"/>
<path d="M1113.26 430.151C1210.01 431.217 1600.13 426.827 1697.72 426.419M1121.26 435.168C1218.63 437.803 1604.52 440.061 1701.14 437.928L1121.26 435.168Z" stroke="black" stroke-width="12.544" stroke-linecap="round"/>
<path d="M1143.7 544.938C1230.41 542.962 1587.72 543.935 1673.46 546.475M1151.6 554.095C1239.09 554.471 1590.33 558.987 1675.94 558.423L1151.6 554.095Z" stroke="black" stroke-width="12.544" stroke-linecap="round"/>
<path d="M1157.76 633.765C1243.06 634.423 1580.12 632.542 1669.24 635.96M1145.82 642.42C1232.84 641.73 1590.15 647.971 1678.34 648.159L1145.82 642.42Z" stroke="black" stroke-width="12.544" stroke-linecap="round"/>
<path d="M1335.62 721.713C1467.77 721.838 2012.53 729.145 2147.22 732.407M1345.66 730.588C1478.78 732.752 2016.04 743.163 2149.51 743.508L1345.66 730.588Z" stroke="black" stroke-width="12.544" stroke-linecap="round"/>
<path d="M1366.95 816.676C1501.95 815.609 2040.87 820.658 2177.73 819.247M1378.08 825.989C1513.24 826.836 2050.37 830.599 2182.49 830.317L1378.08 825.989Z" stroke="black" stroke-width="12.544" stroke-linecap="round"/>
<path d="M1408.78 950.839C1533.88 951.78 2025.85 956.013 2147.09 952.846M1395.36 935.504C1517.6 935.159 2007.13 940.333 2131.41 942.309L1395.36 935.504Z" stroke="black" stroke-width="12.544" stroke-linecap="round"/>
<path d="M1171.59 1075.82C1247.89 1075.6 1540.1 1070.74 1614.93 1072.02M1159.71 1082.62C1236.41 1084.03 1543.68 1084.44 1621.04 1083.03L1159.71 1082.62Z" stroke="black" stroke-width="12.544" stroke-linecap="round"/>
<path d="M903.979 1181.09C1028.32 1182.06 1531.62 1193.76 1655.08 1197.65M915.426 1190.06C1040.24 1190.06 1537.54 1189.59 1660.44 1190.59L915.426 1190.06Z" stroke="black" stroke-width="12.544" stroke-linecap="round"/>
<path d="M895.487 1486.91C1088.82 1489.76 1874.55 1515.41 2068.19 1517.58M904.738 1493.18C1095.56 1495.03 1858.27 1503.09 2050.88 1506.48L904.738 1493.18Z" stroke="black" stroke-width="12.544" stroke-linecap="round"/>
<path d="M1500.18 186.128C1500.18 186.128 1499.81 186.985 1499.08 188.699C1498.35 190.393 1497.72 192.693 1497.2 195.599C1496.67 198.505 1496.24 201.369 1495.88 204.191C1495.55 206.993 1495.38 209.564 1495.38 211.906C1495.38 214.268 1496.81 215.909 1499.68 216.829C1502.56 217.749 1505.24 218.951 1507.7 220.436C1510.15 221.941 1512.17 223.749 1513.76 225.861C1515.32 227.993 1516.33 230.23 1516.77 232.572C1517.18 234.913 1517.42 237.255 1517.49 239.597C1517.55 241.938 1517.21 245.189 1516.45 249.35C1515.7 253.51 1514.28 256.845 1512.19 259.353C1510.08 261.841 1508.13 263.744 1506.35 265.061C1504.56 266.378 1504.07 265.594 1504.88 262.709C1505.7 259.845 1505.45 257.231 1504.13 254.869C1502.79 252.486 1503.19 251.785 1505.32 252.768C1507.45 253.75 1509.6 254.754 1511.75 255.778C1513.92 256.803 1516.42 258.057 1519.24 259.541C1522.07 261.047 1524.08 261.998 1525.3 262.395C1526.49 262.792 1527.59 263.367 1528.59 264.12C1529.61 264.873 1530.48 265.772 1531.19 266.817C1531.9 267.841 1532.43 268.97 1532.76 270.204C1533.12 271.416 1533.26 272.65 1533.2 273.904C1533.14 275.159 1532.87 276.371 1532.41 277.542C1531.95 278.734 1531.32 279.81 1530.5 280.772C1529.71 281.734 1528.77 282.549 1527.68 283.218C1526.61 283.866 1525.46 284.326 1524.23 284.598C1523 284.891 1521.75 284.974 1520.5 284.849C1519.24 284.724 1518.04 284.399 1516.89 283.877C1515.74 283.354 1514.71 282.654 1513.79 281.776C1512.87 280.919 1512.1 279.936 1511.5 278.828C1510.89 277.72 1510.48 276.539 1510.27 275.284C1510.07 274.051 1510.07 272.807 1510.27 271.552C1510.46 270.298 1510.85 269.117 1511.44 268.009C1512.02 266.88 1512.76 265.887 1513.66 265.029C1514.58 264.151 1515.62 263.441 1516.77 262.897C1517.9 262.353 1519.09 262.019 1520.34 261.893C1521.6 261.747 1522.84 261.799 1524.07 262.05C1525.31 262.322 1526.47 262.782 1527.55 263.43C1528.64 264.057 1529.59 264.852 1530.41 265.813C1531.24 266.775 1531.9 267.841 1532.38 269.012C1532.84 270.183 1533.12 271.396 1533.2 272.65C1533.26 273.904 1533.14 275.148 1532.82 276.382C1532.49 277.594 1531.97 278.723 1531.25 279.769C1530.56 280.814 1529.72 281.723 1528.71 282.497C1527.71 283.271 1526.61 283.866 1525.42 284.285C1524.23 284.682 1523.01 284.891 1521.75 284.912C1520.48 284.912 1519.84 284.912 1519.84 284.912C1519.84 284.912 1517.58 283.929 1513.07 281.964C1508.53 280.02 1505.12 278.483 1502.84 277.354C1500.56 276.204 1498.41 275.18 1496.38 274.281C1494.35 273.382 1492.24 272.127 1490.05 270.517C1487.83 268.908 1486.33 266.023 1485.53 261.862C1484.74 257.681 1485.36 254.378 1487.41 251.952C1489.48 249.548 1491.28 247.478 1492.81 245.743C1494.33 243.987 1494.63 242.001 1493.69 239.785C1492.79 237.548 1491.3 235.886 1489.23 234.798C1487.14 233.732 1484.87 232.248 1482.43 230.345C1480 228.443 1478.18 225.746 1476.97 222.255C1475.76 218.763 1475.24 215.732 1475.4 213.16C1475.59 210.568 1475.95 207.693 1476.47 204.536C1476.97 201.358 1477.74 198.306 1478.79 195.379C1479.81 192.431 1480.73 189.786 1481.55 187.445C1482.39 185.103 1483.24 183.117 1484.12 181.487C1485 179.856 1485.62 178.758 1485.97 178.194C1486.33 177.65 1486.74 177.148 1487.23 176.688C1487.71 176.229 1488.23 175.842 1488.79 175.528C1489.38 175.194 1489.98 174.943 1490.61 174.776C1491.26 174.587 1491.91 174.483 1492.56 174.462C1493.2 174.441 1493.84 174.504 1494.47 174.65C1495.12 174.776 1495.74 174.985 1496.35 175.277C1496.94 175.57 1497.48 175.925 1497.98 176.344C1498.48 176.762 1498.93 177.232 1499.33 177.755C1499.73 178.298 1500.05 178.873 1500.3 179.48C1500.55 180.086 1500.73 180.713 1500.84 181.361C1500.94 182.009 1500.96 182.647 1500.9 183.274C1500.84 183.943 1500.7 184.591 1500.49 185.218C1500.28 185.825 1500.18 186.128 1500.18 186.128Z" fill="black"/>
<path d="M1690.8 320.834C1690.8 320.834 1690.72 321.577 1690.55 323.061C1690.36 324.566 1690.3 326.49 1690.36 328.831C1690.45 331.194 1691.44 332.939 1693.34 334.068C1695.26 335.197 1697.42 336.201 1699.8 337.079C1702.21 337.957 1704.48 338.846 1706.64 339.744C1708.77 340.623 1711.37 341.814 1714.45 343.32C1717.52 344.846 1720 346.393 1721.88 347.961C1723.76 349.529 1725.14 351.515 1726.02 353.919C1726.92 356.344 1727.17 359.188 1726.77 362.449C1726.37 365.731 1726.46 366.704 1727.02 365.366C1727.59 364.007 1728.3 363.704 1729.15 364.456C1729.99 365.209 1730.7 366.076 1731.29 367.059C1731.85 368.063 1732.25 369.118 1732.48 370.226C1732.69 371.334 1732.72 372.453 1732.57 373.582C1732.43 374.711 1732.11 375.788 1731.63 376.812C1731.13 377.836 1730.48 378.756 1729.69 379.572C1728.87 380.387 1727.96 381.056 1726.96 381.579C1725.93 382.08 1724.86 382.415 1723.73 382.582C1722.6 382.749 1721.48 382.729 1720.37 382.519C1719.24 382.31 1718.19 381.934 1717.21 381.391C1716.2 380.826 1715.31 380.126 1714.54 379.289C1713.79 378.453 1713.18 377.512 1712.72 376.467C1712.26 375.422 1711.98 374.335 1711.87 373.206C1711.77 372.077 1711.85 370.958 1712.13 369.85C1712.38 368.742 1712.81 367.707 1713.41 366.745C1714.02 365.763 1714.77 364.916 1715.67 364.205C1716.55 363.494 1717.52 362.93 1718.59 362.512C1719.65 362.115 1720.75 361.895 1721.88 361.853C1723.03 361.811 1724.15 361.958 1725.23 362.292C1726.32 362.606 1727.32 363.097 1728.24 363.766C1729.19 364.414 1729.99 365.198 1730.66 366.118C1731.33 367.038 1731.84 368.042 1732.2 369.129C1732.53 370.216 1732.69 371.334 1732.67 372.484C1732.65 373.613 1732.45 374.711 1732.07 375.777C1731.67 376.864 1731.12 377.847 1730.41 378.725C1729.72 379.624 1728.89 380.387 1727.93 381.014C1726.97 381.641 1725.93 382.091 1724.83 382.363C1723.74 382.655 1722.62 382.76 1721.47 382.676C1720.34 382.593 1719.25 382.331 1718.21 381.892C1717.16 381.432 1716.64 381.202 1716.64 381.202C1716.64 381.202 1714.96 377.836 1711.59 371.104C1708.25 364.373 1704.99 360.275 1701.81 358.811C1698.61 357.348 1695.88 356.24 1693.62 355.487C1691.34 354.735 1689.02 353.982 1686.66 353.229C1684.3 352.456 1682.11 351.536 1680.11 350.47C1678.08 349.382 1676.23 346.842 1674.56 342.849C1672.9 338.877 1672.18 335.584 1672.39 332.971C1672.58 330.357 1672.85 327.932 1673.21 325.695C1673.54 323.458 1673.9 321.598 1674.27 320.113C1674.63 318.671 1674.9 317.636 1675.09 317.009C1675.28 316.381 1675.54 315.785 1675.87 315.221C1676.21 314.677 1676.61 314.165 1677.07 313.684C1677.55 313.224 1678.06 312.827 1678.6 312.493C1679.17 312.158 1679.76 311.886 1680.39 311.677C1681.02 311.489 1681.65 311.374 1682.3 311.332C1682.95 311.291 1683.59 311.322 1684.22 311.426C1684.86 311.552 1685.49 311.751 1686.1 312.022C1686.7 312.294 1687.26 312.629 1687.76 313.026C1688.28 313.423 1688.74 313.883 1689.14 314.406C1689.56 314.907 1689.9 315.461 1690.17 316.068C1690.45 316.674 1690.63 317.291 1690.74 317.918C1690.86 318.566 1690.91 319.204 1690.86 319.831C1690.82 320.5 1690.8 320.834 1690.8 320.834Z" fill="black"/>
<path d="M929.008 1224.42C929.008 1224.42 929.258 1224.99 929.76 1226.12C930.262 1227.21 931.464 1228.62 933.367 1230.35C935.269 1232.09 937.328 1233.8 939.545 1235.5C941.761 1237.21 943.987 1238.82 946.224 1240.32C948.44 1241.81 950.416 1243.53 952.151 1245.5C953.886 1247.44 955.015 1249.52 955.538 1251.74C956.082 1253.93 956.333 1256.49 956.291 1259.39C956.249 1262.3 955.339 1265.04 953.562 1267.61C951.806 1270.18 949.872 1272.14 947.761 1273.5C945.67 1274.84 943.517 1276.13 941.301 1277.36C939.085 1278.61 937.172 1276.92 935.562 1272.28C933.931 1267.64 934.663 1265.63 937.757 1266.26C940.851 1266.87 943.245 1268.16 944.938 1270.15C946.611 1272.11 948.054 1274.25 949.266 1276.55C950.479 1278.87 951.514 1281.37 952.371 1284.07C953.228 1286.79 953.74 1289.43 953.907 1292.01C954.075 1294.58 951.075 1299.08 944.907 1305.52C938.74 1311.96 935.029 1315.12 933.774 1314.99C932.52 1314.87 931.328 1314.54 930.199 1314.02C929.049 1313.48 928.015 1312.78 927.095 1311.92C926.175 1311.06 925.422 1310.08 924.837 1308.97C924.251 1307.84 923.854 1306.66 923.645 1305.43C923.436 1304.19 923.436 1302.95 923.645 1301.7C923.833 1300.46 924.22 1299.29 924.805 1298.18C925.391 1297.05 926.143 1296.06 927.063 1295.2C927.983 1294.33 929.008 1293.63 930.137 1293.1C931.286 1292.56 932.489 1292.23 933.743 1292.1C934.997 1291.95 936.231 1292.02 937.443 1292.29C938.677 1292.56 939.837 1293.02 940.924 1293.67C941.991 1294.32 942.942 1295.11 943.778 1296.05C944.593 1297.01 945.231 1298.08 945.691 1299.25C946.151 1300.42 946.423 1301.63 946.506 1302.89C946.569 1304.14 946.433 1305.38 946.099 1306.59C945.764 1307.8 945.252 1308.93 944.562 1309.97C943.851 1311.02 942.994 1311.93 941.991 1312.7C940.987 1313.46 939.889 1314.04 938.698 1314.46C937.506 1314.86 936.283 1315.06 935.029 1315.06C933.774 1315.06 932.551 1314.86 931.36 1314.46C930.147 1314.06 929.039 1313.49 928.035 1312.73C927.032 1311.96 926.185 1311.06 925.495 1310.04C924.784 1308.99 924.251 1307.86 923.896 1306.65C923.561 1305.44 923.426 1304.2 923.488 1302.95C923.572 1301.7 923.844 1300.48 924.304 1299.31C924.764 1298.14 925.401 1297.08 926.217 1296.11C927.032 1295.15 927.973 1294.35 929.039 1293.7C930.126 1293.03 931.276 1292.56 932.489 1292.29C933.722 1292.02 934.339 1291.88 934.339 1291.88C934.339 1291.88 933.764 1292.9 932.614 1294.95C931.464 1296.98 930.847 1296.81 930.764 1294.45C930.659 1292.11 930.157 1289.9 929.258 1287.83C928.359 1285.79 926.948 1284.1 925.025 1282.79C923.122 1281.45 921.962 1277.98 921.544 1272.37C921.168 1266.77 922.297 1263.15 924.931 1261.52C927.586 1259.87 930.126 1258.81 932.551 1258.33C934.976 1257.82 935.238 1256.79 933.335 1255.22C931.433 1253.65 929.499 1251.99 927.534 1250.23C925.548 1248.48 923.446 1246.5 921.23 1244.31C919.056 1242.11 917.383 1239.81 916.213 1237.41C915.042 1235 914.279 1233.22 913.923 1232.05C913.568 1230.9 913.317 1229.99 913.171 1229.32C913.004 1228.67 912.92 1228.02 912.92 1227.37C912.92 1226.7 913.004 1226.05 913.171 1225.4C913.338 1224.75 913.578 1224.12 913.892 1223.52C914.206 1222.93 914.582 1222.39 915.021 1221.88C915.46 1221.38 915.962 1220.94 916.526 1220.57C917.07 1220.17 917.655 1219.86 918.282 1219.63C918.91 1219.4 919.558 1219.24 920.227 1219.16C920.875 1219.07 921.533 1219.07 922.202 1219.16C922.871 1219.24 923.52 1219.4 924.147 1219.63C924.774 1219.88 925.359 1220.19 925.903 1220.57C926.447 1220.94 926.948 1221.39 927.408 1221.92C927.847 1222.42 928.224 1222.96 928.537 1223.55C928.851 1224.13 929.008 1224.42 929.008 1224.42Z" fill="black"/>
<path d="M888.966 1326.95C888.966 1326.95 889.541 1327.1 890.691 1327.42C891.82 1327.73 893.586 1329.35 895.991 1332.28C898.374 1335.2 899.733 1338.06 900.067 1340.84C900.381 1343.62 900.58 1346.8 900.663 1350.37C900.768 1353.95 900.663 1357.09 900.35 1359.81C900.036 1362.53 899.513 1365.27 898.782 1368.03C898.05 1370.79 897.276 1373.25 896.461 1375.43C895.646 1377.62 894.558 1380.14 893.2 1382.99C891.841 1385.83 890.471 1385.97 889.091 1383.39C887.712 1380.82 888.224 1380.23 890.628 1381.61C893.011 1382.97 894.883 1384.87 896.241 1387.31C897.621 1389.76 898.426 1392.18 898.656 1394.56C898.865 1396.96 899.001 1399.83 899.064 1403.15C899.106 1406.5 899.147 1409.29 899.189 1411.52C899.21 1413.76 899.033 1416.52 898.656 1419.8C898.301 1423.09 897.496 1425.86 896.241 1428.11C894.966 1430.37 892.98 1432.38 890.283 1434.13C887.607 1435.91 884.701 1437.08 881.565 1437.65C878.45 1438.23 876.317 1438.7 875.168 1439.06C874.018 1439.41 872.836 1439.58 871.624 1439.56C870.411 1439.52 869.241 1439.3 868.112 1438.9C866.962 1438.48 865.916 1437.9 864.976 1437.15C864.035 1436.39 863.24 1435.5 862.592 1434.48C861.923 1433.46 861.442 1432.36 861.15 1431.19C860.857 1430.02 860.763 1428.84 860.867 1427.64C860.951 1426.43 861.233 1425.27 861.714 1424.16C862.195 1423.05 862.833 1422.05 863.627 1421.15C864.442 1420.23 865.373 1419.48 866.418 1418.89C867.463 1418.29 868.582 1417.87 869.774 1417.64C870.944 1417.41 872.136 1417.38 873.349 1417.55C874.54 1417.69 875.68 1418.04 876.767 1418.58C877.854 1419.1 878.826 1419.79 879.683 1420.65C880.541 1421.51 881.241 1422.48 881.785 1423.57C882.307 1424.63 882.652 1425.77 882.819 1426.98C882.987 1428.18 882.966 1429.37 882.757 1430.56C882.527 1431.73 882.119 1432.85 881.534 1433.92C880.927 1434.96 880.175 1435.89 879.276 1436.71C878.398 1437.52 877.405 1438.17 876.297 1438.65C875.168 1439.13 874.007 1439.42 872.816 1439.53C871.603 1439.61 870.411 1439.52 869.241 1439.25C868.07 1438.95 866.972 1438.48 865.948 1437.84C864.923 1437.19 864.035 1436.39 863.282 1435.45C862.53 1434.51 861.944 1433.48 861.526 1432.35C861.108 1431.22 860.878 1430.05 860.836 1428.84C860.794 1427.62 860.951 1426.44 861.306 1425.29C861.662 1424.12 862.185 1423.04 862.874 1422.06C863.585 1421.08 864.432 1420.23 865.415 1419.52C866.397 1418.83 866.889 1418.49 866.889 1418.49C866.868 1418.49 868.592 1418.5 872.063 1418.52C875.533 1418.54 877.321 1417.41 877.425 1415.13C877.509 1412.83 877.561 1410.49 877.582 1408.11C877.624 1405.72 877.676 1403.33 877.739 1400.92C877.823 1398.52 876.871 1396.18 874.885 1393.9C872.899 1391.64 871.749 1389.41 871.436 1387.19C871.101 1384.97 871.519 1382.84 872.69 1380.79C873.84 1378.74 874.979 1376.76 876.108 1374.83C877.237 1372.91 878.398 1370.23 879.589 1366.81C880.781 1363.36 881.513 1359.69 881.785 1355.8C882.035 1351.91 882.893 1348.84 884.356 1346.58C885.799 1344.32 886.185 1343.09 885.516 1342.88C884.847 1342.67 884.21 1342.44 883.603 1342.19C882.997 1341.94 882.433 1341.61 881.91 1341.22C881.387 1340.82 880.917 1340.37 880.499 1339.87C880.081 1339.37 879.736 1338.82 879.464 1338.24C879.171 1337.63 878.962 1337.01 878.837 1336.39C878.69 1335.74 878.638 1335.1 878.68 1334.47C878.701 1333.8 878.795 1333.16 878.962 1332.53C879.15 1331.9 879.412 1331.31 879.746 1330.74C880.06 1330.18 880.447 1329.65 880.906 1329.17C881.366 1328.71 881.868 1328.31 882.412 1327.95C882.955 1327.59 883.541 1327.31 884.168 1327.1C884.795 1326.89 885.433 1326.76 886.081 1326.7C886.708 1326.65 887.346 1326.69 887.994 1326.79C888.642 1326.89 888.966 1326.95 888.966 1326.95Z" fill="black"/>
<path d="M1729 625.008C1729 625.008 1728.22 626.325 1726.68 628.959C1725.13 631.593 1723.69 634.499 1722.35 637.677C1721.03 640.834 1721.51 641.942 1723.79 641.001C1726.09 640.061 1728.7 640.228 1731.63 641.503C1734.56 642.799 1736.85 644.587 1738.5 646.866C1740.17 649.124 1741.19 651.883 1741.54 655.145C1741.9 658.406 1742.09 661.688 1742.11 664.992C1742.13 668.295 1742 671.515 1741.73 674.651C1741.46 677.787 1740.71 678.957 1739.47 678.163C1738.22 677.368 1738.11 677.191 1739.16 677.63C1740.2 678.09 1741.14 678.696 1741.98 679.449C1742.84 680.201 1743.55 681.069 1744.11 682.052C1744.68 683.034 1745.06 684.079 1745.27 685.188C1745.48 686.296 1745.51 687.414 1745.37 688.543C1745.22 689.672 1744.9 690.749 1744.4 691.773C1743.89 692.777 1743.25 693.686 1742.45 694.501C1741.66 695.317 1740.76 695.975 1739.75 696.477C1738.73 696.979 1737.65 697.313 1736.52 697.481C1735.42 697.627 1734.3 697.596 1733.17 697.387C1732.06 697.177 1731.02 696.801 1730.03 696.258C1729.03 695.693 1728.15 694.993 1727.4 694.156C1726.62 693.32 1726.02 692.379 1725.58 691.334C1725.12 690.289 1724.85 689.202 1724.76 688.073C1724.66 686.944 1724.74 685.825 1725.01 684.717C1725.29 683.63 1725.73 682.606 1726.33 681.644C1726.94 680.682 1727.68 679.846 1728.56 679.135C1729.44 678.424 1730.41 677.87 1731.48 677.473C1732.54 677.076 1733.64 676.856 1734.77 676.814C1735.9 676.773 1737 676.919 1738.09 677.253C1739.18 677.588 1740.18 678.079 1741.1 678.727C1742.02 679.396 1742.82 680.191 1743.49 681.111C1744.15 682.031 1744.66 683.034 1744.99 684.121C1745.33 685.188 1745.48 686.296 1745.46 687.445C1745.44 688.574 1745.23 689.672 1744.83 690.738C1744.46 691.804 1743.91 692.777 1743.2 693.655C1742.49 694.554 1741.67 695.306 1740.73 695.913C1739.76 696.54 1738.73 696.989 1737.62 697.261C1736.53 697.533 1735.43 697.627 1734.3 697.543C1733.17 697.46 1732.6 697.418 1732.6 697.418C1732.6 697.418 1730.7 693.456 1726.9 685.532C1723.13 677.63 1721.31 672.225 1721.44 669.319C1721.57 666.434 1721.82 663.852 1722.19 661.573C1722.61 659.295 1721.28 657.685 1718.21 656.744C1715.12 655.803 1712.19 654.34 1709.43 652.354C1706.65 650.347 1704.93 647.796 1704.29 644.702C1703.64 641.608 1703.93 638.566 1705.16 635.576C1706.4 632.607 1707.59 630.088 1708.74 628.018C1709.91 625.949 1711.25 623.586 1712.75 620.931C1714.26 618.255 1715.2 616.666 1715.58 616.164C1715.97 615.642 1716.42 615.171 1716.92 614.753C1717.43 614.335 1717.97 613.99 1718.55 613.718C1719.14 613.425 1719.76 613.216 1720.41 613.091C1721.03 612.966 1721.67 612.913 1722.32 612.934C1722.97 612.955 1723.6 613.06 1724.23 613.248C1724.86 613.436 1725.45 613.687 1726.02 614C1726.58 614.335 1727.1 614.722 1727.56 615.161C1728.04 615.621 1728.44 616.122 1728.78 616.666C1729.13 617.21 1729.42 617.795 1729.62 618.422C1729.83 619.049 1729.96 619.687 1730 620.335C1730.06 620.962 1730.04 621.59 1729.94 622.217C1729.83 622.865 1729.66 623.492 1729.41 624.098C1729.13 624.705 1729 625.008 1729 625.008Z" fill="black"/>
<path d="M2191.01 911.944C2191.01 911.944 2192.55 911.965 2195.65 912.007C2198.74 912.028 2202.52 912.906 2206.97 914.641C2211.42 916.356 2213.61 919.324 2213.52 923.548C2213.44 927.771 2212.61 931.126 2211.05 933.614C2209.46 936.081 2207.86 938.423 2206.25 940.639C2204.64 942.834 2202.89 945.395 2201.01 948.322C2199.13 951.249 2197.71 951.5 2196.75 949.075C2195.81 946.649 2196.97 946.179 2200.23 947.663C2203.51 949.127 2206.54 951.123 2209.32 953.653C2212.12 956.162 2214.12 958.514 2215.31 960.709C2216.52 962.883 2217.62 965.037 2218.6 967.169C2219.61 969.281 2220.61 971.382 2221.62 973.473C2222.62 975.584 2223.58 977.738 2224.5 979.933C2225.44 982.128 2226.26 984.323 2226.95 986.518C2227.64 988.714 2228.24 991.337 2228.77 994.39C2229.31 997.421 2229.49 1000.47 2229.3 1003.55C2229.11 1006.6 2226.94 1010.45 2222.78 1015.09C2218.64 1019.75 2216.06 1022.33 2215.06 1022.83C2214.08 1023.33 2213.03 1023.67 2211.92 1023.84C2210.82 1023.98 2209.71 1023.96 2208.6 1023.77C2207.51 1023.56 2206.48 1023.19 2205.5 1022.64C2204.51 1022.1 2203.65 1021.42 2202.89 1020.61C2202.14 1019.77 2201.54 1018.84 2201.11 1017.82C2200.65 1016.79 2200.36 1015.72 2200.26 1014.62C2200.18 1013.51 2200.26 1012.41 2200.51 1011.32C2200.76 1010.24 2201.19 1009.22 2201.8 1008.28C2202.38 1007.34 2203.11 1006.52 2203.99 1005.8C2204.85 1005.09 2205.8 1004.54 2206.84 1004.14C2207.89 1003.75 2208.97 1003.53 2210.07 1003.48C2211.2 1003.44 2212.3 1003.59 2213.37 1003.92C2214.43 1004.24 2215.43 1004.72 2216.35 1005.37C2217.25 1005.99 2218.03 1006.77 2218.7 1007.69C2219.37 1008.59 2219.87 1009.57 2220.2 1010.63C2220.54 1011.7 2220.7 1012.79 2220.67 1013.9C2220.65 1015 2220.45 1016.09 2220.08 1017.16C2219.7 1018.2 2219.17 1019.16 2218.48 1020.04C2217.79 1020.92 2216.97 1021.66 2216.03 1022.27C2215.09 1022.87 2214.08 1023.32 2212.99 1023.62C2211.92 1023.89 2210.83 1023.98 2209.7 1023.9C2208.59 1023.82 2207.52 1023.55 2206.5 1023.12C2205.45 1022.7 2204.51 1022.11 2203.68 1021.36C2202.84 1020.63 2202.15 1019.78 2201.61 1018.82C2201.04 1017.84 2200.65 1016.8 2200.42 1015.71C2200.21 1014.63 2200.18 1013.53 2200.32 1012.42C2200.45 1011.31 2200.76 1010.26 2201.26 1009.25C2201.74 1008.25 2202.38 1007.34 2203.18 1006.53C2203.95 1005.73 2204.34 1005.33 2204.34 1005.33C2204.34 1005.33 2205.19 1004.97 2206.91 1004.24C2208.64 1003.5 2209.44 1001.86 2209.29 999.313C2209.14 996.783 2208.44 993.846 2207.19 990.501C2205.94 987.135 2204.27 983.435 2202.2 979.4C2200.13 975.365 2198.05 972.061 2195.96 969.49C2193.87 966.918 2191.67 965.047 2189.35 963.876C2186.98 962.706 2184.77 960.218 2182.7 956.413C2180.63 952.608 2180.13 949.43 2181.19 946.879C2182.24 944.329 2183.9 941.475 2186.18 938.318C2188.44 935.161 2191.34 932.611 2194.9 930.666C2198.49 928.743 2198.74 927.792 2195.65 927.812C2192.55 927.854 2190.69 927.833 2190.07 927.75C2189.44 927.666 2188.82 927.509 2188.22 927.279C2187.61 927.07 2187.05 926.778 2186.52 926.401C2186 926.046 2185.53 925.628 2185.11 925.147C2184.67 924.666 2184.31 924.143 2184.01 923.579C2183.72 923.014 2183.5 922.419 2183.36 921.791C2183.19 921.164 2183.11 920.537 2183.11 919.91C2183.11 919.283 2183.19 918.655 2183.36 918.028C2183.5 917.401 2183.72 916.805 2184.01 916.241C2184.31 915.676 2184.67 915.154 2185.11 914.673C2185.53 914.192 2186 913.774 2186.52 913.418C2187.05 913.042 2187.61 912.749 2188.22 912.54C2188.82 912.31 2189.44 912.153 2190.07 912.07C2190.69 911.986 2191.01 911.944 2191.01 911.944Z" fill="black"/>
<path d="M714.186 80.3651C715.598 72.6819 723.845 53.9286 735.668 58.8835M735.668 58.8835C1144.76 55.183 1549.33 57.2842 2150.66 58.8835H735.668ZM735.668 58.8835C1187.47 61.6118 1636.42 62.6467 2150.66 58.8835H735.668ZM2150.66 58.8835C2159.44 63.7443 2177.13 64.6224 2172.11 80.3651L2150.66 58.8835ZM2150.66 58.8835C2163.42 61.2982 2165.68 64.4029 2172.11 80.3651L2150.66 58.8835ZM2172.11 80.3651C2173.21 97.1427 2174.59 109.279 2172.11 123.328V80.3651ZM2172.11 80.3651C2173.9 95.9823 2170.14 114.579 2172.11 123.328V80.3651ZM2172.11 123.328C2172.33 131.795 2159.85 149.075 2150.66 144.81L2172.11 123.328ZM2172.11 123.328C2179.04 131.827 2170.04 148.918 2150.66 144.81L2172.11 123.328ZM2150.66 144.81C1789.08 140.106 1420.88 138.036 735.668 144.81H2150.66ZM2150.66 144.81C1654.48 149.796 1155.01 148.855 735.668 144.81H2150.66ZM735.668 144.81C726.73 147.068 712.242 136.938 714.186 123.328L735.668 144.81ZM735.668 144.81C721.211 143.305 718.483 141.141 714.186 123.328L735.668 144.81ZM714.186 123.328C714.155 109.342 716.977 97.4249 714.186 80.3651V123.328ZM714.186 123.328C716.068 107.805 715.033 92.5328 714.186 80.3651V123.328ZM714.186 80.3651C712.273 61.361 724.504 53.4269 735.668 58.8835L714.186 80.3651Z" stroke="black" stroke-width="6.27199" stroke-linecap="round"/>
<path d="M107.591 87.3371C110.821 90.0968 112.86 93.6404 114.616 97.1528C116.341 100.696 119.226 104.616 118.065 108.505C116.936 112.362 110.758 118.76 107.748 120.359C104.737 121.927 104.424 118.697 100.033 117.944C95.643 117.223 84.3847 117.944 81.3742 115.937C78.3636 113.899 82.0641 110.763 81.9073 105.777C81.7505 100.759 77.6424 90.0027 80.4334 85.8945C83.1931 81.755 93.7614 80.971 98.5908 80.971C103.42 81.0024 107.999 85.0792 109.379 85.9572C110.758 86.8353 106.901 85.9886 106.838 86.2708M103.075 81.0024C107.654 81.9118 113.016 85.8632 115.807 89.1873C118.63 92.5115 120.135 96.4942 119.978 100.979C119.822 105.495 117.971 113.24 114.867 116.157C111.793 119.042 105.678 118.289 101.476 118.383C97.2423 118.478 93.4164 119.167 89.5278 116.69C85.6705 114.244 79.7748 107.564 78.3009 103.582C76.827 99.6302 78.3323 96.7137 80.747 92.8564C83.1931 88.9678 88.6183 82.2568 92.9147 80.4065C97.211 78.5563 103.859 80.5633 106.462 81.7237C109.065 82.884 108.218 86.4904 108.532 87.4312L103.075 81.0024Z" stroke="black" stroke-width="6.27199" stroke-linecap="round"/>
<path d="M183.915 83.6681C188.336 84.3266 193.04 85.4242 196.365 87.4313C199.72 89.4696 204.016 91.414 203.954 95.773C203.891 100.132 199.312 110.136 195.957 113.554C192.601 117.004 187.552 114.903 183.821 116.376C180.089 117.819 176.765 122.993 173.597 122.304C170.43 121.582 165.757 116.188 164.785 112.143C163.813 108.097 166.071 102.233 167.796 98.0309C169.52 93.8287 172.813 89.7832 175.071 86.8668C177.36 83.9817 179.869 81.661 181.5 80.5948C183.099 79.5285 184.071 79.9049 184.824 80.4693M180.214 80.3439C183.946 79.5599 191.065 83.8562 194.358 85.6437C197.682 87.4313 198.497 87.3058 200.002 91.1004C201.539 94.8949 204.048 104.366 203.515 108.411C203.013 112.488 201.006 113.084 196.929 115.53C192.852 117.976 183.821 123.15 179.117 123.088C174.381 123.056 170.9 118.854 168.642 115.216C166.384 111.578 165.412 105.369 165.538 101.198C165.663 97.0274 166.134 93.2956 169.458 90.1909C172.751 87.0549 182.503 83.8876 185.42 82.5077C188.305 81.1593 187.364 81.4101 186.831 81.9119L180.214 80.3439Z" stroke="black" stroke-width="6.27199" stroke-linecap="round"/>
<path d="M265.979 79.0896C270.652 76.9885 275.199 81.6925 278.209 84.0131C281.251 86.3024 282.819 89.4698 284.168 92.9194C285.485 96.3689 285.861 101.888 286.175 104.711C286.52 107.533 288.746 106.812 286.175 109.791C283.635 112.77 275.073 120.924 270.871 122.586C266.638 124.248 263.533 122.053 260.867 119.826C258.202 117.6 256.885 113.774 254.878 109.289C252.871 104.773 247.038 96.9648 248.825 92.8566C250.581 88.7485 263.596 86.271 265.509 84.5776C267.39 82.8842 260.742 82.8528 260.177 82.696M277.112 78.8387C281.596 80.5322 287.21 88.2467 289.217 92.1354C291.255 95.9926 289.969 98.7523 289.28 102.076C288.558 105.401 288.088 109.007 285.015 112.049C281.941 115.091 275.199 119.23 270.84 120.297C266.481 121.394 262.028 120.642 258.86 118.572C255.693 116.533 252.651 112.08 251.898 107.972C251.177 103.864 252.181 98.6582 254.407 93.9542C256.665 89.2502 261.871 81.2534 265.352 79.8109C268.864 78.3997 273.317 85.1734 275.387 85.4243C277.457 85.6438 277.363 81.3789 277.77 81.1907L277.112 78.8387Z" stroke="black" stroke-width="6.27199" stroke-linecap="round"/>
<path d="M245.254 250.399C250.836 234.782 257.422 235.786 261.969 250.399M261.969 250.399C267.833 254.131 268.303 259.337 278.119 267.647L261.969 250.399ZM261.969 250.399C267.551 255.135 271.063 260.748 278.119 267.647L261.969 250.399ZM278.119 267.647C280.628 276.428 281.161 274.672 278.119 284.362V267.647ZM278.119 267.647C290.757 281.414 282.039 282.167 278.119 284.362V267.647ZM278.119 284.362C270.969 289.192 264.478 294.742 261.969 300.513L278.119 284.362ZM278.119 284.362C273.948 289.16 269.276 292.735 261.969 300.513L278.119 284.362ZM261.969 300.513C250.742 307.757 247.794 305.656 245.254 300.513H261.969ZM261.969 300.513C248.923 311.865 247.543 310.736 245.254 300.513H261.969ZM245.254 300.513C241.804 297.188 234.811 292.829 228.006 284.362L245.254 300.513ZM245.254 300.513C239.735 294.335 234.874 289.38 228.006 284.362L245.254 300.513ZM228.006 284.362C218.817 280.787 217.532 272.163 228.006 267.647V284.362ZM228.006 284.362C213.361 280.505 216.748 269.498 228.006 267.647V284.362ZM228.006 267.647C231.895 259.964 237.477 256.985 245.254 250.399L228.006 267.647ZM228.006 267.647C232.145 262.536 238.041 257.926 245.254 250.399L228.006 267.647ZM245.254 250.399C249.362 237.793 256.512 241.838 261.969 250.399H245.254Z" stroke="black" stroke-width="6.27199" stroke-linecap="round"/>
<path d="M345.638 250.399C360.001 241.085 352.976 245.162 362.353 250.399M362.353 250.399C370.068 255.479 373.611 261.375 378.503 267.647L362.353 250.399ZM362.353 250.399C367.371 254.727 370.162 258.741 378.503 267.647L362.353 250.399ZM378.503 267.647C381.733 273.135 385.748 270.187 378.503 284.362V267.647ZM378.503 267.647C383.207 271.316 389.856 269.936 378.503 284.362V267.647ZM378.503 284.362C371.071 291.104 368.97 294.178 362.353 300.512L378.503 284.362ZM378.503 284.362C371.73 289.599 366.116 295.683 362.353 300.512L378.503 284.362ZM362.353 300.512C348.523 308.007 358.778 306.722 345.638 300.512H362.353ZM362.353 300.512C349.527 302.582 358.496 305.969 345.638 300.512H362.353ZM345.638 300.512C344.196 294.962 336.826 291.387 328.39 284.362L345.638 300.512ZM345.638 300.512C339.868 293.864 333.91 288.752 328.39 284.362L345.638 300.512ZM328.39 284.362C325.38 271.755 315.783 278.905 328.39 267.647V284.362ZM328.39 284.362C319.829 273.229 312.773 279.815 328.39 267.647V284.362ZM328.39 267.647C331.213 265.389 334.443 260.936 345.638 250.399L328.39 267.647ZM328.39 267.647C334.066 260.56 342.251 253.943 345.638 250.399L328.39 267.647ZM345.638 250.399C351.502 241.148 350.279 235.691 362.353 250.399H345.638Z" stroke="black" stroke-width="6.27199" stroke-linecap="round"/>
<path d="M466.093 250.4C478.292 240.741 468.727 244.629 482.808 250.4M482.808 250.4C484.846 254.853 493.094 259.024 498.958 267.648L482.808 250.4ZM482.808 250.4C486.007 253.253 490.679 257.236 498.958 267.648L482.808 250.4ZM498.958 267.648C512.819 270.815 502.722 270.188 498.958 284.362V267.648ZM498.958 267.648C510.467 277.118 510.844 277.84 498.958 284.362V267.648ZM498.958 284.362C497.704 285.962 490.867 291.889 482.808 300.513L498.958 284.362ZM498.958 284.362C494.568 288.094 489.456 294.398 482.808 300.513L498.958 284.362ZM482.808 300.513C472.491 312.586 471.142 310.768 466.093 300.513H482.808ZM482.808 300.513C479.672 303.774 468.226 303.9 466.093 300.513H482.808ZM466.093 300.513C460.981 296.436 456.591 290.697 448.845 284.362L466.093 300.513ZM466.093 300.513C460.103 294.962 452.389 287.906 448.845 284.362L466.093 300.513ZM448.845 284.362C444.925 275.331 437.744 272.132 448.845 267.648V284.362ZM448.845 284.362C433.479 273.198 441.695 272.352 448.845 267.648V284.362ZM448.845 267.648C453.863 261.25 459.758 256.828 466.093 250.4L448.845 267.648ZM448.845 267.648C454.082 261.815 458.159 257.33 466.093 250.4L448.845 267.648ZM466.093 250.4C475.062 237.323 476.066 236.946 482.808 250.4H466.093Z" stroke="black" stroke-width="6.27199" stroke-linecap="round"/>
<path d="M566.533 250.4C568.729 237.417 573.84 246.417 583.248 250.4M583.248 250.4C589.395 254.508 593.252 263.132 599.399 267.648L583.248 250.4ZM583.248 250.4C587.827 254.226 591.402 258.961 599.399 267.648L583.248 250.4ZM599.399 267.648C612.288 279.282 611.598 270.188 599.399 284.363V267.648ZM599.399 267.648C606.862 274.484 606.078 276.554 599.399 284.363V267.648ZM599.399 284.363C595.761 287.593 590.43 296.123 583.248 300.513L599.399 284.363ZM599.399 284.363C594.82 289.192 589.175 292.736 583.248 300.513L599.399 284.363ZM583.248 300.513C578.325 309.294 572.272 310.109 566.533 300.513H583.248ZM583.248 300.513C578.764 309.168 568.729 305.217 566.533 300.513H583.248ZM566.533 300.513C562.519 298.224 560.387 294.586 549.285 284.363L566.533 300.513ZM566.533 300.513C561.704 296.656 558.819 292.861 549.285 284.363L566.533 300.513ZM549.285 284.363C538.78 271.975 544.832 273.543 549.285 267.648V284.363ZM549.285 284.363C533.606 274.892 541.54 278.373 549.285 267.648V284.363ZM549.285 267.648C550.634 263.006 554.115 260.748 566.533 250.4L549.285 267.648ZM549.285 267.648C553.989 263.038 557.909 260.717 566.533 250.4L549.285 267.648ZM566.533 250.4C578.199 245.633 571.332 238.734 583.248 250.4H566.533Z" stroke="black" stroke-width="6.27199" stroke-linecap="round"/>
<path d="M203.504 558.138C201.246 543.085 214.825 548.416 215.954 545.688M215.954 545.688C219.686 546.221 225.048 546.911 240.854 545.688H215.954ZM215.954 545.688C223.48 545.437 230.379 545.312 240.854 545.688H215.954ZM240.854 545.688C244.93 550.611 248.066 546.127 253.335 558.138L240.854 545.688ZM240.854 545.688C249.917 550.768 252.896 556.821 253.335 558.138L240.854 545.688ZM253.335 558.138C252.927 565.257 251.61 571.905 253.335 583.038V558.138ZM253.335 558.138C254.056 568.988 252.112 576.985 253.335 583.038V558.138ZM253.335 583.038C248.913 592.446 246.373 589.686 240.854 595.519L253.335 583.038ZM253.335 583.038C256.314 595.895 244.209 595.676 240.854 595.519L253.335 583.038ZM240.854 595.519C229.188 593.512 220.219 594.327 215.954 595.519H240.854ZM240.854 595.519C233.484 595.111 227.118 595.111 215.954 595.519H240.854ZM215.954 595.519C206.013 595.299 206.232 589.184 203.504 583.038L215.954 595.519ZM215.954 595.519C210.34 593.324 206.577 586.644 203.504 583.038L215.954 595.519ZM203.504 583.038C204.225 576.295 203.817 566.574 203.504 558.138V583.038ZM203.504 583.038C203.41 576.891 202.751 567.075 203.504 558.138V583.038ZM203.504 558.138C204.57 549.545 204.288 540.012 215.954 545.688L203.504 558.138Z" stroke="black" stroke-width="6.27199" stroke-linecap="round"/>
<path d="M203.504 629.811C198.393 627.898 202.501 617.33 215.954 617.361M215.954 617.361C224.515 619.494 232.732 619.556 240.854 617.361H215.954ZM215.954 617.361C220.501 617.11 226.334 617.173 240.854 617.361H215.954ZM240.854 617.361C245.37 615.699 251.015 619.87 253.335 629.811L240.854 617.361ZM240.854 617.361C247.283 617.11 256.471 619.023 253.335 629.811L240.854 617.361ZM253.335 629.811C251.61 638.31 255.499 645.397 253.335 654.711V629.811ZM253.335 629.811C252.708 638.184 252.99 647.843 253.335 654.711V629.811ZM253.335 654.711C252.426 669.199 245.025 661.14 240.854 667.192L253.335 654.711ZM253.335 654.711C254.558 662.676 245.276 660.638 240.854 667.192L253.335 654.711ZM240.854 667.192C235.115 666.283 227.902 666.816 215.954 667.192H240.854ZM240.854 667.192C231.822 668.572 221.881 667.286 215.954 667.192H240.854ZM215.954 667.192C209.964 667.757 204.225 666.753 203.504 654.711L215.954 667.192ZM215.954 667.192C208.114 667.569 200.149 656.969 203.504 654.711L215.954 667.192ZM203.504 654.711C203.034 645.993 202.03 635.519 203.504 629.811V654.711ZM203.504 654.711C204.225 646.62 203.881 637.839 203.504 629.811V654.711ZM203.504 629.811C197.922 620.309 201.434 620.874 215.954 617.361L203.504 629.811Z" stroke="black" stroke-width="6.27199" stroke-linecap="round"/>
<path d="M203.504 776.216C204.257 764.111 206.86 765.742 215.954 763.766M215.954 763.766C219.937 764.08 225.613 765.711 240.854 763.766H215.954ZM215.954 763.766C226.397 763.672 234.331 764.143 240.854 763.766H215.954ZM240.854 763.766C249.729 764.488 257.067 768.314 253.335 776.216L240.854 763.766ZM240.854 763.766C249.541 760.411 247.251 772.579 253.335 776.216L240.854 763.766ZM253.335 776.216C253.837 780.575 252.457 788.604 253.335 801.116V776.216ZM253.335 776.216C253.022 782.488 252.112 787.161 253.335 801.116V776.216ZM253.335 801.116C252.112 803.217 252.708 809.144 240.854 813.597L253.335 801.116ZM253.335 801.116C259.733 804.284 249.133 817.674 240.854 813.597L253.335 801.116ZM240.854 813.597C235.648 812.5 228.686 811.841 215.954 813.597H240.854ZM240.854 813.597C233.767 813.911 227.557 814.036 215.954 813.597H240.854ZM215.954 813.597C212.505 817.392 207.675 812.939 203.504 801.116L215.954 813.597ZM215.954 813.597C210.09 809.834 208.585 811.026 203.504 801.116L215.954 813.597ZM203.504 801.116C205.511 792.085 202.25 785.373 203.504 776.216V801.116ZM203.504 801.116C204.414 792.743 204.853 783.805 203.504 776.216V801.116ZM203.504 776.216C203.881 764.425 212.442 762.732 215.954 763.766L203.504 776.216Z" stroke="black" stroke-width="6.27199" stroke-linecap="round"/>
<path d="M298.121 702.104C298.247 689.56 306.431 696.271 310.571 689.654M310.571 689.654C315.15 690.877 322.927 688.776 335.471 689.654H310.571ZM310.571 689.654C315.934 690.375 320.23 690.658 335.471 689.654H310.571ZM335.471 689.654C340.238 691.849 352.248 689.623 347.952 702.104L335.471 689.654ZM335.471 689.654C337.29 684.95 342.715 699.783 347.952 702.104L335.471 689.654ZM347.952 702.104C346.259 704.864 349.802 712.202 347.952 727.004V702.104ZM347.952 702.104C347.388 708.815 348.987 715.965 347.952 727.004V702.104ZM347.952 727.004C345.475 731.175 337.948 736.788 335.471 739.485L347.952 727.004ZM347.952 727.004C349.426 731.394 347.137 740.332 335.471 739.485L347.952 727.004ZM335.471 739.485C327.066 740.583 320.638 739.14 310.571 739.485H335.471ZM335.471 739.485C327.756 739.203 322.049 738.419 310.571 739.485H335.471ZM310.571 739.485C303.64 734.624 301.226 734.405 298.121 727.004L310.571 739.485ZM310.571 739.485C296.271 742.339 300.473 734.405 298.121 727.004L310.571 739.485ZM298.121 727.004C300.128 717.031 296.71 711.512 298.121 702.104V727.004ZM298.121 727.004C298.309 718.286 298.309 708.313 298.121 702.104V727.004ZM298.121 702.104C296.396 689.246 297.557 695.267 310.571 689.654L298.121 702.104Z" stroke="black" stroke-width="6.27199" stroke-linecap="round"/>
</svg>
