<svg width="2511" height="1767" viewBox="0 0 2511 1767" fill="none" xmlns="http://www.w3.org/2000/svg">
<path d="M105.364 280.991C157.758 222.942 214.522 173.873 272.575 119.888M271.429 120.707C332.24 182.789 400.93 236.184 451.247 284.237L271.429 120.707ZM272.002 123.067C328.157 168.563 387.929 223.466 444.407 279.549L272.002 123.067ZM442.831 280.27C406.087 317.736 361.607 353.791 276.085 434.524L442.831 280.27ZM448.418 275.419C398.817 323.701 354.802 363.494 275.727 431.901L448.418 275.419ZM268.958 431.279C228.668 386.34 172.119 342.647 102.964 282.925L268.958 431.279ZM275.261 431.115C211.836 373.688 147.444 312.327 106.51 277.025L275.261 431.115ZM98.0576 282.27C146.405 236.512 182.398 198.62 270.534 125.624L98.0576 282.27Z" stroke="black" stroke-width="13.1101" stroke-linecap="round"/>
<path d="M555.737 276.37C620.953 217.6 685.489 156.633 727.175 120.904M728.715 117.758C762.165 157.813 799.124 196.425 895.891 282.664L728.715 117.758ZM723.415 117.954C779.283 169.055 832.287 218.419 896.249 278.796L723.415 117.954ZM902.588 278.14C859.648 305.608 823.083 347.466 723.021 430.034L902.588 278.14ZM894.817 277.157C839.127 329.143 783.617 382.112 727.211 430.984L894.817 277.157ZM732.547 435.245C681.549 384.046 623.568 337.469 554.269 274.109L732.547 435.245ZM723.701 436.098C690.18 403.32 654.116 372.246 550.616 279.517L723.701 436.098ZM560.859 279.386C601.65 239.364 641.152 196.064 722.054 118.02L560.859 279.386Z" stroke="black" stroke-width="13.1101" stroke-linecap="round"/>
<path d="M38.8222 946.358C31.6237 836.256 35.2767 728.482 37.139 635.393M39.5026 641.654C135.84 638.671 240.45 645.456 446.519 640.506L39.5026 641.654ZM34.9902 639.851C188.235 639.425 344.309 642.473 443.189 638.179L34.9902 639.851ZM435.489 637.524C443.368 733.006 442.687 835.863 439.858 943.047L435.489 637.524ZM441.112 634.705C441.935 730.416 443.654 822.686 442.258 942.391L441.112 634.705ZM443.977 949.701C321.424 945.309 183.543 943.834 29.4033 947.341L443.977 949.701ZM439.572 941.867C290.052 943.899 136.592 942.883 39.0729 946.751L439.572 941.867ZM40.4338 944.424C29.4391 881.523 39.2161 814.689 33.9158 633.623L40.4338 944.424Z" stroke="black" stroke-width="13.1101" stroke-linecap="round"/>
<path d="M579.967 939.57C582.187 881.029 586.162 815.997 581.399 634.309M587.595 635.85C736.757 636.407 885.775 635.915 993.108 636.571L587.595 635.85ZM580.898 635.096C666.778 631.293 753.123 634.178 987.7 631.72L580.898 635.096ZM987.234 639.98C979.391 730.053 981.504 811.113 979.57 946.29L987.234 639.98ZM985.264 631.556C987.771 700.684 991.138 772.009 982.793 943.635L985.264 631.556ZM980.179 936.489C843.552 932.49 701.767 944.225 586.342 938.489L980.179 936.489ZM989.204 943.307C890.36 938.489 799.143 941.439 583.62 942.52L989.204 943.307ZM586.198 947.863C588.24 837.369 581.005 745.23 586.95 639.717L586.198 947.863Z" stroke="black" stroke-width="13.1101" stroke-linecap="round"/>
<path d="M274.12 436.974C275.409 467.523 273.69 597.291 274.228 629.184M277.093 440.71C278.31 470.866 277.308 593.947 275.947 624.562L277.093 440.71Z" stroke="black" stroke-width="13.1101" stroke-linecap="round"/>
<path d="M739.989 457.277C738.879 486.417 738.306 600.32 738.771 628.28M745.003 459.932C744.573 488.318 742.675 596.354 742.675 624.904L745.003 459.932Z" stroke="black" stroke-width="13.1101" stroke-linecap="round"/>
<path d="M1371.31 1732.01C1368.02 1596.51 1367.59 1460.21 1369.7 1368.76M1374.82 1362.31C1488.64 1377.19 1606.46 1369.09 1776.58 1364.57L1374.82 1362.31ZM1375.18 1371.19C1504.79 1364.83 1632.64 1366.86 1771.99 1365.29L1375.18 1371.19ZM1768.41 1363.55C1778.4 1461.66 1772.46 1557.99 1772.78 1738.7L1768.41 1363.55ZM1769.45 1370.3C1768.59 1463.3 1773.75 1559.53 1774.89 1731.12L1769.45 1370.3ZM1770.95 1731.55C1657.5 1741.22 1539.99 1740.99 1374.93 1735.88L1770.95 1731.55ZM1768.73 1732.93C1647.79 1736.73 1520.26 1737.84 1370.27 1732.83L1768.73 1732.93ZM1371.56 1734.21C1376.18 1637.77 1374.57 1536.62 1367.27 1369.52L1371.56 1734.21Z" stroke="black" stroke-width="13.1101" stroke-linecap="round"/>
<path d="M1427.03 327.329C1432.04 261.15 1429 189.891 1428.39 35.7029M1423.77 36.8501C1539.8 31.1467 1640.15 42.0946 1753.29 39.9312L1423.77 36.8501ZM1423.3 30.9173C1490.74 33.0151 1557.82 33.8018 1751.53 33.4084L1423.3 30.9173ZM1744.15 28.9834C1748.09 151.934 1745.16 266.722 1743.22 329.361L1744.15 28.9834ZM1747.38 33.0806C1745.69 103.422 1749.17 170.584 1749.24 330.836L1747.38 33.0806ZM1743.69 331.622C1622.5 336.048 1501.02 328.967 1432.94 328.738L1743.69 331.622ZM1746.12 328.672C1651 333.687 1545.96 334.54 1424.02 331.229L1746.12 328.672ZM1426.92 335.392C1423.56 216.178 1428.64 101.718 1423.88 31.3762L1426.92 335.392Z" stroke="black" stroke-width="13.1101" stroke-linecap="round"/>
<path d="M1427.17 688.093C1421.87 597.527 1422.44 508.371 1424.2 391.354M1425.52 394.796C1520.79 391.846 1621.78 387.355 1750.49 397.647L1425.52 394.796ZM1427.24 394.075C1517.6 390.207 1605.38 389.06 1752.14 395.058L1427.24 394.075ZM1755.47 389.945C1747.91 492.474 1743.4 587.399 1751.6 690.814L1755.47 389.945ZM1748.06 388.765C1745.98 490.77 1749.35 583.925 1746.77 690.355L1748.06 388.765ZM1744.55 687.011C1627.33 679.079 1513.09 682.717 1424.77 687.142L1744.55 687.011ZM1747.45 686.061C1626.4 687.765 1508.86 692.026 1424.63 689.634L1747.45 686.061ZM1420.04 691.862C1422.77 621.062 1424.63 556.948 1431.51 386.044L1420.04 691.862Z" stroke="black" stroke-width="13.1101" stroke-linecap="round"/>
<path d="M1391.09 957.585C1441.12 910.418 1498.64 860.366 1585.45 777.142M1582.58 773.897C1659.69 846.435 1728.31 913.925 1776.19 954.734L1582.58 773.897ZM1586.88 776.094C1652.2 837.454 1716.56 899.339 1776.83 961.387L1586.88 776.094ZM1781.99 964.108C1707.11 1027.24 1632.29 1096.43 1580.9 1133.57L1781.99 964.108ZM1776.19 958.667C1723.4 1008.16 1668.43 1057.36 1587.1 1134.62L1776.19 958.667ZM1585.34 1138.32C1524.24 1084.89 1465.8 1024.98 1394.42 961.453L1585.34 1138.32ZM1584.59 1135.93C1547.52 1096.73 1508.27 1064.31 1388.22 955.717L1584.59 1135.93ZM1388.01 963.289C1456.45 898.913 1531.37 836.208 1579.93 775.864L1388.01 963.289Z" stroke="black" stroke-width="13.1101" stroke-linecap="round"/>
<path d="M1965.38 675.229C1966.1 584.237 1964.67 495.442 1967.43 417.758M1964.63 415.299C2149.25 415.562 2336.05 413.038 2472.71 416.906L1964.63 415.299ZM1969.18 418.512C2162.79 416.021 2365.13 419.069 2462.83 414.087L1969.18 418.512ZM2464.08 409.629C2463.44 488.231 2466.66 570.143 2465.73 667.821L2464.08 409.629ZM2467.52 413.431C2462.47 510.552 2464.91 611.345 2462.44 671.427L2467.52 413.431ZM2465.44 667.133C2286.31 676.966 2095.92 674.016 1970.22 675.458L2465.44 667.133ZM2462.11 669.722C2343.5 674.901 2219.69 673.459 1969.5 671.886L2462.11 669.722ZM1968.18 675.294C1965.03 602.953 1963.56 521.041 1973.48 410.055L1968.18 675.294Z" stroke="black" stroke-width="13.1101" stroke-linecap="round"/>
<path d="M2076.03 1732.39C2074.6 1648.61 2077.86 1569.91 2074.2 1370.33M2079.97 1362.56C2227.02 1370.78 2383.52 1366.19 2468.72 1370.98L2079.97 1362.56ZM2076.71 1371.41C2186.51 1374.19 2296.82 1372.39 2473.31 1369.64L2076.71 1371.41ZM2474.13 1365.7C2480.29 1446.7 2476.92 1518.61 2475.85 1739.6L2474.13 1365.7ZM2471.77 1368.36C2472.19 1503.47 2474.85 1634.15 2474.52 1736.39L2471.77 1368.36ZM2481.26 1734.23C2401.61 1733.08 2320.53 1732.95 2076.35 1731.21L2481.26 1734.23ZM2475.53 1731.05C2370.2 1738.32 2266.41 1736.19 2075.28 1732L2475.53 1731.05ZM2079.72 1738.52C2076.35 1596.92 2082.58 1460.56 2077.71 1369.87L2079.72 1738.52Z" stroke="black" stroke-width="13.1101" stroke-linecap="round"/>
<path d="M193.327 1014.71C278.813 1059.19 617.498 1232.62 702.734 1276.41M197.231 1007.21C282.788 1051.29 620.041 1228.75 704.811 1273.27L197.231 1007.21Z" stroke="black" stroke-width="13.1101" stroke-linecap="round"/>
<path d="M595.975 1258.25C633.973 1269.69 673.976 1273.56 705.921 1275.36M593.038 1264.48C613.666 1268.91 639.38 1271.46 701.445 1272.02L593.038 1264.48Z" stroke="black" stroke-width="13.1101" stroke-linecap="round"/>
<path d="M631.895 1199.58C656.498 1232.2 683.358 1257.53 705.921 1275.36M628.958 1205.78C641.493 1223.48 659.22 1239.11 701.444 1272.02L628.958 1205.78Z" stroke="black" stroke-width="13.1101" stroke-linecap="round"/>
<path d="M840.596 1011.47C840.739 1051.66 845.359 1205.88 846.791 1244.82M844.75 1004.42C845.323 1045.56 849.083 1209.84 848.475 1251.08L844.75 1004.42Z" stroke="black" stroke-width="13.1101" stroke-linecap="round"/>
<path d="M808.937 1151.99C813.27 1174.71 824.014 1195.91 843.496 1246.98M801.846 1158.42C822.689 1178.97 837.802 1223.55 849.334 1244.59L801.846 1158.42Z" stroke="black" stroke-width="13.1101" stroke-linecap="round"/>
<path d="M882.389 1149.99C870.105 1172.71 864.268 1194.37 843.496 1246.98M875.334 1156.42C870.249 1178.02 859.433 1223.32 849.334 1244.59L875.334 1156.42Z" stroke="black" stroke-width="13.1101" stroke-linecap="round"/>
<path d="M810.045 1285.64C821.29 1282.27 837.37 1287.97 847.434 1291.71C857.533 1295.41 864.552 1299.87 870.461 1308.03C876.371 1316.19 884.214 1329.34 882.889 1340.61C881.564 1351.89 871.715 1368.08 862.547 1375.75C853.379 1383.42 839.662 1387.85 827.88 1386.67C816.133 1385.52 800.411 1376.27 791.959 1368.77C783.471 1361.26 779.747 1351.99 776.989 1341.66C774.231 1331.3 769.791 1315.41 775.449 1306.72C781.143 1298.07 805.64 1291.67 811.047 1289.64C816.455 1287.64 807.932 1293.67 807.932 1294.66M840.701 1288.46C851.767 1291.08 865.197 1300.3 871.858 1309.11C878.484 1317.93 881.886 1331.5 880.597 1341.43C879.307 1351.4 873.076 1362.11 864.158 1368.77C855.277 1375.39 839.197 1379.98 827.235 1381.22C815.238 1382.47 800.554 1381.68 792.245 1376.21C783.937 1370.7 779.174 1358.67 777.311 1348.32C775.413 1337.96 776.165 1323.31 780.964 1314C785.763 1304.72 795.827 1297.02 806.069 1292.63C816.312 1288.2 835.651 1287.61 842.348 1287.61C849.081 1287.58 846.896 1291.54 846.467 1292.53L840.701 1288.46Z" stroke="black" stroke-width="13.1101" stroke-linecap="round"/>
<path d="M921.201 1368.4C988.136 1400.69 1247.14 1528.06 1312.46 1560.54M913.967 1361.81C980.973 1395.34 1247.78 1532.39 1314.54 1566.97L913.967 1361.81Z" stroke="black" stroke-width="13.1101" stroke-linecap="round"/>
<path d="M1209.46 1544.38C1232.02 1547.43 1251.11 1550.87 1309.56 1558.02M1199.29 1550.09C1233.13 1553.79 1262.39 1548.42 1309.67 1566.12L1199.29 1550.09Z" stroke="black" stroke-width="13.1101" stroke-linecap="round"/>
<path d="M1244.34 1485.19C1259.28 1501.54 1270.6 1518.19 1309.56 1558.02M1234.21 1490.89C1259.82 1508.49 1280.8 1517.11 1309.67 1566.12L1234.21 1490.89Z" stroke="black" stroke-width="13.1101" stroke-linecap="round"/>
<path d="M890.495 363.139C976.626 351.339 1313.27 309.777 1398.29 298.96M883.261 366.843C969.929 356.092 1315.99 315.644 1402.77 303.844L883.261 366.843Z" stroke="black" stroke-width="13.1101" stroke-linecap="round"/>
<path d="M1304.96 342.818C1325.48 333.771 1346.29 320.234 1394.85 297.354M1302.38 341.67C1334.72 331.902 1344.89 323.806 1404.63 298.403L1302.38 341.67Z" stroke="black" stroke-width="13.1101" stroke-linecap="round"/>
<path d="M1295 276.179C1317.71 282.211 1340.77 283.817 1394.85 297.354M1292.43 275.032C1327.49 282.407 1340.24 291.454 1404.63 298.403L1292.43 275.032Z" stroke="black" stroke-width="13.1101" stroke-linecap="round"/>
<path d="M1595.77 323.721C1596.38 337.225 1590.18 384.688 1589 397.242M1588.96 325.097C1589.82 336.439 1591.94 381.443 1592.4 393.046L1588.96 325.097Z" stroke="black" stroke-width="13.1101" stroke-linecap="round"/>
<path d="M1592.38 697.164C1590.34 711.554 1584.57 765.736 1583.03 780.092M1586.08 699.557C1585.11 713.192 1587.19 763.048 1587.33 776.257L1586.08 699.557Z" stroke="black" stroke-width="13.1101" stroke-linecap="round"/>
<path d="M1813.91 1595.6C1847.72 1595.7 1982.7 1592.49 2014.47 1591.44M1817.92 1588.62C1850.16 1588.26 1974.64 1587.11 2006.34 1588.19L1817.92 1588.62Z" stroke="black" stroke-width="13.1101" stroke-linecap="round"/>
<path d="M1925.15 1624.61C1952.72 1610.97 1990.33 1600.91 2012.17 1590.98M1918.92 1619.59C1939.65 1613.86 1973.64 1605.79 2018.41 1586.09L1918.92 1619.59Z" stroke="black" stroke-width="13.1101" stroke-linecap="round"/>
<path d="M1923.18 1564C1951.79 1571.71 1990.11 1582.95 2012.17 1590.98M1916.98 1558.96C1937.93 1567.61 1972.39 1573.9 2018.41 1586.1L1916.98 1558.96Z" stroke="black" stroke-width="13.1101" stroke-linecap="round"/>
<path d="M1577.34 1129.07C1578.49 1165.19 1592.39 1312 1594.64 1348.65M1582.82 1132.91C1582.79 1170.01 1584.58 1317.38 1586.05 1354.42L1582.82 1132.91Z" stroke="black" stroke-width="13.1101" stroke-linecap="round"/>
<path d="M1550.63 1261.85C1569.46 1295.48 1581.82 1329.44 1594.21 1351.14M1549.3 1255.59C1570.4 1297.12 1587.69 1325.67 1600.19 1353.27L1549.3 1255.59Z" stroke="black" stroke-width="13.1101" stroke-linecap="round"/>
<path d="M1623.94 1257C1614.52 1293.12 1598.62 1328.95 1594.21 1351.14M1622.61 1250.74C1616.81 1293.98 1607.21 1324.33 1600.19 1353.27L1622.61 1250.74Z" stroke="black" stroke-width="13.1101" stroke-linecap="round"/>
<path d="M1722.88 1049.24C1796.87 1094.99 2100.28 1275.34 2173.84 1320.54M1726.64 1051.1C1799.73 1097.75 2092.58 1280.09 2166.14 1325.95L1726.64 1051.1Z" stroke="black" stroke-width="13.1101" stroke-linecap="round"/>
<path d="M2065.79 1296.48C2101.89 1305.56 2141.07 1311.98 2176.77 1322.24M2074.74 1291.89C2115.17 1303 2156.57 1317.1 2173.23 1326.31L2074.74 1291.89Z" stroke="black" stroke-width="13.1101" stroke-linecap="round"/>
<path d="M2106.22 1240.33C2128.32 1268.46 2153.85 1293.86 2176.77 1322.24M2115.17 1235.71C2139.53 1268.95 2165.24 1304.9 2173.23 1326.31L2115.17 1235.71Z" stroke="black" stroke-width="13.1101" stroke-linecap="round"/>
<path d="M1767.22 594.89C1795.3 591.317 1903.24 568.602 1930.39 563.128M1761.28 587.417C1789.75 582.926 1905.28 563.587 1933.93 558.769L1761.28 587.417Z" stroke="black" stroke-width="13.1101" stroke-linecap="round"/>
<path d="M1856.61 605.281C1885.51 585.877 1916.67 570.635 1927.59 561.981M1854.07 605.216C1874.34 593.973 1892.46 586.532 1931.39 567.849L1854.07 605.216Z" stroke="black" stroke-width="13.1101" stroke-linecap="round"/>
<path d="M1843.72 552.672C1877.6 553.983 1913.88 559.588 1927.59 561.981M1841.18 552.573C1864.21 554.835 1885.59 560.768 1931.39 567.848L1841.18 552.573Z" stroke="black" stroke-width="13.1101" stroke-linecap="round"/>
<path d="M2261.32 736.241C2262.54 820.808 2262.25 1157.18 2262.18 1242.01M2254.59 739.945C2254.3 823.791 2254.26 1163.37 2253.94 1246.99L2254.59 739.945Z" stroke="black" stroke-width="13.1101" stroke-linecap="round"/>
<path d="M2222.14 1151.7C2235.25 1176.39 2248.03 1202.84 2263.79 1241.42M2224.61 1145.31C2243.16 1168.49 2243.63 1204.8 2258.2 1236.89L2224.61 1145.31Z" stroke="black" stroke-width="13.1101" stroke-linecap="round"/>
<path d="M2295.63 1151.74C2287.93 1176.38 2279.84 1202.84 2263.79 1241.42M2298.1 1145.34C2296.67 1168.19 2277.19 1204.48 2258.2 1236.89L2298.1 1145.34Z" stroke="black" stroke-width="13.1101" stroke-linecap="round"/>
</svg>
